{
.appVersion = "3180";
.formatVersion = 3;
DisplayStrings = (
"◌ঢ়",
"/tatabeng",
"/tatabeng",
"/ttharabeng/tatarabeng",
"/tatarabeng",
"/ttharabeng"
);
axes = (
{
name = Weight;
tag = wght;
},
{
name = Width;
tag = wdth;
}
);
classes = (
{
code = "kababeng kabeng kahalfbeng karabeng khababeng khabeng kharabeng";
name = class1;
},
{
code = "pababeng pabeng pahalfbeng parabeng phababeng phabeng phalabeng pharabeng phattabeng";
name = class3;
},
{

glyphs = (
{
glyphname = .notdef;
lastChange = "2020-04-14 07:50:44 +0000";
layers = (
{
layerId = "8680C114-EF70-46E9-96FB-C90A78B2DAE0";
shapes = (
{
closed = 1;
nodes = (
(505,0,l),
(505,714,l),
(94,714,l),
(94,0,l)
);
},
{
closed = 1;
nodes = (
(145,663,l),
(454,663,l),
(454,51,l),
(145,51,l)
);
}
);
width = 600;
},
{
layerId = UUID0;
shapes = (
{
closed = 1;
nodes = (
(505,0,l),
(505,714,l),
(94,714,l),
(94,0,l)
);
},
{
closed = 1;
nodes = (
(145,663,l),
(454,663,l),
(454,51,l),
(145,51,l)
);
}
);
width = 600;
},
{
layerId = "46A56A9B-0135-45C3-BDA6-6C6C4BC92BD5";
shapes = (
{
closed = 1;
nodes = (
(505,0,l),
(505,714,l),
(94,714,l),
(94,0,l)
);
},
{
closed = 1;
nodes = (
(145,663,l),
(454,663,l),
(454,51,l),
(145,51,l)
);
}
);
width = 600;
},
{
layerId = "22409DE3-74E9-441F-9C04-63D5519B89AC";
shapes = (
{
closed = 1;
nodes = (
(505,0,l),
(505,714,l),
(94,714,l),
(94,0,l)
);
},
{
closed = 1;
nodes = (
(145,663,l),
(454,663,l),
(454,51,l),
(145,51,l)
);
}
);
width = 600;
},
{
layerId = "F0143EB7-DEA3-4B38-8B70-DEA25CF19AA9";
shapes = (
{
closed = 1;
nodes = (
(505,0,l),
(505,714,l),
(94,714,l),
(94,0,l)
);
},
{
closed = 1;
nodes = (
(145,663,l),
(454,663,l),
(454,51,l),
(145,51,l)
);
}
);
width = 600;
}
);
},
{
glyphname = uni0980;
lastChange = "2020-04-14 07:51:14 +0000";
layers = (
{
anchors = (
{
name = Anchor4;
pos = (225,622);
}
);
layerId = "8680C114-EF70-46E9-96FB-C90A78B2DAE0";
shapes = (
{
closed = 1;
nodes = (
(330,376,l),
(311,370,o),
(292,367,o),
(268,367,cs),
(216,367,o),
(183,383,o),
(183,439,cs),
(183,497,o),
(232,548,o),
(297,548,cs),
(319,548,o),
(336,543,o),
(346,532,cs),
(359,519,o),
(362,501,o),
(362,456,cs),
(362,115,ls),
(362,-30,o),
(424,-44,o),
(556,-49,c),
(569,73,l),
(506,75,o),
(496,90,o),
(496,146,cs),
(496,482,ls),
(496,563,o),
(477,594,o),
(445,621,cs),
(413,648,o),
(365,659,o),
(311,659,cs),
(162,659,o),
(46,567,o),
(46,431,cs),
(46,321,o),
(112,254,o),
(258,254,cs),
(289,254,o),
(321,258,o),
(350,264,c)
);
}
);
width = 586;
},
{
anchors = (
{
name = Anchor4;
pos = (229,622);
}
);
layerId = UUID0;
shapes = (
{
closed = 1;
nodes = (
(331,363,l),
(305,354,o),
(278,350,o),
(244,350,cs),
(182,350,o),
(131,372,o),
(131,438,cs),
(131,520,o),
(205,588,o),
(280,588,cs),
(310,588,o),
(331,581,o),
(344,567,cs),
(362,549,o),
(365,525,o),
(365,476,cs),
(365,98,ls),
(365,-1,o),
(385,-47,o),
(519,-49,c),
(526,29,l),
(458,30,o),
(444,35,o),
(444,108,cs),
(444,493,ls),
(444,568,o),
(427,597,o),
(399,623,cs),
(370,649,o),
(329,660,o),
(281,660,cs),
(161,660,o),
(49,566,o),
(49,444,cs),
(49,339,o),
(115,275,o),
(246,275,cs),
(279,275,o),
(314,280,o),
(349,290,c)
);
}
);
width = 540;
},
{
anchors = (
{
name = Anchor4;
pos = (232,622);
}
);
layerId = "46A56A9B-0135-45C3-BDA6-6C6C4BC92BD5";
shapes = (
{
closed = 1;
nodes = (
(340,344,l),
(306,333,o),
(273,326,o),
(231,326,cs),
(144,326,o),
(84,352,o),
(84,447,cs),
(84,548,o),
(175,634,o),
(264,634,cs),
(298,634,o),
(323,625,o),
(340,608,cs),
(363,585,o),
(372,552,o),
(372,487,cs),
(372,75,ls),
(372,-11,o),
(391,-47,o),
(493,-49,c),
(496,-23,l),
(412,-22,o),
(398,-5,o),
(398,78,cs),
(398,498,ls),
(398,569,o),
(383,605,o),
(353,631,cs),
(331,650,o),
(301,660,o),
(264,660,cs),
(162,660,o),
(57,562,o),
(57,448,cs),
(57,345,o),
(120,300,o),
(230,300,cs),
(275,300,o),
(308,307,o),
(347,319,c)
);
}
);
width = 504;
},
{
anchors = (
{
name = Anchor4;
pos = (221,622);
}
);
layerId = "22409DE3-74E9-441F-9C04-63D5519B89AC";
shapes = (
{
closed = 1;
nodes = (
(330,388,l),
(316,384,o),
(302,382,o),
(285,382,cs),
(238,382,o),
(223,400,o),
(223,433,cs),
(223,484,o),
(263,520,o),
(309,520,cs),
(325,520,o),
(338,516,o),
(346,508,cs),
(355,498,o),
(359,485,o),
(359,443,cs),
(359,128,ls),
(359,-40,o),
(469,-45,o),
(588,-49,c),
(604,103,l),
(540,106,o),
(537,128,o),
(537,171,cs),
(537,456,ls),
(537,538,o),
(515,584,o),
(478,615,cs),
(441,646,o),
(389,660,o),
(327,660,cs),
(166,660,o),
(42,565,o),
(42,418,cs),
(42,309,o),
(114,240,o),
(266,240,cs),
(296,240,o),
(323,243,o),
(349,248,c)
);
}
);
width = 618;
},
{
anchors = (
{
name = Anchor4;
pos = (165,622);
}
);
layerId = "F0143EB7-DEA3-4B38-8B70-DEA25CF19AA9";
shapes = (
{
closed = 1;
nodes = (
(237,355,l),
(218,349,o),
(201,348,o),
(184,348,cs),
(139,348,o),
(112,362,o),
(112,435,cs),
(112,521,o),
(160,591,o),
(214,591,cs),
(229,591,o),
(239,587,o),
(246,580,cs),
(260,566,o),
(262,538,o),
(262,489,cs),
(262,97,ls),
(262,1,o),
(284,-42,o),
(384,-49,c),
(391,25,l),
(347,29,o),
(335,41,o),
(335,109,cs),
(335,502,ls),
(335,571,o),
(326,608,o),
(295,635,cs),
(277,650,o),
(252,660,o),
(217,660,cs),
(118,660,o),
(37,562,o),
(37,440,cs),
(37,340,o),
(84,276,o),
(185,276,cs),
(207,276,o),
(229,279,o),
(250,284,c)
);
}
);
width = 404;
}
);
unicode = 2432;
},
{
category = Mark;
glyphname = candrabindubeng;
lastChange = "2020-04-14 07:51:14 +0000";
layers = (
{
anchors = (
{
name = _Anchor4;
pos = (-218,622);
}
);
layerId = "8680C114-EF70-46E9-96FB-C90A78B2DAE0";
shapes = (
{
closed = 1;
nodes = (
(-52,887,l),
(-59,806,o),
(-91,765,o),
(-153,765,cs),
(-221,765,o),
(-247,810,o),
(-254,886,c),
(-361,875,l),
(-350,761,o),
(-287,675,o),
(-149,675,cs),
(-13,675,o),
(45,760,o),
(56,876,c)
);
},
{
closed = 1;
nodes = (
(-99,873,o),
(-118,890,o),
(-154,890,cs),
(-190,890,o),
(-207,868,o),
(-207,844,cs),
(-207,812,o),
(-188,792,o),
(-152,792,cs),
(-122,792,o),
(-99,810,o),
(-99,841,cs)
);
}
);
width = 0;
},
{
anchors = (
{
name = _Anchor4;
pos = (-172,622);
}
);
layerId = UUID0;
shapes = (
{
closed = 1;
nodes = (
(-28,870,l),
(-35,792,o),
(-69,751,o),
(-135,751,cs),
(-206,751,o),
(-234,795,o),
(-241,869,c),
(-310,860,l),
(-300,760,o),
(-247,685,o),
(-131,685,cs),
(-18,685,o),
(33,760,o),
(42,861,c)
);
},
{
closed = 1;
nodes = (
(-90,858,o),
(-105,873,o),
(-135,873,cs),
(-165,873,o),
(-178,854,o),
(-178,833,cs),
(-178,806,o),
(-163,788,o),
(-134,788,cs),
(-109,788,o),
(-90,803,o),
(-90,830,cs)
);
}
);
width = 0;
},
{
anchors = (
{
name = _Anchor4;
pos = (-151,622);
}
);
layerId = "46A56A9B-0135-45C3-BDA6-6C6C4BC92BD5";
shapes = (
{
closed = 1;
nodes = (
(5,860,l),
(-3,772,o),
(-45,728,o),
(-118,728,cs),
(-196,728,o),
(-233,775,o),
(-241,860,c),
(-267,857,l),
(-257,768,o),
(-214,703,o),
(-118,703,cs),
(-30,703,o),
(22,760,o),
(31,858,c)
);
},
{
closed = 1;
nodes = (
(-92,850,o),
(-99,864,o),
(-118,864,cs),
(-137,864,o),
(-144,850,o),
(-144,831,cs),
(-144,812,o),
(-137,798,o),
(-118,798,cs),
(-99,798,o),
(-92,812,o),
(-92,831,cs)
);
}
);
width = 0;
},
{
anchors = (
{
name = _Anchor4;
pos = (-255,622);
}
);
layerId = "22409DE3-74E9-441F-9C04-63D5519B89AC";
shapes = (
{
closed = 1;
nodes = (
(-70,897,l),
(-77,812,o),
(-110,773,o),
(-167,773,cs),
(-235,773,o),
(-257,818,o),
(-264,896,c),
(-397,884,l),
(-383,754,o),
(-316,664,o),
(-163,664,cs),
(-10,664,o),
(51,760,o),
(63,885,c)
);
},
{
closed = 1;
nodes = (
(-110,878,o),
(-129,900,o),
(-169,900,cs),
(-209,900,o),
(-228,878,o),
(-228,848,cs),
(-228,818,o),
(-209,796,o),
(-169,796,cs),
(-129,796,o),
(-110,818,o),
(-110,848,cs)
);
}
);
width = 0;
},
{
anchors = (
{
name = _Anchor4;
pos = (-139,622);
}
);
layerId = "F0143EB7-DEA3-4B38-8B70-DEA25CF19AA9";
shapes = (
{
closed = 1;
nodes = (
(-30,869,l),
(-35,791,o),
(-54,748,o),
(-105,748,cs),
(-160,748,o),
(-175,794,o),
(-180,868,c),
(-243,861,l),
(-235,762,o),
(-196,685,o),
(-103,685,cs),
(-9,685,o),
(27,763,o),
(34,862,c)
);
},
{
closed = 1;
nodes = (
(-69,857,o),
(-81,872,o),
(-105,872,cs),
(-131,872,o),
(-140,853,o),
(-140,832,cs),
(-140,806,o),
(-130,788,o),
(-105,788,cs),
(-83,788,o),
(-69,803,o),
(-69,829,cs)
);
}
);
width = 0;
}
);
subCategory = Nonspacing;
unicode = 2433;
},
{
glyphname = anusvarabeng;
lastChange = "2020-04-14 07:51:14 +0000";
layers = (
{
anchors = (
{
name = Anchor8;
pos = (-223,622);
}
);
layerId = "8680C114-EF70-46E9-96FB-C90A78B2DAE0";
shapes = (
{
closed = 1;
nodes = (
(61,220,l),
(189,143,o),
(263,58,o),
(337,-47,c),
(437,6,l),
(367,128,o),
(270,241,o),
(142,318,c)
);
},
{
closed = 1;
nodes = (
(64,385,o),
(131,325,o),
(219,325,cs),
(307,325,o),
(374,386,o),
(374,474,cs),
(374,561,o),
(307,622,o),
(219,622,cs),
(131,622,o),
(64,561,o),
(64,474,cs)
);
},
{
closed = 1;
nodes = (
(165,505,o),
(188,528,o),
(219,528,cs),
(250,528,o),
(273,505,o),
(273,474,cs),
(273,442,o),
(250,419,o),
(219,419,cs),
(188,419,o),
(165,442,o),
(165,474,cs)
);
}
);
width = 438;
},
{
anchors = (
{
name = Anchor8;
pos = (-203,622);
}
);
layerId = UUID0;
shapes = (
{
closed = 1;
nodes = (
(73,250,l),
(206,168,o),
(276,85,o),
(359,-41,c),
(424,-8,l),
(359,110,o),
(249,238,o),
(123,314,c)
);
},
{
closed = 1;
nodes = (
(78,402,o),
(139,349,o),
(219,349,cs),
(299,349,o),
(360,403,o),
(360,486,cs),
(360,568,o),
(299,622,o),
(219,622,cs),
(139,622,o),
(78,568,o),
(78,486,cs)
);
},
{
closed = 1;
nodes = (
(147,529,o),
(177,557,o),
(219,557,cs),
(261,557,o),
(291,531,o),
(291,486,cs),
(291,442,o),
(261,414,o),
(219,414,cs),
(177,414,o),
(147,441,o),
(147,486,cs)
);
}
);
width = 438;
},
{
anchors = (
{
name = Anchor8;
pos = (-203,622);
}
);
layerId = "46A56A9B-0135-45C3-BDA6-6C6C4BC92BD5";
shapes = (
{
closed = 1;
nodes = (
(72,288,l),
(209,201,o),
(288,113,o),
(384,-34,c),
(407,-22,l),
(323,117,o),
(209,237,o),
(87,310,c)
);
},
{
closed = 1;
nodes = (
(83,419,o),
(135,370,o),
(211,370,cs),
(287,370,o),
(340,418,o),
(340,497,cs),
(340,571,o),
(285,622,o),
(211,622,cs),
(136,622,o),
(83,569,o),
(83,496,cs)
);
},
{
closed = 1;
nodes = (
(110,556,o),
(150,596,o),
(211,596,cs),
(271,596,o),
(313,557,o),
(313,496,cs),
(313,435,o),
(272,396,o),
(211,396,cs),
(151,396,o),
(110,432,o),
(110,495,cs)
);
}
);
width = 423;
},
{
anchors = (
{
name = Anchor8;
pos = (-243,622);
}
);
layerId = "22409DE3-74E9-441F-9C04-63D5519B89AC";
shapes = (
{
closed = 1;
nodes = (
(53,198,l),
(159,134,o),
(250,38,o),
(319,-54,c),
(443,23,l),
(369,148,o),
(266,255,o),
(152,320,c)
);
},
{
closed = 1;
nodes = (
(58,378,o),
(131,319,o),
(226,319,cs),
(322,319,o),
(395,378,o),
(395,471,cs),
(395,562,o),
(322,622,o),
(226,622,cs),
(131,622,o),
(58,561,o),
(58,471,cs)
);
},
{
closed = 1;
nodes = (
(184,493,o),
(202,511,o),
(226,511,cs),
(251,511,o),
(269,493,o),
(269,471,cs),
(269,446,o),
(251,429,o),
(226,429,cs),
(202,429,o),
(184,446,o),
(184,471,cs)
);
}
);
width = 453;
},
{
anchors = (
{
name = Anchor8;
pos = (-166,622);
}
);
layerId = "F0143EB7-DEA3-4B38-8B70-DEA25CF19AA9";
shapes = (
{
closed = 1;
nodes = (
(65,258,l),
(158,176,o),
(217,79,o),
(270,-41,c),
(332,-18,l),
(281,112,o),
(212,232,o),
(116,314,c)
);
},
{
closed = 1;
nodes = (
(61,398,o),
(111,350,o),
(180,350,cs),
(248,350,o),
(297,398,o),
(297,486,cs),
(297,574,o),
(248,622,o),
(180,622,cs),
(111,622,o),
(61,574,o),
(61,486,cs)
);
},
{
closed = 1;
nodes = (
(124,538,o),
(146,562,o),
(180,562,cs),
(212,562,o),
(234,538,o),
(234,486,cs),
(234,434,o),
(212,410,o),
(180,410,cs),
(146,410,o),
(124,434,o),
(124,486,cs)
);
}
);
width = 358;
}
);
unicode = 2434;
},
{
glyphname = visargabeng;
lastChange = "2020-04-14 07:51:14 +0000";
layers = (
{
anchors = (
{
name = Anchor8;
pos = (-223,622);
}
);
layerId = "8680C114-EF70-46E9-96FB-C90A78B2DAE0";
shapes = (
{
closed = 1;
nodes = (
(64,385,o),
(131,325,o),
(219,325,cs),
(307,325,o),
(374,386,o),
(374,474,cs),
(374,561,o),
(307,622,o),
(219,622,cs),
(131,622,o),
(64,561,o),
(64,474,cs)
);
},
{
closed = 1;
nodes = (
(165,505,o),
(188,528,o),
(219,528,cs),
(250,528,o),
(273,505,o),
(273,474,cs),
(273,442,o),
(250,419,o),
(219,419,cs),
(188,419,o),
(165,442,o),
(165,474,cs)
);
},
{
closed = 1;
nodes = (
(64,60,o),
(131,0,o),
(219,0,cs),
(307,0,o),
(374,61,o),
(374,149,cs),
(374,236,o),
(307,297,o),
(219,297,cs),
(131,297,o),
(64,236,o),
(64,149,cs)
);
},
{
closed = 1;
nodes = (
(165,180,o),
(188,203,o),
(219,203,cs),
(250,203,o),
(273,180,o),
(273,149,cs),
(273,117,o),
(250,94,o),
(219,94,cs),
(188,94,o),
(165,117,o),
(165,149,cs)
);
}
);
width = 438;
},
{
anchors = (
{
name = Anchor8;
pos = (-203,622);
}
);
layerId = UUID0;
shapes = (
{
closed = 1;
nodes = (
(78,402,o),
(139,349,o),
(219,349,cs),
(299,349,o),
(360,403,o),
(360,486,cs),
(360,568,o),
(299,622,o),
(219,622,cs),
(139,622,o),
(78,568,o),
(78,486,cs)
);
},
{
closed = 1;
nodes = (
(147,529,o),
(177,557,o),
(219,557,cs),
(261,557,o),
(291,529,o),
(291,486,cs),
(291,442,o),
(261,414,o),
(219,414,cs),
(177,414,o),
(147,441,o),
(147,486,cs)
);
},
{
closed = 1;
nodes = (
(78,54,o),
(139,0,o),
(219,0,cs),
(299,0,o),
(360,54,o),
(360,137,cs),
(360,220,o),
(299,273,o),
(219,273,cs),
(139,273,o),
(78,219,o),
(78,137,cs)
);
},
{
closed = 1;
nodes = (
(147,180,o),
(177,208,o),
(219,208,cs),
(261,208,o),
(291,181,o),
(291,137,cs),
(291,93,o),
(261,65,o),
(219,65,cs),
(177,65,o),
(147,93,o),
(147,137,cs)
);
}
);
width = 438;
},
{
anchors = (
{
name = Anchor8;
pos = (-203,622);
}
);
layerId = "46A56A9B-0135-45C3-BDA6-6C6C4BC92BD5";
shapes = (
{
closed = 1;
nodes = (
(83,419,o),
(135,370,o),
(211,370,cs),
(287,370,o),
(340,418,o),
(340,497,cs),
(340,571,o),
(285,622,o),
(211,622,cs),
(136,622,o),
(83,569,o),
(83,496,cs)
);
},
{
closed = 1;
nodes = (
(110,556,o),
(150,596,o),
(211,596,cs),
(271,596,o),
(313,557,o),
(313,496,cs),
(313,435,o),
(272,396,o),
(211,396,cs),
(151,396,o),
(110,432,o),
(110,495,cs)
);
},
{
closed = 1;
nodes = (
(83,49,o),
(135,0,o),
(211,0,cs),
(287,0,o),
(340,48,o),
(340,127,cs),
(340,201,o),
(285,252,o),
(211,252,cs),
(136,252,o),
(83,199,o),
(83,126,cs)
);
},
{
closed = 1;
nodes = (
(110,186,o),
(150,226,o),
(211,226,cs),
(271,226,o),
(313,187,o),
(313,126,cs),
(313,65,o),
(272,26,o),
(211,26,cs),
(151,26,o),
(110,62,o),
(110,125,cs)
);
}
);
width = 423;
},
{
anchors = (
{
name = Anchor8;
pos = (-243,622);
}
);
layerId = "22409DE3-74E9-441F-9C04-63D5519B89AC";
shapes = (
{
closed = 1;
nodes = (
(58,378,o),
(131,319,o),
(226,319,cs),
(322,319,o),
(395,378,o),
(395,471,cs),
(395,562,o),
(322,622,o),
(226,622,cs),
(131,622,o),
(58,561,o),
(58,471,cs)
);
},
{
closed = 1;
nodes = (
(184,493,o),
(202,511,o),
(226,511,cs),
(251,511,o),
(269,493,o),
(269,471,cs),
(269,446,o),
(251,429,o),
(226,429,cs),
(202,429,o),
(184,446,o),
(184,471,cs)
);
},
{
closed = 1;
nodes = (
(58,59,o),
(131,0,o),
(226,0,cs),
(322,0,o),
(395,59,o),
(395,152,cs),
(395,243,o),
(322,303,o),
(226,303,cs),
(131,303,o),
(58,242,o),
(58,152,cs)
);
},
{
closed = 1;
nodes = (
(184,174,o),
(202,192,o),
(226,192,cs),
(251,192,o),
(269,174,o),
(269,152,cs),
(269,127,o),
(251,110,o),
(226,110,cs),
(202,110,o),
(184,127,o),
(184,152,cs)
);
}
);
width = 453;
},
{
anchors = (
{
name = Anchor8;
pos = (-166,622);
}
);
layerId = "F0143EB7-DEA3-4B38-8B70-DEA25CF19AA9";
shapes = (
{
closed = 1;
nodes = (
(61,398,o),
(111,350,o),
(180,350,cs),
(248,350,o),
(297,398,o),
(297,486,cs),
(297,574,o),
(248,622,o),
(180,622,cs),
(111,622,o),
(61,574,o),
(61,486,cs)
);
},
{
closed = 1;
nodes = (
(124,538,o),
(146,562,o),
(180,562,cs),
(212,562,o),
(234,538,o),
(234,486,cs),
(234,434,o),
(212,410,o),
(180,410,cs),
(146,410,o),
(124,434,o),
(124,486,cs)
);
},
{
closed = 1;
nodes = (
(61,48,o),
(111,0,o),
(180,0,cs),
(248,0,o),
(297,48,o),
(297,136,cs),
(297,224,o),
(248,272,o),
(180,272,cs),
(111,272,o),
(61,224,o),
(61,136,cs)
);
},
{
closed = 1;
nodes = (
(124,188,o),
(146,212,o),
(180,212,cs),
(212,212,o),
(234,188,o),
(234,136,cs),
(234,84,o),
(212,60,o),
(180,60,cs),
(146,60,o),
(124,84,o),
(124,136,cs)
);
}
);
width = 358;
}
);
unicode = 2435;
},
{
glyphname = abeng;
lastChange = "2020-04-14 07:51:14 +0000";
layers = (
{
anchors = (
{
name = Anchor8;
pos = (480,622);
}
);
layerId = "8680C114-EF70-46E9-96FB-C90A78B2DAE0";
shapes = (
{
closed = 1;
nodes = (
(-10,622,l),
(-10,512,l),
(742,512,l),
(742,217,ls),
(742,191,o),
(743,167,o),
(745,146,c),
(718,176,o),
(674,211,o),
(624,240,c),
(566,155,l),
(629,121,o),
(705,70,o),
(742,0,c),
(874,0,l),
(874,512,l),
(970,512,l),
(970,622,l)
);
},
{
closed = 1;
nodes = (
(584,82,o),
(662,174,o),
(662,283,cs),
(662,399,o),
(578,486,o),
(440,486,cs),
(357,486,o),
(278,451,o),
(278,354,cs),
(278,336,o),
(283,311,o),
(294,286,c),
(418,304,l),
(414,315,o),
(411,328,o),
(411,339,cs),
(411,363,o),
(427,379,o),
(457,379,cs),
(500,379,o),
(530,348,o),
(530,298,cs),
(530,235,o),
(486,197,o),
(392,197,cs),
(271,197,o),
(203,276,o),
(140,463,c),
(15,428,l),
(100,167,o),
(233,82,o),
(398,82,cs)
);
},
{
closed = 1;
nodes = (
(466,431,l),
(459,488,o),
(430,522,o),
(355,553,c),
(309,564,l),
(234,520,l),
(297,505,o),
(329,472,o),
(335,428,c)
);
}
);
width = 960;
},
{
anchors = (
{
name = Anchor8;
pos = (446,622);
}
);
layerId = UUID0;
shapes = (
{
closed = 1;
nodes = (
(-10,622,l),
(-10,551,l),
(721,551,l),
(721,194,ls),
(721,162,o),
(722,138,o),
(724,109,c),
(695,161,o),
(633,217,o),
(582,246,c),
(557,180,l),
(622,137,o),
(682,79,o),
(721,0,c),
(798,0,l),
(798,551,l),
(903,551,l),
(903,622,l)
);
},
{
closed = 1;
nodes = (
(531,91,o),
(606,185,o),
(606,294,cs),
(606,415,o),
(530,500,o),
(413,500,cs),
(340,500,o),
(271,462,o),
(271,388,cs),
(271,367,o),
(275,344,o),
(285,316,c),
(361,331,l),
(356,344,o),
(353,362,o),
(353,372,cs),
(353,410,o),
(376,430,o),
(420,430,cs),
(483,430,o),
(530,377,o),
(530,300,cs),
(530,225,o),
(488,167,o),
(378,167,cs),
(252,167,o),
(173,257,o),
(102,466,c),
(29,442,l),
(121,174,o),
(239,91,o),
(376,91,cs)
);
},
{
closed = 1;
nodes = (
(423,468,l),
(417,525,o),
(388,559,o),
(312,589,c),
(267,601,l),
(243,556,l),
(306,542,o),
(337,508,o),
(344,465,c)
);
}
);
width = 893;
},
{
anchors = (
{
name = Anchor8;
pos = (433,622);
}
);
layerId = "46A56A9B-0135-45C3-BDA6-6C6C4BC92BD5";
shapes = (
{
closed = 1;
nodes = (
(-10,622,l),
(-10,596,l),
(707,596,l),
(707,168,ls),
(707,100,o),
(709,79,o),
(711,43,c),
(674,128,o),
(610,199,o),
(542,242,c),
(530,220,l),
(607,169,o),
(667,89,o),
(707,0,c),
(733,0,l),
(733,596,l),
(848,596,l),
(848,622,l)
);
},
{
closed = 1;
nodes = (
(498,123,o),
(576,195,o),
(576,319,cs),
(576,433,o),
(501,514,o),
(395,514,cs),
(329,514,o),
(273,473,o),
(273,406,cs),
(273,384,o),
(278,357,o),
(287,336,c),
(313,343,l),
(302,368,o),
(300,385,o),
(300,405,cs),
(300,460,o),
(339,488,o),
(396,488,cs),
(486,488,o),
(549,420,o),
(549,318,cs),
(549,224,o),
(501,149,o),
(368,149,cs),
(243,149,o),
(141,245,o),
(61,478,c),
(35,470,l),
(127,205,o),
(245,123,o),
(368,123,cs)
);
},
{
closed = 1;
nodes = (
(398,507,l),
(390,557,o),
(356,592,o),
(291,613,c),
(270,612,l),
(265,598,l),
(325,584,o),
(362,551,o),
(372,504,c)
);
}
);
width = 838;
},
{
anchors = (
{
name = Anchor8;
pos = (505,622);
}
);
layerId = "22409DE3-74E9-441F-9C04-63D5519B89AC";
shapes = (
{
closed = 1;
nodes = (
(-10,622,l),
(-10,484,l),
(760,484,l),
(760,235,ls),
(760,218,o),
(760,188,o),
(763,169,c),
(736,198,o),
(694,223,o),
(648,244,c),
(573,138,l),
(640,109,o),
(707,64,o),
(760,0,c),
(935,0,l),
(935,484,l),
(1020,484,l),
(1020,622,l)
);
},
{
closed = 1;
nodes = (
(621,60,o),
(697,153,o),
(697,261,cs),
(697,378,o),
(615,463,o),
(467,463,cs),
(366,463,o),
(285,427,o),
(285,335,cs),
(285,312,o),
(291,279,o),
(305,253,c),
(458,272,l),
(455,281,o),
(453,290,o),
(453,300,cs),
(453,316,o),
(465,329,o),
(483,329,cs),
(509,329,o),
(524,309,o),
(524,280,cs),
(524,223,o),
(479,202,o),
(404,202,cs),
(280,202,o),
(224,277,o),
(173,450,c),
(13,407,l),
(90,156,o),
(216,60,o),
(426,60,cs)
);
},
{
closed = 1;
nodes = (
(499,403,l),
(491,460,o),
(463,497,o),
(389,528,c),
(341,536,l),
(243,492,l),
(306,477,o),
(342,444,o),
(347,400,c)
);
}
);
width = 1010;
},
{
anchors = (
{
name = Anchor8;
pos = (334,622);
}
);
layerId = "F0143EB7-DEA3-4B38-8B70-DEA25CF19AA9";
shapes = (
{
closed = 1;
nodes = (
(-6,622,l),
(-6,554,l),
(529,554,l),
(529,200,ls),
(529,175,o),
(530,142,o),
(532,110,c),
(504,172,o),
(468,216,o),
(431,246,c),
(407,182,l),
(455,138,o),
(497,82,o),
(529,0,c),
(600,0,l),
(600,554,l),
(674,554,l),
(674,622,l)
);
},
{
closed = 1;
nodes = (
(397,93,o),
(456,183,o),
(456,296,cs),
(456,419,o),
(402,500,o),
(309,500,cs),
(255,500,o),
(204,469,o),
(204,393,cs),
(204,375,o),
(208,348,o),
(217,321,c),
(284,335,l),
(279,349,o),
(276,368,o),
(276,383,cs),
(276,413,o),
(290,432,o),
(316,432,cs),
(358,432,o),
(386,381,o),
(386,298,cs),
(386,229,o),
(355,166,o),
(282,166,cs),
(194,166,o),
(140,256,o),
(91,467,c),
(22,450,l),
(85,182,o),
(170,93,o),
(283,93,cs)
);
},
{
closed = 1;
nodes = (
(322,470,l),
(317,527,o),
(289,556,o),
(230,582,c),
(197,594,l),
(166,559,l),
(215,544,o),
(244,511,o),
(249,467,c)
);
}
);
width = 668;
}
);
unicode = 2437;
},
{
glyphname = aabeng;
lastChange = "2020-04-14 07:51:14 +0000";
layers = (
{
anchors = (
{
name = Anchor4;
pos = (985,622);
},
{
name = Anchor8;
pos = (632,622);
}
);
layerId = "8680C114-EF70-46E9-96FB-C90A78B2DAE0";
shapes = (
{
closed = 1;
nodes = (
(-10,622,l),
(-10,512,l),
(742,512,l),
(742,217,ls),
(742,191,o),
(743,167,o),
(745,146,c),
(718,176,o),
(674,211,o),
(624,240,c),
(566,155,l),
(629,121,o),
(705,70,o),
(742,0,c),
(874,0,l),
(874,512,l),
(970,512,l),
(970,622,l)
);
},
{
closed = 1;
nodes = (
(584,82,o),
(662,174,o),
(662,283,cs),
(662,399,o),
(578,486,o),
(440,486,cs),
(357,486,o),
(278,451,o),
(278,354,cs),
(278,336,o),
(283,311,o),
(294,286,c),
(418,304,l),
(414,315,o),
(411,328,o),
(411,339,cs),
(411,363,o),
(427,379,o),
(457,379,cs),
(500,379,o),
(530,348,o),
(530,298,cs),
(530,235,o),
(486,197,o),
(392,197,cs),
(271,197,o),
(203,276,o),
(140,463,c),
(15,428,l),
(100,167,o),
(233,82,o),
(398,82,cs)
);
},
{
closed = 1;
nodes = (
(466,431,l),
(459,488,o),
(430,522,o),
(355,553,c),
(309,564,l),
(234,520,l),
(297,505,o),
(329,472,o),
(335,428,c)
);
},
{
closed = 1;
nodes = (
(1177,622,l),
(1154,688,l),
(1046,688,l),
(1046,613,ls),
(1046,596,o),
(1048,566,o),
(1050,559,c),
(1029,606,o),
(1002,622,o),
(975,622,cs),
(953,622,l),
(953,512,l),
(968,512,ls),
(1003,512,o),
(1025,493,o),
(1046,444,c),
(1046,0,l),
(1178,0,l),
(1178,512,l),
(1274,512,l),
(1274,622,l)
);
}
);
width = 1264;
},
{
anchors = (
{
name = Anchor4;
pos = (925,622);
},
{
name = Anchor8;
pos = (579,622);
}
);
layerId = UUID0;
shapes = (
{
closed = 1;
nodes = (
(-10,622,l),
(-10,551,l),
(721,551,l),
(721,194,ls),
(721,162,o),
(722,138,o),
(724,109,c),
(695,161,o),
(633,217,o),
(582,246,c),
(557,180,l),
(622,137,o),
(682,79,o),
(721,0,c),
(798,0,l),
(798,551,l),
(898,551,l),
(898,622,l)
);
},
{
closed = 1;
nodes = (
(531,91,o),
(606,185,o),
(606,294,cs),
(606,415,o),
(530,500,o),
(413,500,cs),
(340,500,o),
(271,462,o),
(271,388,cs),
(271,367,o),
(275,344,o),
(285,316,c),
(361,331,l),
(356,344,o),
(353,362,o),
(353,372,cs),
(353,410,o),
(376,430,o),
(420,430,cs),
(483,430,o),
(530,377,o),
(530,300,cs),
(530,224,o),
(488,167,o),
(378,167,cs),
(252,167,o),
(173,257,o),
(102,466,c),
(29,442,l),
(121,174,o),
(239,91,o),
(376,91,cs)
);
},
{
closed = 1;
nodes = (
(423,468,l),
(417,525,o),
(388,559,o),
(312,589,c),
(267,601,l),
(243,556,l),
(306,542,o),
(337,508,o),
(344,465,c)
);
},
{
closed = 1;
nodes = (
(1062,622,l),
(1039,688,l),
(986,688,l),
(986,613,ls),
(986,596,o),
(988,566,o),
(990,559,c),
(968,601,o),
(934,622,o),
(897,622,cs),
(887,622,l),
(887,551,l),
(897,551,ls),
(936,551,o),
(963,531,o),
(986,479,c),
(986,0,l),
(1063,0,l),
(1063,551,l),
(1168,551,l),
(1168,622,l)
);
}
);
width = 1158;
},
{
anchors = (
{
name = Anchor4;
pos = (920,622);
},
{
name = Anchor8;
pos = (558,622);
}
);
layerId = "46A56A9B-0135-45C3-BDA6-6C6C4BC92BD5";
shapes = (
{
closed = 1;
nodes = (
(-10,622,l),
(-10,596,l),
(707,596,l),
(707,168,ls),
(707,100,o),
(709,79,o),
(711,43,c),
(674,128,o),
(610,199,o),
(542,242,c),
(530,220,l),
(607,169,o),
(667,89,o),
(707,0,c),
(733,0,l),
(733,596,l),
(848,596,l),
(848,622,l)
);
},
{
closed = 1;
nodes = (
(498,123,o),
(576,195,o),
(576,319,cs),
(576,434,o),
(501,514,o),
(395,514,cs),
(329,514,o),
(273,473,o),
(273,406,cs),
(273,384,o),
(278,357,o),
(287,336,c),
(313,343,l),
(302,368,o),
(300,385,o),
(300,405,cs),
(300,460,o),
(339,488,o),
(396,488,cs),
(486,488,o),
(549,420,o),
(549,318,cs),
(549,224,o),
(501,149,o),
(368,149,cs),
(243,149,o),
(141,245,o),
(61,478,c),
(35,470,l),
(127,205,o),
(245,123,o),
(368,123,cs)
);
},
{
closed = 1;
nodes = (
(398,507,l),
(390,557,o),
(356,592,o),
(291,613,c),
(270,612,l),
(265,598,l),
(328,585,o),
(363,553,o),
(372,504,c)
);
},
{
closed = 1;
nodes = (
(969,622,l),
(963,676,l),
(943,676,l),
(943,613,ls),
(943,588,o),
(943,561,o),
(945,547,c),
(914,605,o),
(878,622,o),
(845,622,cs),
(828,622,l),
(828,596,l),
(840,596,ls),
(888,596,o),
(912,566,o),
(943,513,c),
(943,0,l),
(969,0,l),
(969,596,l),
(1084,596,l),
(1084,622,l)
);
}
);
width = 1074;
},
{
anchors = (
{
name = Anchor4;
pos = (1030,622);
},
{
name = Anchor8;
pos = (667,622);
}
);
layerId = "22409DE3-74E9-441F-9C04-63D5519B89AC";
shapes = (
{
closed = 1;
nodes = (
(-10,622,l),
(-10,484,l),
(760,484,l),
(760,235,ls),
(760,218,o),
(760,188,o),
(763,169,c),
(736,198,o),
(694,223,o),
(648,244,c),
(573,138,l),
(640,109,o),
(707,64,o),
(760,0,c),
(935,0,l),
(935,484,l),
(1020,484,l),
(1020,622,l)
);
},
{
closed = 1;
nodes = (
(621,60,o),
(697,153,o),
(697,261,cs),
(697,378,o),
(615,463,o),
(467,463,cs),
(366,463,o),
(285,427,o),
(285,335,cs),
(285,312,o),
(291,279,o),
(305,253,c),
(458,272,l),
(455,281,o),
(453,290,o),
(453,300,cs),
(453,316,o),
(465,329,o),
(483,329,cs),
(509,329,o),
(524,309,o),
(524,280,cs),
(524,223,o),
(479,202,o),
(404,202,cs),
(280,202,o),
(224,277,o),
(173,450,c),
(13,407,l),
(90,156,o),
(216,60,o),
(426,60,cs)
);
},
{
closed = 1;
nodes = (
(499,403,l),
(491,460,o),
(463,497,o),
(389,528,c),
(341,536,l),
(243,492,l),
(306,477,o),
(342,444,o),
(347,400,c)
);
},
{
closed = 1;
nodes = (
(1259,622,l),
(1235,692,l),
(1085,692,l),
(1085,631,ls),
(1085,612,o),
(1086,584,o),
(1089,566,c),
(1074,606,o),
(1045,622,o),
(1020,622,cs),
(1000,622,l),
(1000,484,l),
(1007,484,ls),
(1046,484,o),
(1069,465,o),
(1085,427,c),
(1085,0,l),
(1260,0,l),
(1260,484,l),
(1345,484,l),
(1345,622,l)
);
}
);
width = 1335;
},
{
anchors = (
{
name = Anchor4;
pos = (692,622);
},
{
name = Anchor8;
pos = (436,622);
}
);
layerId = "F0143EB7-DEA3-4B38-8B70-DEA25CF19AA9";
shapes = (
{
closed = 1;
nodes = (
(-6,622,l),
(-6,554,l),
(529,554,l),
(529,200,ls),
(529,175,o),
(530,142,o),
(532,110,c),
(504,172,o),
(468,216,o),
(431,246,c),
(407,182,l),
(455,138,o),
(497,82,o),
(529,0,c),
(600,0,l),
(600,554,l),
(674,554,l),
(674,622,l)
);
},
{
closed = 1;
nodes = (
(397,93,o),
(456,183,o),
(456,297,cs),
(456,419,o),
(402,500,o),
(310,500,cs),
(256,500,o),
(204,469,o),
(204,393,cs),
(204,375,o),
(208,348,o),
(217,321,c),
(284,335,l),
(279,349,o),
(276,368,o),
(276,383,cs),
(276,413,o),
(290,432,o),
(316,432,cs),
(358,432,o),
(386,381,o),
(386,298,cs),
(386,229,o),
(355,166,o),
(282,166,cs),
(194,166,o),
(140,256,o),
(91,467,c),
(22,450,l),
(85,182,o),
(170,93,o),
(283,93,cs)
);
},
{
closed = 1;
nodes = (
(322,470,l),
(317,527,o),
(289,556,o),
(230,582,c),
(197,594,l),
(166,559,l),
(215,544,o),
(244,511,o),
(249,467,c)
);
},
{
closed = 1;
nodes = (
(804,622,l),
(788,688,l),
(734,688,l),
(734,627,ls),
(734,608,o),
(735,586,o),
(737,569,c),
(719,601,o),
(699,622,o),
(672,622,cs),
(660,622,l),
(660,554,l),
(663,554,ls),
(695,554,o),
(717,526,o),
(734,485,c),
(734,0,l),
(805,0,l),
(805,554,l),
(879,554,l),
(879,622,l)
);
}
);
width = 873;
}
);
unicode = 2438;
},
{
glyphname = ibeng;
lastChange = "2020-04-14 07:51:14 +0000";
layers = (
{
anchors = (
{
name = Anchor8;
pos = (287,622);
}
);
layerId = "8680C114-EF70-46E9-96FB-C90A78B2DAE0";
shapes = (
{
closed = 1;
nodes = (
(479,622,l),
(477,684,o),
(463,724,o),
(438,749,cs),
(406,780,o),
(365,790,o),
(286,790,cs),
(223,790,ls),
(172,790,o),
(154,797,o),
(140,810,cs),
(125,824,o),
(120,847,o),
(120,875,cs),
(120,883,o),
(121,892,o),
(122,904,c),
(-3,912,l),
(-7,888,o),
(-8,874,o),
(-8,854,cs),
(-8,805,o),
(3,767,o),
(28,739,cs),
(64,699,o),
(125,680,o),
(226,680,cs),
(285,680,ls),
(335,680,o),
(352,663,o),
(354,622,c)
);
},
{
ref = habeng;
}
);
width = 574;
},
{
anchors = (
{
name = Anchor8;
pos = (265,622);
}
);
layerId = UUID0;
shapes = (
{
closed = 1;
nodes = (
(430,622,l),
(428,677,o),
(417,712,o),
(394,734,cs),
(365,762,o),
(328,771,o),
(257,771,cs),
(200,771,ls),
(134,771,o),
(103,781,o),
(84,802,cs),
(70,817,o),
(65,840,o),
(65,869,cs),
(65,879,o),
(66,891,o),
(69,907,c),
(-5,912,l),
(-8,893,o),
(-10,876,o),
(-10,859,cs),
(-10,805,o),
(8,763,o),
(44,736,cs),
(77,711,o),
(118,699,o),
(206,699,cs),
(278,699,ls),
(334,699,o),
(356,677,o),
(358,622,c)
);
},
{
ref = habeng;
}
);
width = 530;
},
{
anchors = (
{
name = Anchor8;
pos = (258,622);
}
);
layerId = "46A56A9B-0135-45C3-BDA6-6C6C4BC92BD5";
shapes = (
{
closed = 1;
nodes = (
(393,622,l),
(390,679,o),
(374,713,o),
(342,733,cs),
(321,746,o),
(296,752,o),
(253,752,cs),
(180,752,ls),
(106,752,o),
(69,759,o),
(46,785,cs),
(31,802,o),
(23,828,o),
(23,863,cs),
(23,877,o),
(24,893,o),
(27,910,c),
(0,912,l),
(-3,895,o),
(-4,878,o),
(-4,862,cs),
(-4,825,o),
(5,795,o),
(21,774,cs),
(52,734,o),
(107,726,o),
(182,726,cs),
(254,726,ls),
(343,726,o),
(363,690,o),
(367,622,c)
);
},
{
ref = habeng;
}
);
width = 502;
},
{
anchors = (
{
name = Anchor8;
pos = (299,622);
}
);
layerId = "22409DE3-74E9-441F-9C04-63D5519B89AC";
shapes = (
{
closed = 1;
nodes = (
(522,622,l),
(518,698,o),
(503,745,o),
(468,774,cs),
(432,803,o),
(392,812,o),
(311,812,cs),
(261,812,ls),
(213,812,o),
(194,815,o),
(180,826,cs),
(167,836,o),
(162,851,o),
(162,877,cs),
(162,883,o),
(163,893,o),
(165,905,c),
(0,915,l),
(-4,891,o),
(-6,872,o),
(-6,853,cs),
(-6,799,o),
(6,760,o),
(30,733,cs),
(69,689,o),
(131,675,o),
(246,675,cs),
(297,675,ls),
(341,675,o),
(352,659,o),
(355,622,c)
);
},
{
ref = habeng;
}
);
width = 598;
},
{
anchors = (
{
name = Anchor8;
pos = (198,622);
}
);
layerId = "F0143EB7-DEA3-4B38-8B70-DEA25CF19AA9";
shapes = (
{
closed = 1;
nodes = (
(326,622,l),
(324,681,o),
(316,716,o),
(290,741,cs),
(269,761,o),
(241,771,o),
(184,771,cs),
(170,771,ls),
(123,771,o),
(102,778,o),
(86,792,cs),
(67,808,o),
(61,834,o),
(61,866,cs),
(61,879,o),
(62,892,o),
(64,907,c),
(-3,912,l),
(-6,896,o),
(-8,877,o),
(-8,859,cs),
(-8,808,o),
(5,766,o),
(36,739,cs),
(64,715,o),
(104,702,o),
(173,702,cs),
(185,702,ls),
(242,702,o),
(256,673,o),
(259,622,c)
);
},
{
ref = habeng;
}
);
width = 396;
}
);
unicode = 2439;
},
{
glyphname = iibeng;
lastChange = "2020-04-14 07:51:14 +0000";
layers = (
{
anchors = (
{
name = Anchor8;
pos = (360,622);
}
);
layerId = "8680C114-EF70-46E9-96FB-C90A78B2DAE0";
shapes = (
{
closed = 1;
nodes = (
(292,65,o),
(331,96,o),
(396,192,cs),
(464,292,o),
(526,334,o),
(610,364,c),
(530,368,l),
(502,318,o),
(487,260,o),
(487,197,cs),
(487,132,o),
(499,63,o),
(523,-11,c),
(653,16,l),
(630,84,o),
(620,144,o),
(620,193,cs),
(620,259,o),
(632,315,o),
(662,364,c),
(560,464,l),
(458,421,o),
(380,351,o),
(334,282,c),
(408,254,l),
(410,268,o),
(411,289,o),
(411,307,c),
(404,406,o),
(326,484,o),
(204,484,cs),
(127,484,o),
(42,451,o),
(42,367,cs),
(42,343,o),
(46,316,o),
(55,293,c),
(178,311,l),
(174,322,o),
(172,333,o),
(172,342,cs),
(172,364,o),
(188,379,o),
(216,379,cs),
(267,379,o),
(297,328,o),
(297,283,cs),
(297,258,o),
(288,234,o),
(270,215,cs),
(251,194,o),
(234,181,o),
(213,181,cs),
(191,181,o),
(175,194,o),
(150,234,c),
(58,178,l),
(102,104,o),
(148,65,o),
(219,65,cs)
);
},
{
closed = 1;
nodes = (
(-10,622,l),
(-10,512,l),
(731,512,l),
(731,622,l)
);
},
{
closed = 1;
nodes = (
(264,431,l),
(258,488,o),
(229,522,o),
(153,553,c),
(107,564,l),
(32,520,l),
(95,505,o),
(127,472,o),
(134,428,c)
);
},
{
closed = 1;
nodes = (
(610,622,l),
(608,684,o),
(594,724,o),
(569,749,cs),
(537,780,o),
(496,790,o),
(417,790,cs),
(271,790,ls),
(220,790,o),
(202,797,o),
(188,810,cs),
(173,824,o),
(168,847,o),
(168,875,cs),
(168,883,o),
(169,892,o),
(170,904,c),
(45,912,l),
(41,888,o),
(40,874,o),
(40,854,cs),
(40,805,o),
(51,767,o),
(76,739,cs),
(112,699,o),
(173,680,o),
(274,680,cs),
(416,680,ls),
(467,680,o),
(483,663,o),
(485,622,c)
);
}
);
width = 721;
},
{
anchors = (
{
name = Anchor8;
pos = (344,622);
}
);
layerId = UUID0;
shapes = (
{
closed = 1;
nodes = (
(273,91,o),
(301,124,o),
(362,213,cs),
(456,348,o),
(505,375,o),
(575,413,c),
(537,401,l),
(506,347,o),
(495,287,o),
(495,217,cs),
(495,139,o),
(510,68,o),
(533,-7,c),
(608,10,l),
(584,83,o),
(573,137,o),
(573,201,cs),
(573,286,o),
(588,344,o),
(625,413,c),
(554,477,l),
(429,418,o),
(375,344,o),
(330,271,c),
(383,285,l),
(384,291,o),
(385,303,o),
(385,311,cs),
(385,423,o),
(319,500,o),
(202,500,cs),
(132,500,o),
(63,469,o),
(63,393,cs),
(63,374,o),
(67,348,o),
(80,320,c),
(152,337,l),
(146,351,o),
(142,365,o),
(142,381,cs),
(142,410,o),
(161,431,o),
(204,431,cs),
(278,431,o),
(318,371,o),
(318,310,cs),
(318,281,o),
(307,255,o),
(283,223,cs),
(250,179,o),
(230,167,o),
(208,167,cs),
(182,167,o),
(166,180,o),
(140,222,c),
(82,185,l),
(122,121,o),
(164,91,o),
(212,91,cs)
);
},
{
closed = 1;
nodes = (
(-10,622,l),
(-10,551,l),
(699,551,l),
(699,622,l)
);
},
{
closed = 1;
nodes = (
(227,468,l),
(221,525,o),
(191,559,o),
(116,589,c),
(70,601,l),
(46,556,l),
(109,542,o),
(141,508,o),
(148,465,c)
);
},
{
closed = 1;
nodes = (
(550,622,l),
(548,677,o),
(537,712,o),
(514,734,cs),
(486,762,o),
(447,771,o),
(376,771,cs),
(256,771,ls),
(190,771,o),
(159,781,o),
(140,802,cs),
(126,817,o),
(121,840,o),
(121,869,cs),
(121,879,o),
(122,891,o),
(125,907,c),
(51,912,l),
(48,893,o),
(46,876,o),
(46,859,cs),
(46,805,o),
(64,763,o),
(100,736,cs),
(133,711,o),
(174,699,o),
(262,699,cs),
(398,699,ls),
(454,699,o),
(476,677,o),
(478,622,c)
);
}
);
width = 689;
},
{
anchors = (
{
name = Anchor8;
pos = (333,622);
}
);
layerId = "46A56A9B-0135-45C3-BDA6-6C6C4BC92BD5";
shapes = (
{
closed = 1;
nodes = (
(241,123,o),
(276,145,o),
(321,214,cs),
(417,359,o),
(488,424,o),
(566,473,c),
(559,475,l),
(518,397,o),
(502,311,o),
(502,230,cs),
(502,145,o),
(518,76,o),
(541,-3,c),
(567,3,l),
(543,84,o),
(528,149,o),
(528,230,cs),
(528,304,o),
(544,389,o),
(584,473,c),
(557,495,l),
(467,442,o),
(382,355,o),
(345,282,c),
(351,285,l),
(356,303,o),
(358,325,o),
(358,341,cs),
(358,436,o),
(293,514,o),
(191,514,cs),
(122,514,o),
(68,475,o),
(68,411,cs),
(68,387,o),
(75,362,o),
(86,340,c),
(111,347,l),
(100,370,o),
(95,388,o),
(95,410,cs),
(95,465,o),
(137,488,o),
(191,488,cs),
(288,488,o),
(333,410,o),
(333,339,cs),
(333,287,o),
(323,260,o),
(293,217,cs),
(252,160,o),
(230,149,o),
(199,149,cs),
(173,149,o),
(143,164,o),
(113,221,c),
(90,208,l),
(126,143,o),
(161,123,o),
(200,123,cs)
);
},
{
closed = 1;
nodes = (
(-10,622,l),
(-10,596,l),
(655,596,l),
(655,622,l)
);
},
{
closed = 1;
nodes = (
(198,507,l),
(190,557,o),
(156,592,o),
(91,613,c),
(70,612,l),
(65,598,l),
(125,584,o),
(162,551,o),
(172,504,c)
);
},
{
closed = 1;
nodes = (
(518,622,l),
(515,679,o),
(499,713,o),
(467,733,cs),
(446,746,o),
(421,752,o),
(378,752,cs),
(246,752,ls),
(172,752,o),
(135,759,o),
(112,785,cs),
(97,802,o),
(89,828,o),
(89,863,cs),
(89,877,o),
(90,893,o),
(93,910,c),
(66,912,l),
(63,895,o),
(62,878,o),
(62,862,cs),
(62,825,o),
(71,795,o),
(87,774,cs),
(118,734,o),
(173,726,o),
(248,726,cs),
(379,726,ls),
(468,726,o),
(488,690,o),
(492,622,c)
);
}
);
width = 645;
},
{
anchors = (
{
name = Anchor8;
pos = (371,622);
}
);
layerId = "22409DE3-74E9-441F-9C04-63D5519B89AC";
shapes = (
{
closed = 1;
nodes = (
(328,48,o),
(383,82,o),
(438,171,cs),
(467,218,o),
(521,276,o),
(585,303,c),
(558,361,l),
(521,306,o),
(489,233,o),
(489,162,cs),
(489,109,o),
(500,37,o),
(520,-14,c),
(690,21,l),
(674,70,o),
(665,127,o),
(665,178,cs),
(665,236,o),
(672,297,o),
(698,349,c),
(573,457,l),
(496,420,o),
(406,344,o),
(345,260,c),
(442,257,l),
(443,270,o),
(444,288,o),
(444,305,c),
(416,408,o),
(343,463,o),
(218,463,cs),
(121,463,o),
(36,429,o),
(36,335,cs),
(36,308,o),
(43,276,o),
(54,254,c),
(208,278,l),
(205,286,o),
(204,292,o),
(204,302,cs),
(204,317,o),
(215,329,o),
(232,329,cs),
(264,329,o),
(280,296,o),
(280,262,cs),
(280,231,o),
(273,216,o),
(262,206,cs),
(249,194,o),
(239,190,o),
(227,190,cs),
(208,190,o),
(192,204,o),
(172,235,c),
(58,167,l),
(100,95,o),
(160,48,o),
(246,48,cs)
);
},
{
closed = 1;
nodes = (
(-10,622,l),
(-10,484,l),
(753,484,l),
(753,622,l)
);
},
{
closed = 1;
nodes = (
(285,403,l),
(277,460,o),
(249,497,o),
(175,528,c),
(127,536,l),
(29,492,l),
(92,477,o),
(128,444,o),
(133,400,c)
);
},
{
closed = 1;
nodes = (
(652,622,l),
(648,698,o),
(633,745,o),
(598,774,cs),
(562,803,o),
(522,812,o),
(441,812,cs),
(305,812,ls),
(257,812,o),
(238,815,o),
(224,826,cs),
(211,836,o),
(206,851,o),
(206,877,cs),
(206,883,o),
(207,893,o),
(209,905,c),
(44,915,l),
(40,891,o),
(38,872,o),
(38,853,cs),
(38,799,o),
(50,760,o),
(74,733,cs),
(113,689,o),
(175,675,o),
(290,675,cs),
(427,675,ls),
(471,675,o),
(482,659,o),
(485,622,c)
);
}
);
width = 743;
},
{
anchors = (
{
name = Anchor8;
pos = (258,622);
}
);
layerId = "F0143EB7-DEA3-4B38-8B70-DEA25CF19AA9";
shapes = (
{
closed = 1;
nodes = (
(206,92,o),
(234,124,o),
(278,212,cs),
(333,323,o),
(378,378,o),
(432,417,c),
(404,404,l),
(376,346,o),
(364,291,o),
(364,207,cs),
(364,143,o),
(374,71,o),
(395,-7,c),
(464,10,l),
(442,87,o),
(435,138,o),
(435,197,cs),
(435,285,o),
(448,348,o),
(477,419,c),
(410,480,l),
(335,430,o),
(280,344,o),
(247,270,c),
(286,267,l),
(289,280,o),
(290,298,o),
(290,311,cs),
(290,430,o),
(233,500,o),
(148,500,cs),
(96,500,o),
(43,470,o),
(43,393,cs),
(43,375,o),
(48,344,o),
(56,321,c),
(123,335,l),
(119,348,o),
(115,367,o),
(115,383,cs),
(115,413,o),
(129,432,o),
(155,432,cs),
(201,432,o),
(226,373,o),
(226,306,cs),
(226,282,o),
(226,254,o),
(208,221,cs),
(183,176,o),
(170,167,o),
(154,167,cs),
(137,167,o),
(127,176,o),
(111,220,c),
(53,198,l),
(80,123,o),
(109,92,o),
(158,92,cs)
);
},
{
closed = 1;
nodes = (
(-6,622,l),
(-6,554,l),
(523,554,l),
(523,622,l)
);
},
{
closed = 1;
nodes = (
(177,470,l),
(172,527,o),
(144,556,o),
(85,582,c),
(52,594,l),
(21,559,l),
(70,544,o),
(99,511,o),
(104,467,c)
);
},
{
closed = 1;
nodes = (
(425,622,l),
(423,681,o),
(415,716,o),
(389,741,cs),
(368,761,o),
(340,771,o),
(283,771,cs),
(212,771,ls),
(165,771,o),
(144,778,o),
(128,792,cs),
(109,808,o),
(103,834,o),
(103,866,cs),
(103,879,o),
(104,892,o),
(106,907,c),
(39,912,l),
(36,896,o),
(34,877,o),
(34,859,cs),
(34,808,o),
(47,766,o),
(78,739,cs),
(106,715,o),
(146,702,o),
(215,702,cs),
(284,702,ls),
(341,702,o),
(355,673,o),
(358,622,c)
);
}
);
width = 517;
}
);
unicode = 2440;
},
{
glyphname = ubeng;
lastChange = "2020-04-14 07:51:14 +0000";
layers = (
{
anchors = (
{
name = Anchor8;
pos = (370,622);
}
);
layerId = "8680C114-EF70-46E9-96FB-C90A78B2DAE0";
shapes = (
{
closed = 1;
nodes = (
(634,622,l),
(632,684,o),
(618,724,o),
(593,749,cs),
(561,780,o),
(520,790,o),
(441,790,cs),
(295,790,ls),
(244,790,o),
(226,797,o),
(212,810,cs),
(197,824,o),
(192,847,o),
(192,875,cs),
(192,883,o),
(193,892,o),
(194,904,c),
(69,912,l),
(65,888,o),
(64,874,o),
(64,854,cs),
(64,805,o),
(75,767,o),
(100,739,cs),
(136,699,o),
(197,680,o),
(298,680,cs),
(440,680,ls),
(490,680,o),
(507,663,o),
(509,622,c)
);
},
{
ref = ddabeng;
}
);
width = 741;
},
{
anchors = (
{
name = Anchor8;
pos = (356,622);
}
);
layerId = UUID0;
shapes = (
{
closed = 1;
nodes = (
(580,622,l),
(578,677,o),
(567,712,o),
(544,734,cs),
(515,762,o),
(478,771,o),
(407,771,cs),
(283,771,ls),
(216,771,o),
(186,781,o),
(167,802,cs),
(153,817,o),
(148,840,o),
(148,869,cs),
(148,879,o),
(149,891,o),
(152,907,c),
(78,912,l),
(75,893,o),
(73,876,o),
(73,859,cs),
(73,805,o),
(91,763,o),
(127,736,cs),
(160,711,o),
(201,699,o),
(288,699,cs),
(428,699,ls),
(484,699,o),
(506,677,o),
(508,622,c)
);
},
{
ref = ddabeng;
}
);
width = 712;
},
{
anchors = (
{
name = Anchor8;
pos = (348,622);
}
);
layerId = "46A56A9B-0135-45C3-BDA6-6C6C4BC92BD5";
shapes = (
{
closed = 1;
nodes = (
(548,622,l),
(545,679,o),
(529,713,o),
(497,733,cs),
(476,746,o),
(451,752,o),
(408,752,cs),
(261,752,ls),
(187,752,o),
(150,759,o),
(127,785,cs),
(112,802,o),
(104,828,o),
(104,863,cs),
(104,877,o),
(105,893,o),
(108,910,c),
(81,912,l),
(78,895,o),
(77,878,o),
(77,862,cs),
(77,825,o),
(86,795,o),
(102,774,cs),
(133,734,o),
(188,726,o),
(263,726,cs),
(409,726,ls),
(498,726,o),
(518,690,o),
(522,622,c)
);
},
{
ref = ddabeng;
}
);
width = 679;
},
{
anchors = (
{
name = Anchor8;
pos = (391,622);
}
);
layerId = "22409DE3-74E9-441F-9C04-63D5519B89AC";
shapes = (
{
closed = 1;
nodes = (
(675,622,l),
(671,698,o),
(656,745,o),
(621,774,cs),
(585,803,o),
(545,812,o),
(464,812,cs),
(335,812,ls),
(287,812,o),
(268,815,o),
(254,826,cs),
(241,836,o),
(236,851,o),
(236,877,cs),
(236,883,o),
(237,893,o),
(239,905,c),
(74,915,l),
(70,891,o),
(68,872,o),
(68,853,cs),
(68,799,o),
(80,760,o),
(104,733,cs),
(143,689,o),
(205,675,o),
(320,675,cs),
(450,675,ls),
(494,675,o),
(505,659,o),
(508,622,c)
);
},
{
ref = ddabeng;
}
);
width = 782;
},
{
anchors = (
{
name = Anchor8;
pos = (262,622);
}
);
layerId = "F0143EB7-DEA3-4B38-8B70-DEA25CF19AA9";
shapes = (
{
closed = 1;
nodes = (
(432,622,l),
(430,681,o),
(422,716,o),
(396,741,cs),
(375,761,o),
(347,771,o),
(290,771,cs),
(237,771,ls),
(190,771,o),
(169,778,o),
(153,792,cs),
(134,808,o),
(128,834,o),
(128,866,cs),
(128,879,o),
(129,892,o),
(131,907,c),
(64,912,l),
(61,896,o),
(59,877,o),
(59,859,cs),
(59,808,o),
(72,766,o),
(103,739,cs),
(131,715,o),
(171,702,o),
(240,702,cs),
(291,702,ls),
(348,702,o),
(362,673,o),
(365,622,c)
);
},
{
ref = ddabeng;
}
);
width = 525;
}
);
unicode = 2441;
},
{
glyphname = uubeng;
lastChange = "2020-04-14 07:51:14 +0000";
layers = (
{
anchors = (
{
name = Anchor8;
pos = (439,622);
}
);
layerId = "8680C114-EF70-46E9-96FB-C90A78B2DAE0";
shapes = (
{
closed = 1;
nodes = (
(-10,622,l),
(-10,512,l),
(416,512,l),
(416,400,ls),
(416,337,o),
(427,299,o),
(450,274,cs),
(472,249,o),
(506,236,o),
(549,236,cs),
(604,236,o),
(668,260,o),
(719,316,c),
(700,317,l),
(707,302,o),
(712,283,o),
(712,260,cs),
(712,183,o),
(662,134,o),
(572,134,cs),
(452,134,o),
(367,193,o),
(304,438,c),
(190,403,l),
(225,290,o),
(281,200,o),
(337,139,c),
(334,136,l),
(259,188,o),
(184,273,o),
(128,433,c),
(16,395,l),
(126,114,o),
(299,20,o),
(550,20,cs),
(762,20,o),
(843,118,o),
(843,240,cs),
(843,318,o),
(820,379,o),
(775,445,c),
(664,423,l),
(632,378,o),
(600,347,o),
(574,347,cs),
(553,347,o),
(548,363,o),
(548,383,cs),
(548,512,l),
(889,512,l),
(889,622,l)
);
},
{
closed = 1;
nodes = (
(772,622,l),
(770,684,o),
(756,724,o),
(731,749,cs),
(699,780,o),
(658,790,o),
(579,790,cs),
(404,790,ls),
(353,790,o),
(335,797,o),
(321,810,cs),
(306,824,o),
(301,847,o),
(301,875,cs),
(301,883,o),
(302,892,o),
(303,904,c),
(178,912,l),
(174,888,o),
(173,874,o),
(173,854,cs),
(173,805,o),
(184,767,o),
(209,739,cs),
(245,699,o),
(306,680,o),
(407,680,cs),
(578,680,ls),
(628,680,o),
(645,663,o),
(647,622,c)
);
}
);
width = 879;
},
{
anchors = (
{
name = Anchor8;
pos = (426,622);
}
);
layerId = UUID0;
shapes = (
{
closed = 1;
nodes = (
(-10,622,l),
(-10,551,l),
(419,551,l),
(419,393,ls),
(419,313,o),
(436,287,o),
(457,268,cs),
(476,251,o),
(503,242,o),
(534,242,cs),
(601,242,o),
(663,301,o),
(707,370,c),
(680,368,l),
(699,345,o),
(720,305,o),
(720,244,cs),
(720,166,o),
(668,100,o),
(555,100,cs),
(411,100,o),
(341,209,o),
(274,461,c),
(199,440,l),
(232,317,o),
(289,184,o),
(372,109,c),
(369,106,l),
(223,192,o),
(156,312,o),
(104,458,c),
(29,435,l),
(150,120,o),
(329,24,o),
(548,24,cs),
(720,24,o),
(796,123,o),
(796,245,cs),
(796,312,o),
(772,379,o),
(729,442,c),
(669,433,l),
(612,350,o),
(571,316,o),
(533,316,cs),
(507,316,o),
(496,333,o),
(496,372,cs),
(496,551,l),
(863,551,l),
(863,622,l)
);
},
{
closed = 1;
nodes = (
(721,622,l),
(719,677,o),
(708,712,o),
(685,734,cs),
(656,762,o),
(619,771,o),
(548,771,cs),
(378,771,ls),
(312,771,o),
(281,781,o),
(262,802,cs),
(248,817,o),
(243,840,o),
(243,869,cs),
(243,880,o),
(244,892,o),
(247,907,c),
(173,912,l),
(170,893,o),
(168,876,o),
(168,859,cs),
(168,805,o),
(186,763,o),
(222,736,cs),
(255,711,o),
(296,699,o),
(384,699,cs),
(569,699,ls),
(625,699,o),
(647,677,o),
(649,622,c)
);
}
);
width = 853;
},
{
anchors = (
{
name = Anchor8;
pos = (402,622);
}
);
layerId = "46A56A9B-0135-45C3-BDA6-6C6C4BC92BD5";
shapes = (
{
closed = 1;
nodes = (
(-10,622,l),
(-10,596,l),
(363,596,l),
(363,390,ls),
(363,343,o),
(370,315,o),
(388,298,cs),
(401,285,o),
(421,279,o),
(443,279,cs),
(495,279,o),
(558,311,o),
(619,429,c),
(605,433,l),
(641,381,o),
(657,319,o),
(657,260,cs),
(657,152,o),
(595,79,o),
(479,79,cs),
(322,79,o),
(241,235,o),
(175,475,c),
(149,468,l),
(208,253,o),
(271,140,o),
(370,86,c),
(369,84,l),
(230,138,o),
(126,257,o),
(58,470,c),
(32,463,l),
(112,211,o),
(256,53,o),
(473,53,cs),
(611,53,o),
(684,140,o),
(684,262,cs),
(684,332,o),
(663,395,o),
(625,449,c),
(599,445,l),
(540,333,o),
(489,305,o),
(443,305,cs),
(400,305,o),
(389,329,o),
(389,391,cs),
(389,596,l),
(764,596,l),
(764,622,l)
);
},
{
closed = 1;
nodes = (
(623,622,l),
(620,679,o),
(604,713,o),
(572,733,cs),
(551,746,o),
(526,752,o),
(483,752,cs),
(316,752,ls),
(242,752,o),
(205,759,o),
(182,785,cs),
(167,802,o),
(159,828,o),
(159,863,cs),
(159,877,o),
(160,893,o),
(163,910,c),
(136,912,l),
(133,895,o),
(132,878,o),
(132,862,cs),
(132,825,o),
(141,795,o),
(157,774,cs),
(188,734,o),
(243,726,o),
(318,726,cs),
(484,726,ls),
(573,726,o),
(593,690,o),
(597,622,c)
);
}
);
width = 754;
},
{
anchors = (
{
name = Anchor8;
pos = (456,622);
}
);
layerId = "22409DE3-74E9-441F-9C04-63D5519B89AC";
shapes = (
{
closed = 1;
nodes = (
(-10,622,l),
(-10,484,l),
(411,484,l),
(411,397,ls),
(411,338,o),
(425,299,o),
(450,271,cs),
(478,240,o),
(523,227,o),
(578,227,cs),
(633,227,o),
(683,242,o),
(732,277,c),
(711,280,l),
(713,272,o),
(714,264,o),
(714,255,cs),
(714,187,o),
(656,158,o),
(587,158,cs),
(503,158,o),
(407,192,o),
(340,423,c),
(198,380,l),
(236,277,o),
(292,203,o),
(339,154,c),
(336,150,l),
(254,215,o),
(194,303,o),
(149,414,c),
(13,364,l),
(116,128,o),
(283,17,o),
(579,17,cs),
(799,17,o),
(885,110,o),
(885,238,cs),
(885,319,o),
(859,372,o),
(808,443,c),
(683,421,l),
(662,383,o),
(637,362,o),
(612,362,cs),
(593,362,o),
(586,373,o),
(586,396,cs),
(586,484,l),
(923,484,l),
(923,622,l)
);
},
{
closed = 1;
nodes = (
(806,622,l),
(802,698,o),
(787,745,o),
(752,774,cs),
(716,803,o),
(676,812,o),
(595,812,cs),
(445,812,ls),
(397,812,o),
(378,815,o),
(364,826,cs),
(351,836,o),
(346,851,o),
(346,877,cs),
(346,883,o),
(347,893,o),
(349,905,c),
(184,915,l),
(180,891,o),
(178,872,o),
(178,853,cs),
(178,799,o),
(190,760,o),
(214,733,cs),
(253,689,o),
(315,675,o),
(430,675,cs),
(581,675,ls),
(625,675,o),
(636,659,o),
(639,622,c)
);
}
);
width = 913;
},
{
anchors = (
{
name = Anchor8;
pos = (318,622);
}
);
layerId = "F0143EB7-DEA3-4B38-8B70-DEA25CF19AA9";
shapes = (
{
closed = 1;
nodes = (
(-6,622,l),
(-6,554,l),
(310,554,l),
(310,369,ls),
(310,315,o),
(318,290,o),
(336,270,cs),
(351,254,o),
(374,245,o),
(399,245,cs),
(451,245,o),
(495,285,o),
(531,372,c),
(506,363,l),
(516,341,o),
(526,299,o),
(526,243,cs),
(526,145,o),
(485,95,o),
(415,95,cs),
(304,95,o),
(258,228,o),
(221,462,c),
(152,449,l),
(182,268,o),
(225,163,o),
(293,97,c),
(291,94,l),
(187,161,o),
(131,280,o),
(86,456,c),
(18,439,l),
(106,123,o),
(242,24,o),
(403,24,cs),
(532,24,o),
(597,108,o),
(597,245,cs),
(597,313,o),
(579,376,o),
(552,438,c),
(490,429,l),
(464,353,o),
(428,315,o),
(404,315,cs),
(388,315,o),
(381,327,o),
(381,350,cs),
(381,554,l),
(643,554,l),
(643,622,l)
);
},
{
closed = 1;
nodes = (
(544,622,l),
(542,681,o),
(534,716,o),
(508,741,cs),
(487,761,o),
(459,771,o),
(402,771,cs),
(293,771,ls),
(246,771,o),
(225,778,o),
(209,792,cs),
(190,808,o),
(184,834,o),
(184,866,cs),
(184,879,o),
(185,892,o),
(187,907,c),
(120,912,l),
(117,896,o),
(115,877,o),
(115,859,cs),
(115,808,o),
(128,766,o),
(159,739,cs),
(187,715,o),
(227,702,o),
(296,702,cs),
(403,702,ls),
(460,702,o),
(474,673,o),
(477,622,c)
);
}
);
width = 637;
}
);
unicode = 2442;
},
{
glyphname = rvocalicbeng;
lastChange = "2020-04-14 07:51:14 +0000";
layers = (
{
anchors = (
{
name = Anchor8;
pos = (466,622);
}
);
layerId = "8680C114-EF70-46E9-96FB-C90A78B2DAE0";
shapes = (
{
closed = 1;
nodes = (
(492,688,l),
(492,472,l),
(365,428,o),
(231,372,o),
(124,312,c),
(174,194,l),
(323,166,o),
(436,81,o),
(492,0,c),
(624,0,l),
(624,622,l),
(600,688,l)
);
},
{
closed = 1;
nodes = (
(492,224,l),
(492,191,o),
(494,166,o),
(496,145,c),
(441,203,o),
(356,252,o),
(283,268,c),
(357,307,o),
(414,331,o),
(492,356,c)
);
},
{
closed = 1;
nodes = (
(495,471,l),
(475,527,o),
(434,589,o),
(408,625,c),
(302,548,l),
(342,521,o),
(379,472,o),
(399,430,c)
);
},
{
closed = 1;
nodes = (
(291,421,o),
(352,469,o),
(426,569,c),
(408,625,l),
(309,603,l),
(276,547,o),
(242,532,o),
(213,532,cs),
(190,532,o),
(174,542,o),
(174,566,cs),
(174,578,o),
(177,588,o),
(183,600,c),
(65,628,l),
(53,604,o),
(44,575,o),
(44,543,cs),
(44,467,o),
(101,421,o),
(191,421,cs)
);
},
{
closed = 1;
nodes = (
(717,688,l),
(717,273,ls),
(717,240,o),
(718,209,o),
(720,186,c),
(738,197,l),
(680,266,o),
(602,313,o),
(529,336,c),
(521,232,l),
(603,196,o),
(669,143,o),
(717,74,c),
(849,74,l),
(849,622,l),
(825,688,l)
);
}
);
width = 932;
},
{
anchors = (
{
name = Anchor8;
pos = (426,622);
}
);
layerId = UUID0;
shapes = (
{
closed = 1;
nodes = (
(477,688,l),
(477,477,l),
(353,439,o),
(230,381,o),
(116,316,c),
(155,224,l),
(298,202,o),
(421,106,o),
(477,0,c),
(554,0,l),
(554,622,l),
(530,688,l)
);
},
{
closed = 1;
nodes = (
(477,187,l),
(477,154,o),
(479,131,o),
(480,108,c),
(425,197,o),
(301,263,o),
(209,284,c),
(292,331,o),
(391,374,o),
(477,402,c)
);
},
{
closed = 1;
nodes = (
(479,474,l),
(454,530,o),
(411,589,o),
(374,625,c),
(320,573,l),
(360,545,o),
(396,496,o),
(417,455,c)
);
},
{
closed = 1;
nodes = (
(271,430,o),
(335,493,o),
(378,574,c),
(374,625,l),
(316,612,l),
(269,518,o),
(221,501,o),
(182,501,cs),
(151,501,o),
(130,517,o),
(130,552,cs),
(130,573,o),
(138,593,o),
(147,607,c),
(71,628,l),
(59,608,o),
(49,579,o),
(49,548,cs),
(49,474,o),
(102,430,o),
(183,430,cs)
);
},
{
closed = 1;
nodes = (
(685,688,l),
(685,257,ls),
(685,214,o),
(687,188,o),
(690,157,c),
(697,160,l),
(673,215,o),
(603,286,o),
(546,318,c),
(521,255,l),
(585,212,o),
(646,152,o),
(685,73,c),
(762,73,l),
(762,622,l),
(738,688,l)
);
}
);
width = 853;
},
{
anchors = (
{
name = Anchor8;
pos = (408,622);
}
);
layerId = "46A56A9B-0135-45C3-BDA6-6C6C4BC92BD5";
shapes = (
{
closed = 1;
nodes = (
(463,676,l),
(463,494,l),
(344,451,o),
(225,390,o),
(105,316,c),
(119,282,l),
(279,244,o),
(404,136,o),
(463,0,c),
(489,0,l),
(489,622,l),
(484,676,l)
);
},
{
closed = 1;
nodes = (
(463,168,l),
(463,108,o),
(465,74,o),
(467,42,c),
(414,171,o),
(274,268,o),
(134,305,c),
(227,362,o),
(368,433,o),
(463,468,c)
);
},
{
closed = 1;
nodes = (
(468,475,l),
(439,531,o),
(384,589,o),
(341,625,c),
(325,604,l),
(363,575,o),
(415,517,o),
(438,477,c)
);
},
{
closed = 1;
nodes = (
(241,446,o),
(301,506,o),
(339,601,c),
(341,625,l),
(319,620,l),
(273,502,o),
(213,472,o),
(157,472,cs),
(117,472,o),
(82,495,o),
(82,549,cs),
(82,573,o),
(89,599,o),
(100,620,c),
(75,628,l),
(64,607,o),
(55,580,o),
(55,549,cs),
(55,485,o),
(98,446,o),
(157,446,cs)
);
},
{
closed = 1;
nodes = (
(656,676,l),
(656,240,ls),
(656,180,o),
(658,133,o),
(662,95,c),
(668,95,l),
(621,215,o),
(537,287,o),
(483,322,c),
(481,293,l),
(553,241,o),
(614,167,o),
(656,72,c),
(682,72,l),
(682,622,l),
(677,676,l)
);
}
);
width = 781;
},
{
anchors = (
{
name = Anchor8;
pos = (501,622);
}
);
layerId = "22409DE3-74E9-441F-9C04-63D5519B89AC";
shapes = (
{
closed = 1;
nodes = (
(506,692,l),
(506,447,l),
(395,419,o),
(272,379,o),
(151,319,c),
(213,164,l),
(370,133,o),
(448,62,o),
(504,0,c),
(679,0,l),
(679,622,l),
(654,692,l)
);
},
{
closed = 1;
nodes = (
(504,252,l),
(504,219,o),
(505,193,o),
(507,171,c),
(451,216,o),
(411,235,o),
(346,255,c),
(410,284,o),
(449,300,o),
(504,314,c)
);
},
{
closed = 1;
nodes = (
(517,446,l),
(493,513,o),
(464,575,o),
(431,625,c),
(296,532,l),
(336,499,o),
(368,455,o),
(387,412,c)
);
},
{
closed = 1;
nodes = (
(305,410,o),
(360,448,o),
(458,565,c),
(431,625,l),
(310,598,l),
(287,560,o),
(263,545,o),
(239,545,cs),
(218,545,o),
(212,556,o),
(212,572,cs),
(212,581,o),
(214,589,o),
(219,600,c),
(64,628,l),
(52,601,o),
(44,572,o),
(44,544,cs),
(44,462,o),
(102,410,o),
(206,410,cs)
);
},
{
closed = 1;
nodes = (
(756,692,l),
(756,308,ls),
(756,280,o),
(759,242,o),
(762,216,c),
(789,214,l),
(748,264,o),
(682,308,o),
(600,331,c),
(570,214,l),
(661,172,o),
(707,134,o),
(756,75,c),
(931,75,l),
(931,622,l),
(906,692,l)
);
}
);
width = 1003;
},
{
anchors = (
{
name = Anchor8;
pos = (322,622);
}
);
layerId = "F0143EB7-DEA3-4B38-8B70-DEA25CF19AA9";
shapes = (
{
closed = 1;
nodes = (
(350,688,l),
(350,479,l),
(261,440,o),
(164,379,o),
(85,316,c),
(116,231,l),
(220,202,o),
(309,108,o),
(349,0,c),
(421,0,l),
(421,622,l),
(403,688,l)
);
},
{
closed = 1;
nodes = (
(350,191,l),
(350,158,o),
(350,135,o),
(352,112,c),
(309,207,o),
(244,257,o),
(164,288,c),
(224,334,o),
(291,376,o),
(350,404,c)
);
},
{
closed = 1;
nodes = (
(352,472,l),
(329,534,o),
(301,589,o),
(280,625,c),
(224,573,l),
(256,544,o),
(283,485,o),
(302,440,c)
);
},
{
closed = 1;
nodes = (
(211,430,o),
(249,488,o),
(280,574,c),
(280,625,l),
(227,612,l),
(198,511,o),
(168,498,o),
(143,498,cs),
(123,498,o),
(110,514,o),
(110,541,cs),
(110,566,o),
(118,592,o),
(125,607,c),
(58,628,l),
(48,604,o),
(38,574,o),
(38,539,cs),
(38,474,o),
(78,430,o),
(140,430,cs)
);
},
{
closed = 1;
nodes = (
(511,688,l),
(511,259,ls),
(511,227,o),
(513,182,o),
(516,152,c),
(521,165,l),
(499,226,o),
(460,283,o),
(408,326,c),
(387,263,l),
(437,221,o),
(481,149,o),
(511,73,c),
(582,73,l),
(582,622,l),
(565,688,l)
);
}
);
width = 645;
}
);
unicode = 2443;
},
{
glyphname = lvocalicbeng;
lastChange = "2020-04-14 07:51:14 +0000";
layers = (
{
anchors = (
{
name = Anchor4;
pos = (290,622);
},
{
name = Anchor8;
pos = (326,622);
}
);
layerId = "8680C114-EF70-46E9-96FB-C90A78B2DAE0";
shapes = (
{
closed = 1;
nodes = (
(97,330,o),
(33,285,o),
(33,205,cs),
(33,180,o),
(39,157,o),
(48,132,c),
(170,158,l),
(166,167,o),
(164,175,o),
(164,186,cs),
(164,207,o),
(177,223,o),
(208,223,cs),
(244,223,o),
(263,203,o),
(263,173,cs),
(263,141,o),
(235,118,o),
(167,107,c),
(189,0,l),
(210,0,ls),
(430,0,o),
(618,58,o),
(618,237,cs),
(618,327,o),
(588,431,o),
(355,499,cs),
(198,544,o),
(179,562,o),
(179,592,cs),
(179,611,o),
(187,622,o),
(211,650,c),
(121,715,l),
(72,672,o),
(44,622,o),
(44,581,cs),
(44,500,o),
(86,448,o),
(250,400,cs),
(440,344,o),
(481,306,o),
(481,232,cs),
(481,171,o),
(434,125,o),
(332,111,c),
(330,62,l),
(366,93,o),
(389,136,o),
(389,192,cs),
(389,271,o),
(317,330,o),
(208,330,cs)
);
}
);
width = 652;
},
{
anchors = (
{
name = Anchor4;
pos = (329,622);
},
{
name = Anchor8;
pos = (319,622);
}
);
layerId = UUID0;
shapes = (
{
closed = 1;
nodes = (
(107,315,o),
(56,271,o),
(56,207,cs),
(56,182,o),
(62,159,o),
(73,135,c),
(148,152,l),
(141,165,o),
(137,183,o),
(137,196,cs),
(137,224,o),
(157,245,o),
(207,245,cs),
(264,245,o),
(292,214,o),
(292,169,cs),
(292,120,o),
(257,89,o),
(196,68,c),
(219,0,l),
(238,0,ls),
(426,0,o),
(594,58,o),
(594,222,cs),
(594,323,o),
(551,395,o),
(341,464,cs),
(163,522,o),
(144,549,o),
(144,588,cs),
(144,609,o),
(159,631,o),
(195,665,c),
(141,706,l),
(93,663,o),
(63,622,o),
(63,576,cs),
(63,496,o),
(114,458,o),
(298,394,cs),
(472,333,o),
(512,293,o),
(512,221,cs),
(512,135,o),
(437,85,o),
(312,72,c),
(314,62,l),
(352,95,o),
(369,129,o),
(369,181,cs),
(369,259,o),
(299,315,o),
(204,315,cs)
);
}
);
width = 639;
},
{
anchors = (
{
name = Anchor4;
pos = (331,622);
},
{
name = Anchor8;
pos = (309,622);
}
);
layerId = "46A56A9B-0135-45C3-BDA6-6C6C4BC92BD5";
shapes = (
{
closed = 1;
nodes = (
(106,301,o),
(66,253,o),
(66,195,cs),
(66,178,o),
(70,151,o),
(79,131,c),
(105,137,l),
(97,154,o),
(93,178,o),
(93,196,cs),
(93,238,o),
(117,275,o),
(189,275,cs),
(266,275,o),
(301,227,o),
(301,167,cs),
(301,101,o),
(253,55,o),
(185,20,c),
(192,0,l),
(201,0,ls),
(387,0,o),
(547,63,o),
(547,223,cs),
(547,325,o),
(494,378,o),
(316,439,cs),
(112,509,o),
(101,534,o),
(101,580,cs),
(101,614,o),
(120,645,o),
(165,683,c),
(146,701,l),
(96,656,o),
(74,621,o),
(74,582,cs),
(74,509,o),
(120,477,o),
(298,418,cs),
(484,356,o),
(520,308,o),
(520,220,cs),
(520,102,o),
(412,28,o),
(209,25,c),
(213,11,l),
(277,44,o),
(328,89,o),
(328,168,cs),
(328,247,o),
(274,301,o),
(188,301,cs)
);
}
);
width = 596;
},
{
anchors = (
{
name = Anchor4;
pos = (288,622);
},
{
name = Anchor8;
pos = (343,622);
}
);
layerId = "22409DE3-74E9-441F-9C04-63D5519B89AC";
shapes = (
{
closed = 1;
nodes = (
(111,342,o),
(29,296,o),
(29,203,cs),
(29,178,o),
(34,156,o),
(42,131,c),
(202,161,l),
(200,167,o),
(199,173,o),
(199,182,cs),
(199,196,o),
(209,209,o),
(231,209,cs),
(253,209,o),
(265,199,o),
(265,182,cs),
(265,157,o),
(242,139,o),
(169,136,c),
(190,0,l),
(213,0,ls),
(457,0,o),
(660,58,o),
(660,254,cs),
(660,341,o),
(638,446,o),
(393,520,cs),
(247,564,o),
(230,572,o),
(230,595,cs),
(230,608,o),
(236,620,o),
(255,641,c),
(130,722,l),
(78,674,o),
(51,633,o),
(51,579,cs),
(51,503,o),
(90,441,o),
(261,393,cs),
(439,343,o),
(480,308,o),
(480,241,cs),
(480,199,o),
(453,155,o),
(371,141,c),
(366,62,l),
(400,94,o),
(428,141,o),
(428,200,cs),
(428,280,o),
(350,342,o),
(228,342,cs)
);
}
);
width = 686;
},
{
anchors = (
{
name = Anchor4;
pos = (240,622);
},
{
name = Anchor8;
pos = (235,622);
}
);
layerId = "F0143EB7-DEA3-4B38-8B70-DEA25CF19AA9";
shapes = (
{
closed = 1;
nodes = (
(82,314,o),
(40,270,o),
(40,210,cs),
(40,184,o),
(45,158,o),
(53,136,c),
(121,149,l),
(116,162,o),
(112,183,o),
(112,199,cs),
(112,227,o),
(127,246,o),
(154,246,cs),
(191,246,o),
(205,215,o),
(205,178,cs),
(205,122,o),
(175,84,o),
(129,66,c),
(146,0,l),
(171,0,ls),
(313,0,o),
(438,54,o),
(438,223,cs),
(438,323,o),
(401,386,o),
(258,456,cs),
(125,520,o),
(119,548,o),
(119,582,cs),
(119,609,o),
(136,635,o),
(160,663,c),
(106,702,l),
(69,659,o),
(44,620,o),
(44,572,cs),
(44,496,o),
(83,458,o),
(210,394,cs),
(331,333,o),
(364,290,o),
(364,216,cs),
(364,134,o),
(313,84,o),
(226,70,c),
(224,61,l),
(256,93,o),
(275,129,o),
(275,186,cs),
(275,260,o),
(226,314,o),
(153,314,cs)
);
}
);
width = 470;
}
);
unicode = 2444;
},
{
glyphname = ebeng;
lastChange = "2020-04-14 07:51:14 +0000";
layers = (
{
anchors = (
{
name = Anchor4;
pos = (463,622);
},
{
name = Anchor8;
pos = (398,622);
}
);
layerId = "8680C114-EF70-46E9-96FB-C90A78B2DAE0";
shapes = (
{
closed = 1;
nodes = (
(381,628,o),
(259,495,o),
(259,386,cs),
(259,298,o),
(321,258,o),
(403,258,cs),
(440,258,o),
(465,262,o),
(482,268,c),
(476,375,l),
(463,373,o),
(453,372,o),
(439,372,cs),
(396,372,o),
(389,386,o),
(389,404,cs),
(389,438,o),
(449,518,o),
(520,518,cs),
(540,518,o),
(553,514,o),
(563,504,cs),
(575,492,o),
(580,477,o),
(580,435,cs),
(580,130,l),
(540,170,o),
(507,180,o),
(454,180,cs),
(403,180,o),
(353,166,o),
(291,166,cs),
(226,166,o),
(162,178,o),
(162,277,cs),
(162,315,o),
(167,341,o),
(172,360,c),
(43,377,l),
(37,347,o),
(31,305,o),
(31,271,cs),
(31,79,o),
(158,52,o),
(272,52,cs),
(348,52,o),
(397,67,o),
(471,67,cs),
(534,67,o),
(560,48,o),
(582,0,c),
(712,0,l),
(712,462,ls),
(712,536,o),
(692,569,o),
(665,591,cs),
(634,615,o),
(597,628,o),
(533,628,cs)
);
}
);
width = 797;
},
{
anchors = (
{
name = Anchor4;
pos = (475,622);
},
{
name = Anchor8;
pos = (379,622);
}
);
layerId = UUID0;
shapes = (
{
closed = 1;
nodes = (
(374,628,o),
(254,499,o),
(254,392,cs),
(254,309,o),
(311,270,o),
(376,270,cs),
(405,270,o),
(427,273,o),
(441,278,c),
(434,348,l),
(419,346,o),
(407,345,o),
(392,345,cs),
(341,345,o),
(333,373,o),
(333,393,cs),
(333,459,o),
(418,557,o),
(514,557,cs),
(540,557,o),
(557,552,o),
(569,542,cs),
(583,529,o),
(590,512,o),
(590,463,cs),
(590,106,l),
(561,146,o),
(518,161,o),
(461,161,cs),
(391,161,o),
(343,144,o),
(276,144,cs),
(202,144,o),
(124,162,o),
(124,280,cs),
(124,319,o),
(130,346,o),
(135,366,c),
(58,377,l),
(52,348,o),
(46,310,o),
(46,278,cs),
(46,97,o),
(182,70,o),
(272,70,cs),
(359,70,o),
(409,87,o),
(481,87,cs),
(541,87,o),
(575,60,o),
(592,0,c),
(667,0,l),
(667,490,ls),
(667,545,o),
(651,573,o),
(626,594,cs),
(600,616,o),
(565,628,o),
(511,628,cs)
);
}
);
width = 758;
},
{
anchors = (
{
name = Anchor4;
pos = (477,622);
},
{
name = Anchor8;
pos = (370,622);
}
);
layerId = "46A56A9B-0135-45C3-BDA6-6C6C4BC92BD5";
shapes = (
{
closed = 1;
nodes = (
(376,628,o),
(253,504,o),
(253,398,cs),
(253,319,o),
(299,285,o),
(364,285,cs),
(386,285,o),
(401,287,o),
(415,291,c),
(411,316,l),
(396,312,o),
(380,311,o),
(365,311,cs),
(292,311,o),
(280,353,o),
(280,398,cs),
(280,484,o),
(383,602,o),
(498,602,cs),
(527,602,o),
(550,595,o),
(566,582,cs),
(587,564,o),
(595,534,o),
(595,484,cs),
(595,55,l),
(574,108,o),
(536,139,o),
(470,139,cs),
(402,139,o),
(334,118,o),
(254,118,cs),
(169,118,o),
(79,141,o),
(79,281,cs),
(79,314,o),
(85,345,o),
(91,371,c),
(65,375,l),
(58,348,o),
(52,314,o),
(52,281,cs),
(52,124,o),
(159,92,o),
(255,92,cs),
(352,92,o),
(396,113,o),
(471,113,cs),
(550,113,o),
(573,66,o),
(595,0,c),
(621,0,l),
(621,494,ls),
(621,553,o),
(607,582,o),
(581,603,cs),
(558,622,o),
(526,628,o),
(498,628,cs)
);
}
);
width = 720;
},
{
anchors = (
{
name = Anchor4;
pos = (467,622);
},
{
name = Anchor8;
pos = (413,622);
}
);
layerId = "22409DE3-74E9-441F-9C04-63D5519B89AC";
shapes = (
{
closed = 1;
nodes = (
(399,628,o),
(268,492,o),
(268,382,cs),
(268,290,o),
(334,246,o),
(423,246,cs),
(466,246,o),
(494,250,o),
(519,256,c),
(511,389,l),
(500,387,o),
(487,386,o),
(476,386,cs),
(448,386,o),
(440,396,o),
(440,412,cs),
(440,443,o),
(491,490,o),
(534,490,cs),
(548,490,o),
(560,486,o),
(567,477,cs),
(576,466,o),
(579,450,o),
(579,425,cs),
(579,150,l),
(536,188,o),
(507,195,o),
(461,195,cs),
(415,195,o),
(365,183,o),
(305,183,cs),
(239,183,o),
(201,202,o),
(201,275,cs),
(201,304,o),
(204,330,o),
(210,355,c),
(42,379,l),
(33,346,o),
(28,301,o),
(28,265,cs),
(28,81,o),
(152,41,o),
(279,41,cs),
(359,41,o),
(418,54,o),
(484,54,cs),
(540,54,o),
(559,37,o),
(582,0,c),
(754,0,l),
(754,443,ls),
(754,533,o),
(727,568,o),
(698,590,cs),
(664,616,o),
(630,628,o),
(558,628,cs)
);
}
);
width = 827;
},
{
anchors = (
{
name = Anchor4;
pos = (354,622);
},
{
name = Anchor8;
pos = (280,622);
}
);
layerId = "F0143EB7-DEA3-4B38-8B70-DEA25CF19AA9";
shapes = (
{
closed = 1;
nodes = (
(273,628,o),
(190,499,o),
(190,389,cs),
(190,310,o),
(232,271,o),
(287,271,cs),
(309,271,o),
(323,272,o),
(336,277,c),
(329,345,l),
(319,344,o),
(311,343,o),
(303,343,cs),
(267,343,o),
(261,369,o),
(261,393,cs),
(261,461,o),
(318,560,o),
(378,560,cs),
(394,560,o),
(407,554,o),
(414,544,cs),
(423,531,o),
(425,512,o),
(425,473,cs),
(425,108,l),
(394,148,o),
(368,157,o),
(334,157,cs),
(293,157,o),
(254,142,o),
(206,142,cs),
(148,142,o),
(108,167,o),
(108,260,cs),
(108,284,o),
(111,319,o),
(117,345,c),
(48,355,l),
(40,320,o),
(37,288,o),
(37,260,cs),
(37,108,o),
(130,71,o),
(197,71,cs),
(260,71,o),
(295,86,o),
(343,86,cs),
(391,86,o),
(412,55,o),
(427,0,c),
(496,0,l),
(496,479,ls),
(496,547,o),
(486,577,o),
(464,599,cs),
(445,618,o),
(420,628,o),
(382,628,cs)
);
}
);
width = 560;
}
);
unicode = 2447;
},
{
glyphname = aibeng;
lastChange = "2020-04-14 07:51:14 +0000";
layers = (
{
anchors = (
{
name = Anchor8;
pos = (459,622);
}
);
layerId = "8680C114-EF70-46E9-96FB-C90A78B2DAE0";
shapes = (
{
closed = 1;
nodes = (
(381,628,o),
(259,495,o),
(259,386,cs),
(259,298,o),
(321,258,o),
(403,258,cs),
(440,258,o),
(465,262,o),
(482,268,c),
(476,375,l),
(463,373,o),
(453,372,o),
(439,372,cs),
(396,372,o),
(389,386,o),
(389,404,cs),
(389,438,o),
(449,518,o),
(520,518,cs),
(540,518,o),
(554,514,o),
(563,504,cs),
(575,493,o),
(580,477,o),
(580,435,cs),
(580,130,l),
(540,170,o),
(507,180,o),
(454,180,cs),
(403,180,o),
(353,166,o),
(291,166,cs),
(226,166,o),
(162,178,o),
(162,277,cs),
(162,315,o),
(167,341,o),
(172,360,c),
(43,377,l),
(37,347,o),
(31,305,o),
(31,271,cs),
(31,79,o),
(158,52,o),
(272,52,cs),
(348,52,o),
(397,67,o),
(471,67,cs),
(534,67,o),
(560,48,o),
(582,0,c),
(712,0,l),
(712,462,ls),
(712,536,o),
(692,569,o),
(665,591,cs),
(634,615,o),
(597,628,o),
(533,628,cs)
);
},
{
closed = 1;
nodes = (
(882,636,o),
(865,680,o),
(832,714,cs),
(797,751,o),
(741,775,o),
(645,788,cs),
(521,804,ls),
(489,808,o),
(466,814,o),
(451,827,cs),
(439,838,o),
(433,854,o),
(433,878,cs),
(433,888,o),
(434,901,o),
(436,911,c),
(309,917,l),
(305,904,o),
(302,884,o),
(302,866,cs),
(302,759,o),
(351,709,o),
(482,692,cs),
(604,676,ls),
(646,670,o),
(684,661,o),
(711,643,cs),
(735,627,o),
(750,604,o),
(750,571,cs),
(750,512,o),
(704,483,o),
(656,465,c),
(665,335,l),
(780,384,o),
(882,453,o),
(882,581,cs)
);
}
);
width = 919;
},
{
anchors = (
{
name = Anchor8;
pos = (436,622);
}
);
layerId = UUID0;
shapes = (
{
closed = 1;
nodes = (
(374,628,o),
(254,499,o),
(254,392,cs),
(254,309,o),
(311,270,o),
(376,270,cs),
(405,270,o),
(427,273,o),
(441,278,c),
(434,348,l),
(419,346,o),
(407,345,o),
(392,345,cs),
(341,345,o),
(333,373,o),
(333,393,cs),
(333,459,o),
(418,557,o),
(514,557,cs),
(540,557,o),
(557,552,o),
(569,542,cs),
(583,529,o),
(590,512,o),
(590,463,cs),
(590,106,l),
(561,146,o),
(518,161,o),
(461,161,cs),
(391,161,o),
(343,144,o),
(276,144,cs),
(202,144,o),
(124,162,o),
(124,280,cs),
(124,319,o),
(130,346,o),
(135,366,c),
(58,377,l),
(52,348,o),
(46,310,o),
(46,278,cs),
(46,97,o),
(182,70,o),
(272,70,cs),
(359,70,o),
(409,87,o),
(481,87,cs),
(541,87,o),
(575,60,o),
(592,0,c),
(667,0,l),
(667,490,ls),
(667,545,o),
(651,573,o),
(626,594,cs),
(600,616,o),
(565,628,o),
(511,628,cs)
);
},
{
closed = 1;
nodes = (
(831,627,o),
(812,671,o),
(779,702,cs),
(744,734,o),
(693,753,o),
(605,765,cs),
(474,783,ls),
(437,788,o),
(414,798,o),
(400,814,cs),
(386,831,o),
(380,851,o),
(380,878,cs),
(380,888,o),
(381,903,o),
(383,913,c),
(309,917,l),
(307,905,o),
(305,887,o),
(305,875,cs),
(305,773,o),
(358,724,o),
(482,707,cs),
(586,693,ls),
(658,683,o),
(695,670,o),
(720,649,cs),
(741,630,o),
(753,606,o),
(753,573,cs),
(753,506,o),
(705,471,o),
(657,449,c),
(657,370,l),
(750,410,o),
(831,467,o),
(831,575,cs)
);
}
);
width = 873;
},
{
anchors = (
{
name = Anchor8;
pos = (427,622);
}
);
layerId = "46A56A9B-0135-45C3-BDA6-6C6C4BC92BD5";
shapes = (
{
closed = 1;
nodes = (
(376,628,o),
(253,504,o),
(253,398,cs),
(253,319,o),
(299,285,o),
(364,285,cs),
(386,285,o),
(401,287,o),
(415,291,c),
(411,316,l),
(396,312,o),
(380,311,o),
(365,311,cs),
(292,311,o),
(280,353,o),
(280,398,cs),
(280,484,o),
(383,602,o),
(498,602,cs),
(527,602,o),
(550,595,o),
(566,582,cs),
(587,564,o),
(595,534,o),
(595,484,cs),
(595,55,l),
(574,108,o),
(536,139,o),
(470,139,cs),
(402,139,o),
(334,118,o),
(254,118,cs),
(169,118,o),
(79,141,o),
(79,281,cs),
(79,314,o),
(85,345,o),
(91,371,c),
(65,375,l),
(58,348,o),
(52,314,o),
(52,281,cs),
(52,124,o),
(159,92,o),
(255,92,cs),
(352,92,o),
(396,113,o),
(471,113,cs),
(550,113,o),
(573,66,o),
(595,0,c),
(621,0,l),
(621,494,ls),
(621,553,o),
(607,582,o),
(581,603,cs),
(558,622,o),
(526,628,o),
(498,628,cs)
);
},
{
closed = 1;
nodes = (
(783,633,o),
(763,670,o),
(733,695,cs),
(697,724,o),
(650,738,o),
(577,748,cs),
(446,767,ls),
(401,773,o),
(375,783,o),
(357,802,cs),
(341,819,o),
(334,841,o),
(334,879,cs),
(334,889,o),
(335,906,o),
(337,915,c),
(310,917,l),
(308,905,o),
(307,889,o),
(307,880,cs),
(307,781,o),
(363,753,o),
(443,741,cs),
(575,722,ls),
(651,711,o),
(689,697,o),
(716,675,cs),
(744,652,o),
(756,621,o),
(756,581,cs),
(756,493,o),
(682,448,o),
(615,421,c),
(615,395,l),
(695,427,o),
(783,476,o),
(783,579,cs)
);
}
);
width = 834;
},
{
anchors = (
{
name = Anchor8;
pos = (488,622);
}
);
layerId = "22409DE3-74E9-441F-9C04-63D5519B89AC";
shapes = (
{
closed = 1;
nodes = (
(399,628,o),
(268,492,o),
(268,382,cs),
(268,290,o),
(334,246,o),
(423,246,cs),
(466,246,o),
(494,250,o),
(519,256,c),
(511,389,l),
(500,387,o),
(487,386,o),
(476,386,cs),
(448,386,o),
(440,396,o),
(440,412,cs),
(440,443,o),
(491,490,o),
(534,490,cs),
(548,490,o),
(560,486,o),
(567,477,cs),
(576,466,o),
(579,450,o),
(579,425,cs),
(579,150,l),
(536,188,o),
(507,195,o),
(461,195,cs),
(415,195,o),
(365,183,o),
(305,183,cs),
(239,183,o),
(201,202,o),
(201,275,cs),
(201,304,o),
(204,330,o),
(210,355,c),
(42,379,l),
(33,346,o),
(28,301,o),
(28,265,cs),
(28,81,o),
(152,41,o),
(279,41,cs),
(359,41,o),
(418,54,o),
(484,54,cs),
(540,54,o),
(559,37,o),
(582,0,c),
(754,0,l),
(754,443,ls),
(754,530,o),
(727,568,o),
(698,590,cs),
(664,616,o),
(630,628,o),
(558,628,cs)
);
},
{
closed = 1;
nodes = (
(936,648,o),
(913,698,o),
(873,732,cs),
(828,770,o),
(775,790,o),
(657,807,cs),
(573,819,ls),
(531,825,o),
(506,830,o),
(492,843,cs),
(484,851,o),
(480,861,o),
(480,877,cs),
(480,885,o),
(480,895,o),
(482,907,c),
(317,917,l),
(314,903,o),
(312,882,o),
(312,868,cs),
(312,746,o),
(376,696,o),
(507,679,cs),
(616,665,ls),
(675,657,o),
(707,648,o),
(731,632,cs),
(752,618,o),
(763,597,o),
(763,572,cs),
(763,510,o),
(719,485,o),
(671,471,c),
(686,306,l),
(827,364,o),
(936,454,o),
(936,588,cs)
);
}
);
width = 976;
},
{
anchors = (
{
name = Anchor8;
pos = (328,622);
}
);
layerId = "F0143EB7-DEA3-4B38-8B70-DEA25CF19AA9";
shapes = (
{
closed = 1;
nodes = (
(273,628,o),
(190,499,o),
(190,389,cs),
(190,310,o),
(232,271,o),
(287,271,cs),
(309,271,o),
(323,272,o),
(336,277,c),
(329,345,l),
(319,344,o),
(311,343,o),
(303,343,cs),
(267,343,o),
(261,369,o),
(261,393,cs),
(261,461,o),
(318,560,o),
(378,560,cs),
(394,560,o),
(407,554,o),
(414,544,cs),
(423,531,o),
(425,512,o),
(425,473,cs),
(425,108,l),
(394,148,o),
(368,157,o),
(334,157,cs),
(293,157,o),
(254,142,o),
(206,142,cs),
(148,142,o),
(108,167,o),
(108,260,cs),
(108,284,o),
(111,319,o),
(117,345,c),
(48,355,l),
(40,320,o),
(37,288,o),
(37,260,cs),
(37,108,o),
(130,71,o),
(197,71,cs),
(260,71,o),
(295,86,o),
(343,86,cs),
(391,86,o),
(412,55,o),
(427,0,c),
(496,0,l),
(496,479,ls),
(496,547,o),
(486,577,o),
(464,599,cs),
(445,618,o),
(420,628,o),
(382,628,cs)
);
},
{
closed = 1;
nodes = (
(620,631,o),
(610,668,o),
(582,698,cs),
(554,727,o),
(514,748,o),
(448,762,cs),
(384,776,ls),
(351,783,o),
(329,792,o),
(317,803,cs),
(296,821,o),
(293,846,o),
(293,877,cs),
(293,887,o),
(294,902,o),
(296,913,c),
(228,917,l),
(226,903,o),
(224,887,o),
(224,873,cs),
(224,783,o),
(259,730,o),
(369,708,cs),
(425,697,ls),
(461,689,o),
(496,679,o),
(517,660,cs),
(538,641,o),
(549,614,o),
(549,580,cs),
(549,521,o),
(520,483,o),
(479,458,c),
(480,382,l),
(555,421,o),
(620,482,o),
(620,585,cs)
);
}
);
width = 657;
}
);
unicode = 2448;
},
{
glyphname = obeng;
lastChange = "2020-04-14 07:51:14 +0000";
layers = (
{
anchors = (
{
name = Anchor4;
pos = (392,622);
},
{
name = Anchor8;
pos = (390,622);
}
);
layerId = "8680C114-EF70-46E9-96FB-C90A78B2DAE0";
shapes = (
{
closed = 1;
nodes = (
(387,629,o),
(251,537,o),
(251,424,cs),
(251,357,o),
(301,301,o),
(403,290,c),
(430,401,l),
(392,406,o),
(386,418,o),
(386,433,cs),
(386,466,o),
(455,521,o),
(527,521,cs),
(567,521,o),
(587,502,o),
(587,472,cs),
(587,417,o),
(532,387,o),
(466,364,c),
(512,256,l),
(631,299,o),
(722,372,o),
(722,475,cs),
(722,571,o),
(654,629,o),
(531,629,cs)
);
},
{
closed = 1;
nodes = (
(731,282,o),
(690,334,o),
(634,371,c),
(515,318,l),
(560,303,o),
(597,275,o),
(597,230,cs),
(597,172,o),
(540,141,o),
(471,141,cs),
(319,141,o),
(223,234,o),
(141,507,c),
(16,472,l),
(116,125,o),
(271,26,o),
(483,26,cs),
(636,26,o),
(731,102,o),
(731,216,cs)
);
}
);
width = 780;
},
{
anchors = (
{
name = Anchor4;
pos = (425,622);
},
{
name = Anchor8;
pos = (369,622);
}
);
layerId = UUID0;
shapes = (
{
closed = 1;
nodes = (
(371,629,o),
(251,521,o),
(251,431,cs),
(251,374,o),
(289,335,o),
(365,321,c),
(386,395,l),
(339,402,o),
(331,418,o),
(331,439,cs),
(331,484,o),
(413,558,o),
(509,558,cs),
(562,558,o),
(591,531,o),
(591,482,cs),
(591,419,o),
(538,383,o),
(449,354,c),
(480,282,l),
(591,323,o),
(671,386,o),
(671,483,cs),
(671,574,o),
(611,629,o),
(509,629,cs)
);
},
{
closed = 1;
nodes = (
(681,289,o),
(648,341,o),
(589,373,c),
(509,338,l),
(562,315,o),
(600,280,o),
(600,228,cs),
(600,152,o),
(539,118,o),
(455,118,cs),
(286,118,o),
(183,242,o),
(103,529,c),
(28,507,l),
(117,168,o),
(265,42,o),
(453,42,cs),
(593,42,o),
(681,114,o),
(681,225,cs)
);
}
);
width = 738;
},
{
anchors = (
{
name = Anchor4;
pos = (426,622);
},
{
name = Anchor8;
pos = (359,622);
}
);
layerId = "46A56A9B-0135-45C3-BDA6-6C6C4BC92BD5";
shapes = (
{
closed = 1;
nodes = (
(372,629,o),
(262,528,o),
(262,443,cs),
(262,389,o),
(292,358,o),
(353,348,c),
(360,373,l),
(301,383,o),
(289,407,o),
(289,443,cs),
(289,511,o),
(381,603,o),
(492,603,cs),
(563,603,o),
(597,563,o),
(597,499,cs),
(597,427,o),
(549,375,o),
(439,338,c),
(448,314,l),
(565,356,o),
(624,413,o),
(624,499,cs),
(624,577,o),
(577,629,o),
(492,629,cs)
);
},
{
closed = 1;
nodes = (
(632,295,o),
(592,340,o),
(535,369,c),
(511,353,l),
(571,325,o),
(605,285,o),
(605,226,cs),
(605,135,o),
(542,88,o),
(441,88,cs),
(257,88,o),
(151,251,o),
(61,548,c),
(35,541,l),
(135,211,o),
(254,62,o),
(442,62,cs),
(557,62,o),
(632,124,o),
(632,226,cs)
);
}
);
width = 699;
},
{
anchors = (
{
name = Anchor4;
pos = (399,622);
},
{
name = Anchor8;
pos = (415,622);
}
);
layerId = "22409DE3-74E9-441F-9C04-63D5519B89AC";
shapes = (
{
closed = 1;
nodes = (
(419,629,o),
(272,543,o),
(272,419,cs),
(272,340,o),
(331,280,o),
(448,269,c),
(478,404,l),
(453,406,o),
(448,418,o),
(448,428,cs),
(448,456,o),
(506,494,o),
(560,494,cs),
(590,494,o),
(604,480,o),
(604,459,cs),
(604,419,o),
(572,398,o),
(501,373,c),
(553,247,l),
(668,288,o),
(780,366,o),
(780,473,cs),
(780,567,o),
(707,629,o),
(568,629,cs)
);
},
{
closed = 1;
nodes = (
(792,289,o),
(751,339,o),
(687,378,c),
(547,302,l),
(592,282,o),
(614,266,o),
(614,234,cs),
(614,187,o),
(567,169,o),
(503,169,cs),
(345,169,o),
(249,263,o),
(181,510,c),
(16,463,l),
(118,125,o),
(296,24,o),
(514,24,cs),
(697,24,o),
(792,105,o),
(792,221,cs)
);
}
);
width = 830;
},
{
anchors = (
{
name = Anchor4;
pos = (314,622);
},
{
name = Anchor8;
pos = (270,622);
}
);
layerId = "F0143EB7-DEA3-4B38-8B70-DEA25CF19AA9";
shapes = (
{
closed = 1;
nodes = (
(274,629,o),
(179,525,o),
(179,433,cs),
(179,371,o),
(209,335,o),
(277,325,c),
(292,395,l),
(256,396,o),
(251,414,o),
(251,437,cs),
(251,485,o),
(303,560,o),
(368,560,cs),
(406,560,o),
(424,530,o),
(424,491,cs),
(424,425,o),
(377,387,o),
(318,350,c),
(356,289,l),
(421,331,o),
(496,399,o),
(496,496,cs),
(496,577,o),
(450,629,o),
(371,629,cs)
);
},
{
closed = 1;
nodes = (
(503,283,o),
(467,339,o),
(420,376,c),
(351,334,l),
(391,309,o),
(431,278,o),
(431,213,cs),
(431,149,o),
(393,116,o),
(330,116,cs),
(205,116,o),
(142,243,o),
(87,527,c),
(17,512,l),
(79,173,o),
(175,43,o),
(333,43,cs),
(433,43,o),
(503,105,o),
(503,211,cs)
);
}
);
width = 541;
}
);
unicode = 2451;
},
{
glyphname = aubeng;
lastChange = "2020-04-14 07:51:14 +0000";
layers = (
{
anchors = (
{
name = Anchor8;
pos = (464,622);
}
);
layerId = "8680C114-EF70-46E9-96FB-C90A78B2DAE0";
shapes = (
{
closed = 1;
nodes = (
(387,629,o),
(251,537,o),
(251,424,cs),
(251,357,o),
(301,301,o),
(403,290,c),
(430,401,l),
(392,406,o),
(386,417,o),
(386,433,cs),
(386,466,o),
(455,521,o),
(527,521,cs),
(567,521,o),
(587,502,o),
(587,470,cs),
(587,417,o),
(532,387,o),
(466,364,c),
(512,256,l),
(582,281,o),
(641,316,o),
(677,362,c),
(698,393,l),
(712,417,o),
(719,445,o),
(719,475,cs),
(719,574,o),
(654,629,o),
(531,629,cs)
);
},
{
closed = 1;
nodes = (
(731,282,o),
(690,334,o),
(634,371,c),
(515,318,l),
(560,303,o),
(597,275,o),
(597,230,cs),
(597,172,o),
(540,141,o),
(471,141,cs),
(319,141,o),
(223,234,o),
(141,507,c),
(16,472,l),
(116,125,o),
(271,26,o),
(483,26,cs),
(636,26,o),
(731,102,o),
(731,216,cs)
);
},
{
closed = 1;
nodes = (
(891,636,o),
(875,681,o),
(842,715,cs),
(807,752,o),
(752,775,o),
(663,787,cs),
(530,804,ls),
(495,808,o),
(475,814,o),
(460,827,cs),
(448,838,o),
(442,855,o),
(442,878,cs),
(442,888,o),
(443,903,o),
(445,911,c),
(317,917,l),
(313,904,o),
(311,884,o),
(311,866,cs),
(311,759,o),
(359,709,o),
(491,692,cs),
(613,676,ls),
(660,670,o),
(705,658,o),
(730,635,cs),
(748,619,o),
(759,599,o),
(759,571,cs),
(759,512,o),
(712,479,o),
(665,461,c),
(650,322,l),
(793,385,o),
(891,453,o),
(891,581,cs)
);
}
);
width = 928;
},
{
anchors = (
{
name = Anchor8;
pos = (437,622);
}
);
layerId = UUID0;
shapes = (
{
closed = 1;
nodes = (
(371,629,o),
(251,521,o),
(251,431,cs),
(251,374,o),
(289,335,o),
(365,321,c),
(386,395,l),
(339,402,o),
(331,418,o),
(331,439,cs),
(331,484,o),
(413,558,o),
(509,558,cs),
(562,558,o),
(591,531,o),
(591,482,cs),
(591,419,o),
(538,383,o),
(449,354,c),
(480,282,l),
(546,307,o),
(601,338,o),
(635,381,c),
(632,402,l),
(654,428,o),
(670,457,o),
(670,488,cs),
(670,573,o),
(611,629,o),
(509,629,cs)
);
},
{
closed = 1;
nodes = (
(681,289,o),
(648,341,o),
(589,373,c),
(509,338,l),
(562,315,o),
(600,280,o),
(600,228,cs),
(600,152,o),
(539,118,o),
(455,118,cs),
(286,118,o),
(183,242,o),
(103,529,c),
(28,507,l),
(117,168,o),
(265,42,o),
(453,42,cs),
(593,42,o),
(681,114,o),
(681,225,cs)
);
},
{
closed = 1;
nodes = (
(832,633,o),
(811,679,o),
(771,710,cs),
(737,737,o),
(694,753,o),
(625,762,cs),
(484,781,ls),
(436,788,o),
(414,798,o),
(400,814,cs),
(386,831,o),
(380,851,o),
(380,878,cs),
(380,888,o),
(381,901,o),
(383,913,c),
(309,917,l),
(307,904,o),
(305,885,o),
(305,875,cs),
(305,773,o),
(355,725,o),
(482,707,cs),
(600,691,ls),
(659,683,o),
(700,670,o),
(724,646,cs),
(743,627,o),
(754,604,o),
(754,570,cs),
(754,508,o),
(704,466,o),
(651,439,c),
(597,343,l),
(738,398,o),
(832,460,o),
(832,577,cs)
);
}
);
width = 874;
},
{
anchors = (
{
name = Anchor8;
pos = (427,622);
}
);
layerId = "46A56A9B-0135-45C3-BDA6-6C6C4BC92BD5";
shapes = (
{
closed = 1;
nodes = (
(372,629,o),
(262,528,o),
(262,443,cs),
(262,389,o),
(292,358,o),
(353,348,c),
(360,373,l),
(301,383,o),
(289,407,o),
(289,443,cs),
(289,511,o),
(381,603,o),
(492,603,cs),
(563,603,o),
(597,563,o),
(597,499,cs),
(597,427,o),
(549,375,o),
(439,338,c),
(448,314,l),
(503,334,o),
(546,357,o),
(575,385,c),
(567,386,l),
(601,417,o),
(624,450,o),
(624,499,cs),
(624,577,o),
(577,629,o),
(492,629,cs)
);
},
{
closed = 1;
nodes = (
(632,295,o),
(592,340,o),
(535,369,c),
(511,353,l),
(571,325,o),
(605,285,o),
(605,226,cs),
(605,135,o),
(542,88,o),
(441,88,cs),
(257,88,o),
(151,251,o),
(61,548,c),
(35,541,l),
(135,211,o),
(254,62,o),
(442,62,cs),
(557,62,o),
(632,124,o),
(632,226,cs)
);
},
{
closed = 1;
nodes = (
(782,633,o),
(762,670,o),
(732,695,cs),
(696,724,o),
(649,738,o),
(576,748,cs),
(445,767,ls),
(400,773,o),
(374,783,o),
(356,802,cs),
(340,819,o),
(333,841,o),
(333,879,cs),
(333,889,o),
(334,906,o),
(336,915,c),
(309,917,l),
(307,905,o),
(306,889,o),
(306,880,cs),
(306,781,o),
(362,753,o),
(442,741,cs),
(574,722,ls),
(650,711,o),
(688,697,o),
(715,675,cs),
(743,652,o),
(755,621,o),
(755,581,cs),
(755,496,o),
(691,451,o),
(559,385,c),
(536,355,l),
(700,421,o),
(782,478,o),
(782,579,cs)
);
}
);
width = 833;
},
{
anchors = (
{
name = Anchor8;
pos = (498,622);
}
);
layerId = "22409DE3-74E9-441F-9C04-63D5519B89AC";
shapes = (
{
closed = 1;
nodes = (
(419,629,o),
(272,543,o),
(272,419,cs),
(272,340,o),
(331,280,o),
(448,269,c),
(478,404,l),
(453,406,o),
(448,418,o),
(448,428,cs),
(448,456,o),
(506,494,o),
(560,494,cs),
(590,494,o),
(604,480,o),
(604,459,cs),
(604,419,o),
(572,398,o),
(501,373,c),
(553,247,l),
(631,275,o),
(703,320,o),
(741,379,c),
(758,420,l),
(764,437,o),
(767,454,o),
(767,473,cs),
(767,575,o),
(707,629,o),
(568,629,cs)
);
},
{
closed = 1;
nodes = (
(792,289,o),
(751,339,o),
(687,378,c),
(547,302,l),
(592,282,o),
(614,266,o),
(614,234,cs),
(614,187,o),
(567,169,o),
(503,169,cs),
(345,169,o),
(249,263,o),
(181,510,c),
(16,463,l),
(118,125,o),
(296,24,o),
(514,24,cs),
(697,24,o),
(792,105,o),
(792,221,cs)
);
},
{
closed = 1;
nodes = (
(956,648,o),
(933,698,o),
(893,732,cs),
(848,770,o),
(795,790,o),
(677,807,cs),
(593,819,ls),
(551,825,o),
(526,830,o),
(512,843,cs),
(504,851,o),
(500,861,o),
(500,877,cs),
(500,885,o),
(500,895,o),
(502,907,c),
(337,917,l),
(334,903,o),
(332,882,o),
(332,868,cs),
(332,746,o),
(396,696,o),
(527,679,cs),
(636,665,ls),
(695,657,o),
(727,648,o),
(751,632,cs),
(772,618,o),
(783,597,o),
(783,572,cs),
(783,511,o),
(754,486,o),
(699,462,c),
(706,306,l),
(847,364,o),
(956,454,o),
(956,588,cs)
);
}
);
width = 996;
},
{
anchors = (
{
name = Anchor8;
pos = (328,622);
}
);
layerId = "F0143EB7-DEA3-4B38-8B70-DEA25CF19AA9";
shapes = (
{
closed = 1;
nodes = (
(274,629,o),
(179,525,o),
(179,433,cs),
(179,371,o),
(209,335,o),
(277,325,c),
(292,395,l),
(256,396,o),
(251,414,o),
(251,437,cs),
(251,485,o),
(303,560,o),
(368,560,cs),
(406,560,o),
(424,530,o),
(424,491,cs),
(424,425,o),
(377,387,o),
(318,350,c),
(356,289,l),
(399,317,o),
(446,356,o),
(473,407,c),
(479,433,l),
(486,449,o),
(495,472,o),
(495,503,cs),
(495,575,o),
(450,629,o),
(371,629,cs)
);
},
{
closed = 1;
nodes = (
(503,283,o),
(467,339,o),
(420,376,c),
(351,334,l),
(391,309,o),
(431,278,o),
(431,213,cs),
(431,149,o),
(393,116,o),
(330,116,cs),
(205,116,o),
(142,243,o),
(87,527,c),
(17,512,l),
(79,173,o),
(175,43,o),
(333,43,cs),
(433,43,o),
(503,105,o),
(503,211,cs)
);
},
{
closed = 1;
nodes = (
(619,631,o),
(609,668,o),
(581,698,cs),
(553,727,o),
(513,748,o),
(447,762,cs),
(383,776,ls),
(350,783,o),
(328,792,o),
(316,803,cs),
(295,821,o),
(292,846,o),
(292,877,cs),
(292,887,o),
(293,902,o),
(295,913,c),
(227,917,l),
(225,903,o),
(223,887,o),
(223,873,cs),
(223,783,o),
(258,730,o),
(368,708,cs),
(424,697,ls),
(460,689,o),
(495,679,o),
(516,660,cs),
(537,641,o),
(548,614,o),
(548,580,cs),
(548,521,o),
(518,486,o),
(478,449,c),
(431,350,l),
(555,420,o),
(619,477,o),
(619,585,cs)
);
}
);
width = 656;
}
);
unicode = 2452;
},
{
glyphname = kabeng;
lastChange = "2020-04-14 07:51:14 +0000";
layers = (
{
anchors = (
{
name = Anchor4;
pos = (411,622);
},
{
name = Anchor6;
pos = (411,0);
},
{
name = Anchor8;
pos = (477,622);
}
);
layerId = "8680C114-EF70-46E9-96FB-C90A78B2DAE0";
shapes = (
{
closed = 1;
nodes = (
(-10,622,l),
(-10,512,l),
(414,512,l),
(414,466,l),
(433,495,l),
(291,458,o),
(138,389,o),
(16,321,c),
(66,203,l),
(215,178,o),
(336,108,o),
(411,0,c),
(543,0,l),
(543,411,l),
(541,452,l),
(541,512,l),
(867,512,l),
(867,622,l)
);
},
{
closed = 1;
nodes = (
(411,204,ls),
(411,171,o),
(413,141,o),
(415,117,c),
(433,128,l),
(364,210,o),
(266,262,o),
(184,278,c),
(270,319,o),
(344,351,o),
(432,377,c),
(411,399,l)
);
},
{
closed = 1;
nodes = (
(825,389,o),
(691,471,o),
(527,493,c),
(527,384,l),
(637,365,o),
(696,329,o),
(696,284,cs),
(696,260,o),
(686,241,o),
(638,241,cs),
(622,241,o),
(613,242,o),
(606,243,c),
(602,133,l),
(622,129,o),
(645,127,o),
(673,127,cs),
(790,127,o),
(825,192,o),
(825,258,cs)
);
}
);
width = 857;
},
{
anchors = (
{
name = Anchor4;
pos = (415,622);
},
{
name = Anchor6;
pos = (415,0);
},
{
name = Anchor8;
pos = (453,622);
}
);
layerId = UUID0;
shapes = (
{
closed = 1;
nodes = (
(-10,622,l),
(-10,551,l),
(415,551,l),
(415,475,l),
(437,517,l),
(291,472,o),
(166,414,o),
(37,339,c),
(76,243,l),
(222,224,o),
(357,118,o),
(415,0,c),
(492,0,l),
(492,473,l),
(492,489,l),
(492,551,l),
(817,551,l),
(817,622,l)
);
},
{
closed = 1;
nodes = (
(415,189,ls),
(415,146,o),
(417,119,o),
(420,88,c),
(428,90,l),
(379,194,o),
(242,282,o),
(130,304,c),
(216,351,o),
(333,409,o),
(436,438,c),
(415,467,l)
);
},
{
closed = 1;
nodes = (
(761,410,o),
(635,496,o),
(482,513,c),
(479,438,l),
(614,419,o),
(683,366,o),
(683,296,cs),
(683,261,o),
(670,233,o),
(606,233,cs),
(591,233,o),
(580,234,o),
(572,235,c),
(566,163,l),
(584,159,o),
(604,158,o),
(625,158,cs),
(725,158,o),
(761,222,o),
(761,288,cs)
);
}
);
width = 807;
},
{
anchors = (
{
name = Anchor4;
pos = (415,622);
},
{
name = Anchor6;
pos = (415,0);
},
{
name = Anchor8;
pos = (440,622);
}
);
layerId = "46A56A9B-0135-45C3-BDA6-6C6C4BC92BD5";
shapes = (
{
closed = 1;
nodes = (
(-10,622,l),
(-10,596,l),
(414,596,l),
(414,520,l),
(421,527,l),
(290,479,o),
(165,416,o),
(41,336,c),
(55,302,l),
(215,264,o),
(341,164,o),
(414,0,c),
(440,0,l),
(440,511,l),
(440,519,l),
(440,596,l),
(769,596,l),
(769,622,l)
);
},
{
closed = 1;
nodes = (
(414,168,ls),
(414,112,o),
(416,55,o),
(420,23,c),
(426,23,l),
(357,198,o),
(210,288,o),
(70,325,c),
(183,395,o),
(318,465,o),
(426,503,c),
(414,511,l)
);
},
{
closed = 1;
nodes = (
(704,419,o),
(601,506,o),
(429,527,c),
(429,501,l),
(584,482,o),
(677,406,o),
(677,312,cs),
(677,262,o),
(658,225,o),
(577,225,cs),
(562,225,o),
(549,227,o),
(537,229,c),
(535,203,l),
(549,200,o),
(559,199,o),
(577,199,cs),
(667,199,o),
(704,245,o),
(704,312,cs)
);
}
);
width = 759;
},
{
anchors = (
{
name = Anchor4;
pos = (386,622);
},
{
name = Anchor6;
pos = (386,0);
},
{
name = Anchor8;
pos = (473,622);
}
);
layerId = "22409DE3-74E9-441F-9C04-63D5519B89AC";
shapes = (
{
closed = 1;
nodes = (
(-10,622,l),
(-10,484,l),
(392,484,l),
(392,441,l),
(409,468,l),
(274,437,o),
(144,393,o),
(14,327,c),
(77,170,l),
(219,143,o),
(303,95,o),
(386,0,c),
(561,0,l),
(561,359,l),
(558,418,l),
(558,484,l),
(888,484,l),
(888,622,l)
);
},
{
closed = 1;
nodes = (
(386,233,ls),
(386,203,o),
(389,167,o),
(392,141,c),
(419,139,l),
(372,199,o),
(282,247,o),
(214,260,c),
(276,289,o),
(334,311,o),
(404,328,c),
(386,337,l)
);
},
{
closed = 1;
nodes = (
(852,368,o),
(719,449,o),
(548,465,c),
(550,333,l),
(642,319,o),
(679,296,o),
(679,268,cs),
(679,252,o),
(668,241,o),
(645,241,cs),
(632,241,o),
(620,242,o),
(611,244,c),
(605,106,l),
(630,101,o),
(659,99,o),
(690,99,cs),
(818,99,o),
(852,163,o),
(852,241,cs)
);
}
);
width = 878;
},
{
anchors = (
{
name = Anchor4;
pos = (299,622);
},
{
name = Anchor6;
pos = (299,0);
},
{
name = Anchor8;
pos = (334,622);
}
);
layerId = "F0143EB7-DEA3-4B38-8B70-DEA25CF19AA9";
shapes = (
{
closed = 1;
nodes = (
(-6,622,l),
(-6,554,l),
(299,554,l),
(299,478,l),
(314,524,l),
(211,478,o),
(114,411,o),
(23,336,c),
(55,251,l),
(169,219,o),
(251,121,o),
(299,0,c),
(370,0,l),
(370,481,l),
(370,497,l),
(370,554,l),
(607,554,l),
(607,622,l)
);
},
{
closed = 1;
nodes = (
(299,186,ls),
(299,154,o),
(301,109,o),
(304,79,c),
(309,92,l),
(268,205,o),
(190,275,o),
(103,308,c),
(167,363,o),
(253,415,o),
(316,447,c),
(299,470,l)
);
},
{
closed = 1;
nodes = (
(566,403,o),
(474,500,o),
(361,520,c),
(360,450,l),
(444,427,o),
(495,368,o),
(495,291,cs),
(495,261,o),
(487,232,o),
(448,232,cs),
(438,232,o),
(428,233,o),
(422,234,c),
(419,165,l),
(432,162,o),
(449,161,o),
(465,161,cs),
(541,161,o),
(566,223,o),
(566,289,cs)
);
}
);
width = 601;
}
);
unicode = 2453;
},
{
glyphname = khabeng;
lastChange = "2020-04-14 07:51:14 +0000";
layers = (
{
anchors = (
{
name = Anchor4;
pos = (470,622);
},
{
name = Anchor6;
pos = (531,0);
},
{
name = Anchor8;
pos = (374,622);
}
);
layerId = "8680C114-EF70-46E9-96FB-C90A78B2DAE0";
shapes = (
{
closed = 1;
nodes = (
(662,622,l),
(639,688,l),
(531,688,l),
(531,242,ls),
(531,207,o),
(531,176,o),
(533,146,c),
(461,208,o),
(386,271,o),
(192,291,c),
(133,315,l),
(166,199,l),
(333,172,o),
(437,113,o),
(531,0,c),
(663,0,l),
(663,512,l),
(759,512,l),
(759,622,l)
);
},
{
closed = 1;
nodes = (
(475,526,o),
(446,583,o),
(407,625,c),
(282,542,l),
(315,517,o),
(346,489,o),
(346,449,cs),
(346,381,o),
(278,342,o),
(133,315,c),
(153,268,l),
(236,248,l),
(401,268,o),
(475,353,o),
(475,462,cs)
);
},
{
closed = 1;
nodes = (
(303,421,o),
(360,483,o),
(420,587,c),
(407,625,l),
(314,604,l),
(275,548,o),
(251,532,o),
(213,532,cs),
(190,532,o),
(174,542,o),
(174,566,cs),
(174,578,o),
(177,588,o),
(183,600,c),
(65,628,l),
(53,604,o),
(44,575,o),
(44,543,cs),
(44,467,o),
(101,421,o),
(191,421,cs)
);
}
);
width = 749;
},
{
anchors = (
{
name = Anchor4;
pos = (463,622);
},
{
name = Anchor6;
pos = (524,0);
},
{
name = Anchor8;
pos = (348,622);
}
);
layerId = UUID0;
shapes = (
{
closed = 1;
nodes = (
(600,622,l),
(577,688,l),
(524,688,l),
(524,193,ls),
(524,157,o),
(524,127,o),
(526,97,c),
(471,173,o),
(375,264,o),
(190,296,c),
(142,331,l),
(166,238,l),
(336,208,o),
(448,110,o),
(524,0,c),
(601,0,l),
(601,551,l),
(706,551,l),
(706,622,l)
);
},
{
closed = 1;
nodes = (
(450,530,o),
(416,583,o),
(371,625,cs),
(316,571,l),
(357,539,o),
(375,507,o),
(375,466,cs),
(375,391,o),
(303,343,o),
(142,331,c),
(162,285,l),
(209,276,l),
(347,292,o),
(450,353,o),
(450,470,cs)
);
},
{
closed = 1;
nodes = (
(269,430,o),
(333,487,o),
(373,575,c),
(371,625,l),
(316,612,l),
(269,518,o),
(221,501,o),
(182,501,cs),
(151,501,o),
(130,517,o),
(130,552,cs),
(130,573,o),
(138,593,o),
(147,607,c),
(71,628,l),
(59,608,o),
(49,579,o),
(49,548,cs),
(49,474,o),
(101,430,o),
(182,430,cs)
);
}
);
width = 696;
},
{
anchors = (
{
name = Anchor4;
pos = (476,622);
},
{
name = Anchor6;
pos = (521,0);
},
{
name = Anchor8;
pos = (336,622);
}
);
layerId = "46A56A9B-0135-45C3-BDA6-6C6C4BC92BD5";
shapes = (
{
closed = 1;
nodes = (
(544,622,l),
(539,676,l),
(518,676,l),
(518,136,ls),
(518,99,o),
(518,70,o),
(520,40,c),
(473,138,o),
(361,250,o),
(184,292,c),
(159,312,l),
(166,270,l),
(346,232,o),
(459,114,o),
(518,0,c),
(544,0,l),
(544,596,l),
(659,596,l),
(659,622,l)
);
},
{
closed = 1;
nodes = (
(417,530,o),
(384,577,o),
(337,625,c),
(318,605,l),
(357,567,o),
(390,528,o),
(390,464,cs),
(390,383,o),
(332,330,o),
(159,312,c),
(171,284,l),
(178,290,l),
(330,309,o),
(417,355,o),
(417,465,cs)
);
},
{
closed = 1;
nodes = (
(241,446,o),
(301,506,o),
(339,601,c),
(337,625,l),
(319,620,l),
(273,502,o),
(213,472,o),
(157,472,cs),
(117,472,o),
(82,495,o),
(82,549,cs),
(82,573,o),
(89,599,o),
(100,620,c),
(75,628,l),
(64,607,o),
(55,580,o),
(55,549,cs),
(55,485,o),
(98,446,o),
(157,446,cs)
);
}
);
width = 649;
},
{
anchors = (
{
name = Anchor4;
pos = (494,622);
},
{
name = Anchor6;
pos = (549,0);
},
{
name = Anchor8;
pos = (399,622);
}
);
layerId = "22409DE3-74E9-441F-9C04-63D5519B89AC";
shapes = (
{
closed = 1;
nodes = (
(724,622,l),
(699,692,l),
(549,692,l),
(549,273,ls),
(549,238,o),
(549,207,o),
(551,177,c),
(484,230,o),
(419,267,o),
(279,286,c),
(158,333,l),
(201,184,l),
(374,148,o),
(451,107,o),
(549,0,c),
(724,0,l),
(724,484,l),
(809,484,l),
(809,622,l)
);
},
{
closed = 1;
nodes = (
(508,523,o),
(475,586,o),
(436,625,c),
(267,523,l),
(300,504,o),
(338,471,o),
(338,439,cs),
(338,382,o),
(264,355,o),
(158,333,c),
(180,272,l),
(271,242,l),
(456,266,o),
(508,353,o),
(508,456,cs)
);
},
{
closed = 1;
nodes = (
(321,410,o),
(369,473,o),
(438,567,c),
(436,625,l),
(310,598,l),
(287,560,o),
(263,545,o),
(239,545,cs),
(218,545,o),
(212,556,o),
(212,572,cs),
(212,581,o),
(214,589,o),
(219,600,c),
(64,628,l),
(52,601,o),
(44,572,o),
(44,544,cs),
(44,462,o),
(102,410,o),
(206,410,cs)
);
}
);
width = 799;
},
{
anchors = (
{
name = Anchor4;
pos = (334,622);
},
{
name = Anchor6;
pos = (376,0);
},
{
name = Anchor8;
pos = (257,622);
}
);
layerId = "F0143EB7-DEA3-4B38-8B70-DEA25CF19AA9";
shapes = (
{
closed = 1;
nodes = (
(446,622,l),
(430,687,l),
(376,687,l),
(376,193,ls),
(376,157,o),
(377,127,o),
(379,97,c),
(335,184,o),
(268,269,o),
(137,304,c),
(93,329,l),
(115,245,l),
(242,207,o),
(316,116,o),
(376,0,c),
(447,0,l),
(447,554,l),
(521,554,l),
(521,622,l)
);
},
{
closed = 1;
nodes = (
(328,531,o),
(302,585,o),
(275,625,c),
(225,577,l),
(254,532,o),
(260,510,o),
(260,467,cs),
(260,392,o),
(199,343,o),
(93,329,c),
(113,286,l),
(149,279,l),
(255,294,o),
(328,358,o),
(328,467,cs)
);
},
{
closed = 1;
nodes = (
(210,430,o),
(245,488,o),
(277,574,c),
(275,625,l),
(226,612,l),
(197,511,o),
(167,498,o),
(142,498,cs),
(122,498,o),
(109,514,o),
(109,541,cs),
(109,566,o),
(117,592,o),
(124,607,c),
(57,628,l),
(47,604,o),
(37,574,o),
(37,539,cs),
(37,474,o),
(77,430,o),
(139,430,cs)
);
}
);
width = 515;
}
);
unicode = 2454;
},
{
glyphname = gabeng;
lastChange = "2020-04-14 07:51:14 +0000";
layers = (
{
anchors = (
{
name = Anchor4;
pos = (420,622);
},
{
name = Anchor6;
pos = (482,0);
},
{
name = Anchor8;
pos = (350,622);
}
);
layerId = "8680C114-EF70-46E9-96FB-C90A78B2DAE0";
shapes = (
{
closed = 1;
nodes = (
(614,0,l),
(614,512,l),
(710,512,l),
(710,622,l),
(613,622,l),
(591,688,l),
(482,688,l),
(482,585,ls),
(482,541,o),
(486,511,o),
(486,495,c),
(530,483,l),
(436,577,o),
(366,629,o),
(270,629,cs),
(164,629,o),
(85,553,o),
(15,451,c),
(120,367,l),
(154,385,o),
(181,393,o),
(208,393,cs),
(241,393,o),
(254,379,o),
(254,357,cs),
(254,319,o),
(204,288,o),
(127,253,c),
(203,146,l),
(321,212,o),
(379,276,o),
(379,356,cs),
(379,426,o),
(330,482,o),
(241,482,cs),
(192,482,o),
(161,469,o),
(134,452,c),
(146,450,l),
(181,486,o),
(212,519,o),
(275,519,cs),
(373,519,o),
(447,436,o),
(507,360,c),
(482,403,l),
(482,0,l)
);
}
);
width = 700;
},
{
anchors = (
{
name = Anchor4;
pos = (423,622);
},
{
name = Anchor6;
pos = (484,0);
},
{
name = Anchor8;
pos = (328,622);
}
);
layerId = UUID0;
shapes = (
{
closed = 1;
nodes = (
(561,0,l),
(561,551,l),
(666,551,l),
(666,622,l),
(560,622,l),
(537,688,l),
(484,688,l),
(484,585,ls),
(484,545,o),
(486,501,o),
(489,483,c),
(507,472,l),
(426,576,o),
(354,629,o),
(255,629,cs),
(156,629,o),
(83,562,o),
(22,458,c),
(103,392,l),
(137,409,o),
(165,417,o),
(200,417,cs),
(243,417,o),
(266,394,o),
(266,365,cs),
(266,312,o),
(204,275,o),
(131,245,c),
(182,172,l),
(294,232,o),
(346,290,o),
(346,369,cs),
(346,423,o),
(308,487,o),
(216,487,cs),
(165,487,o),
(124,474,o),
(106,457,c),
(120,465,l),
(153,513,o),
(192,556,o),
(263,556,cs),
(348,556,o),
(412,495,o),
(505,362,c),
(484,425,l),
(484,0,l)
);
}
);
width = 656;
},
{
anchors = (
{
name = Anchor4;
pos = (432,622);
},
{
name = Anchor6;
pos = (477,0);
},
{
name = Anchor8;
pos = (314,622);
}
);
layerId = "46A56A9B-0135-45C3-BDA6-6C6C4BC92BD5";
shapes = (
{
closed = 1;
nodes = (
(495,0,l),
(495,596,l),
(610,596,l),
(610,622,l),
(495,622,l),
(490,676,l),
(469,676,l),
(469,546,ls),
(469,510,o),
(470,473,o),
(472,451,c),
(494,441,l),
(415,561,o),
(355,629,o),
(248,629,cs),
(155,629,o),
(87,559,o),
(23,453,c),
(54,428,l),
(92,451,o),
(130,467,o),
(179,467,cs),
(236,467,o),
(268,438,o),
(268,389,cs),
(268,322,o),
(220,280,o),
(118,241,c),
(129,217,l),
(243,264,o),
(295,311,o),
(295,390,cs),
(295,433,o),
(267,493,o),
(181,493,cs),
(121,493,o),
(81,472,o),
(43,448,c),
(49,448,l),
(106,537,o),
(163,603,o),
(247,603,cs),
(326,603,o),
(378,572,o),
(490,410,c),
(469,446,l),
(469,0,l)
);
}
);
width = 600;
},
{
anchors = (
{
name = Anchor4;
pos = (442,622);
},
{
name = Anchor6;
pos = (497,0);
},
{
name = Anchor8;
pos = (373,622);
}
);
layerId = "22409DE3-74E9-441F-9C04-63D5519B89AC";
shapes = (
{
closed = 1;
nodes = (
(672,0,l),
(672,484,l),
(757,484,l),
(757,622,l),
(671,622,l),
(647,692,l),
(497,692,l),
(497,614,ls),
(497,575,o),
(498,530,o),
(500,514,c),
(541,490,l),
(452,586,o),
(383,629,o),
(293,629,cs),
(169,629,o),
(93,555,o),
(15,452,c),
(139,347,l),
(169,364,o),
(189,372,o),
(215,372,cs),
(233,372,o),
(243,362,o),
(243,346,cs),
(243,319,o),
(220,302,o),
(135,262,c),
(228,132,l),
(347,191,o),
(412,269,o),
(412,350,cs),
(412,429,o),
(358,475,o),
(277,475,cs),
(228,475,o),
(201,464,o),
(168,447,c),
(174,439,l),
(208,473,o),
(234,497,o),
(299,497,cs),
(383,497,o),
(445,426,o),
(503,357,c),
(497,403,l),
(497,0,l)
);
}
);
width = 747;
},
{
anchors = (
{
name = Anchor4;
pos = (309,622);
},
{
name = Anchor6;
pos = (351,0);
},
{
name = Anchor8;
pos = (245,622);
}
);
layerId = "F0143EB7-DEA3-4B38-8B70-DEA25CF19AA9";
shapes = (
{
closed = 1;
nodes = (
(422,0,l),
(422,554,l),
(496,554,l),
(496,622,l),
(422,622,l),
(405,687,l),
(351,687,l),
(351,611,ls),
(351,571,o),
(352,537,o),
(356,509,c),
(368,511,l),
(304,601,o),
(263,629,o),
(197,629,cs),
(115,629,o),
(64,563,o),
(14,461,c),
(80,400,l),
(101,412,o),
(127,420,o),
(152,420,cs),
(181,420,o),
(204,405,o),
(204,372,cs),
(204,324,o),
(160,290,o),
(99,262,c),
(144,194,l),
(229,245,o),
(277,295,o),
(277,373,cs),
(277,433,o),
(240,487,o),
(162,487,cs),
(133,487,o),
(106,477,o),
(82,461,c),
(90,458,l),
(117,515,o),
(152,559,o),
(200,559,cs),
(267,559,o),
(310,499,o),
(370,399,c),
(351,449,l),
(351,0,l)
);
}
);
width = 490;
}
);
unicode = 2455;
},
{
glyphname = ghabeng;
lastChange = "2020-04-14 07:51:14 +0000";
layers = (
{
anchors = (
{
name = Anchor6;
pos = (444,0);
},
{
name = Anchor8;
pos = (331,622);
}
);
layerId = "8680C114-EF70-46E9-96FB-C90A78B2DAE0";
shapes = (
{
closed = 1;
nodes = (
(-10,622,l),
(-10,512,l),
(444,512,l),
(444,202,ls),
(444,179,o),
(446,155,o),
(446,135,c),
(378,197,o),
(300,232,o),
(208,252,c),
(208,233,l),
(260,268,o),
(321,300,o),
(386,332,c),
(328,419,l),
(290,396,o),
(263,388,o),
(232,388,cs),
(205,388,o),
(175,399,o),
(175,439,cs),
(175,479,o),
(206,512,o),
(282,542,c),
(154,574,l),
(78,529,o),
(39,493,o),
(39,429,cs),
(39,368,o),
(86,311,o),
(197,311,cs),
(199,311,o),
(206,311,o),
(217,312,c),
(176,333,l),
(135,309,o),
(98,286,o),
(60,259,c),
(102,167,l),
(260,145,o),
(378,83,o),
(444,0,c),
(576,0,l),
(576,512,l),
(672,512,l),
(672,622,l)
);
}
);
width = 662;
},
{
anchors = (
{
name = Anchor6;
pos = (459,0);
},
{
name = Anchor8;
pos = (315,622);
}
);
layerId = UUID0;
shapes = (
{
closed = 1;
nodes = (
(-10,622,l),
(-10,551,l),
(459,551,l),
(459,165,ls),
(459,140,o),
(460,114,o),
(461,92,c),
(387,171,o),
(297,228,o),
(144,251,c),
(157,234,l),
(215,279,o),
(302,338,o),
(374,381,c),
(331,441,l),
(288,412,o),
(253,404,o),
(224,404,cs),
(177,404,o),
(137,422,o),
(137,472,cs),
(137,513,o),
(167,551,o),
(240,581,c),
(171,616,l),
(95,568,o),
(56,529,o),
(56,469,cs),
(56,390,o),
(119,343,o),
(234,343,cs),
(246,343,o),
(259,345,o),
(276,350,c),
(219,358,l),
(170,328,o),
(127,300,o),
(83,266,c),
(118,179,l),
(270,169,o),
(396,85,o),
(459,0,c),
(536,0,l),
(536,551,l),
(641,551,l),
(641,622,l)
);
}
);
width = 631;
},
{
anchors = (
{
name = Anchor6;
pos = (462,0);
},
{
name = Anchor8;
pos = (306,622);
}
);
layerId = "46A56A9B-0135-45C3-BDA6-6C6C4BC92BD5";
shapes = (
{
closed = 1;
nodes = (
(-10,622,l),
(-10,596,l),
(464,596,l),
(464,111,ls),
(464,84,o),
(464,56,o),
(466,33,c),
(396,147,o),
(280,233,o),
(101,260,c),
(105,251,l),
(164,299,o),
(265,374,o),
(344,426,c),
(328,447,l),
(282,413,o),
(245,404,o),
(203,404,cs),
(129,404,o),
(90,432,o),
(90,494,cs),
(90,528,o),
(106,571,o),
(176,609,c),
(150,619,l),
(89,586,o),
(63,541,o),
(63,494,cs),
(63,428,o),
(103,379,o),
(202,379,cs),
(231,379,o),
(252,386,o),
(273,397,c),
(281,402,l),
(211,369,o),
(137,310,o),
(86,267,c),
(99,235,l),
(276,209,o),
(383,119,o),
(464,0,c),
(490,0,l),
(490,596,l),
(605,596,l),
(605,622,l)
);
}
);
width = 595;
},
{
anchors = (
{
name = Anchor6;
pos = (439,0);
},
{
name = Anchor8;
pos = (344,622);
}
);
layerId = "22409DE3-74E9-441F-9C04-63D5519B89AC";
shapes = (
{
closed = 1;
nodes = (
(-10,622,l),
(-10,484,l),
(439,484,l),
(439,229,ls),
(439,192,o),
(440,169,o),
(441,152,c),
(377,201,o),
(303,226,o),
(230,239,c),
(240,216,l),
(290,247,o),
(342,272,o),
(405,298,c),
(339,412,l),
(304,392,o),
(281,384,o),
(257,384,cs),
(229,384,o),
(215,399,o),
(215,423,cs),
(215,453,o),
(237,478,o),
(287,507,c),
(144,557,l),
(68,514,o),
(36,475,o),
(36,414,cs),
(36,342,o),
(93,293,o),
(190,293,cs),
(206,293,o),
(219,294,o),
(232,296,c),
(168,313,l),
(123,294,o),
(80,269,o),
(47,246,c),
(96,136,l),
(255,118,o),
(351,73,o),
(439,0,c),
(614,0,l),
(614,484,l),
(699,484,l),
(699,622,l)
);
}
);
width = 689;
},
{
anchors = (
{
name = Anchor6;
pos = (328,0);
},
{
name = Anchor8;
pos = (233,622);
}
);
layerId = "F0143EB7-DEA3-4B38-8B70-DEA25CF19AA9";
shapes = (
{
closed = 1;
nodes = (
(-6,622,l),
(-6,554,l),
(328,554,l),
(328,173,ls),
(328,138,o),
(329,112,o),
(330,90,c),
(278,170,o),
(201,231,o),
(110,255,c),
(109,230,l),
(161,278,o),
(230,334,o),
(294,382,c),
(246,437,l),
(221,416,o),
(200,404,o),
(176,404,cs),
(141,404,o),
(114,423,o),
(114,464,cs),
(114,514,o),
(148,553,o),
(200,583,c),
(147,615,l),
(86,574,o),
(40,531,o),
(40,459,cs),
(40,387,o),
(93,347,o),
(172,347,cs),
(186,347,o),
(203,349,o),
(215,354,c),
(195,385,l),
(154,356,o),
(83,301,o),
(52,269,c),
(84,191,l),
(194,159,o),
(275,93,o),
(328,0,c),
(399,0,l),
(399,554,l),
(473,554,l),
(473,622,l)
);
}
);
width = 467;
}
);
unicode = 2456;
},
{
glyphname = ngabeng;
lastChange = "2020-04-14 07:51:14 +0000";
layers = (
{
anchors = (
{
name = Anchor4;
pos = (368,622);
},
{
name = Anchor6;
pos = (407,0);
},
{
name = Anchor8;
pos = (375,622);
}
);
layerId = "8680C114-EF70-46E9-96FB-C90A78B2DAE0";
shapes = (
{
closed = 1;
nodes = (
(621,4,o),
(715,94,o),
(715,224,cs),
(715,286,o),
(693,353,o),
(659,401,c),
(541,390,l),
(494,348,o),
(468,331,o),
(429,331,cs),
(407,331,o),
(403,346,o),
(403,369,cs),
(403,458,ls),
(403,502,o),
(422,542,o),
(465,542,cs),
(486,542,o),
(500,532,o),
(500,513,cs),
(500,492,o),
(479,474,o),
(435,474,cs),
(341,474,o),
(270,543,o),
(210,623,c),
(118,557,l),
(183,473,o),
(267,388,o),
(436,388,cs),
(534,388,o),
(614,427,o),
(614,509,cs),
(614,582,o),
(565,628,o),
(471,628,cs),
(354,628,o),
(274,555,o),
(274,421,cs),
(274,375,ls),
(274,311,o),
(290,269,o),
(321,245,cs),
(342,228,o),
(372,220,o),
(409,220,cs),
(488,220,o),
(557,255,o),
(619,321,c),
(539,346,l),
(571,304,o),
(583,270,o),
(583,235,cs),
(583,159,o),
(522,118,o),
(428,118,cs),
(296,118,o),
(205,213,o),
(141,449,c),
(16,414,l),
(103,91,o),
(258,4,o),
(439,4,cs)
);
}
);
width = 751;
},
{
anchors = (
{
name = Anchor4;
pos = (390,622);
},
{
name = Anchor6;
pos = (444,0);
},
{
name = Anchor8;
pos = (361,622);
}
);
layerId = UUID0;
shapes = (
{
closed = 1;
nodes = (
(583,9,o),
(667,99,o),
(667,215,cs),
(667,275,o),
(647,334,o),
(616,383,c),
(546,380,l),
(482,308,o),
(445,282,o),
(399,282,cs),
(367,282,o),
(357,304,o),
(357,337,cs),
(357,438,ls),
(357,508,o),
(392,563,o),
(455,563,cs),
(488,563,o),
(509,547,o),
(509,520,cs),
(509,489,o),
(487,464,o),
(432,464,cs),
(314,464,o),
(243,541,o),
(179,623,c),
(118,582,l),
(185,487,o),
(292,398,o),
(431,398,cs),
(511,398,o),
(584,439,o),
(584,519,cs),
(584,592,o),
(529,629,o),
(456,629,cs),
(364,629,o),
(284,567,o),
(284,443,cs),
(284,352,ls),
(284,279,o),
(301,252,o),
(324,233,cs),
(343,217,o),
(371,209,o),
(402,209,cs),
(456,209,o),
(519,239,o),
(594,333,c),
(548,347,l),
(585,289,o),
(592,254,o),
(592,217,cs),
(592,135,o),
(525,85,o),
(418,85,cs),
(269,85,o),
(179,178,o),
(105,461,c),
(29,440,l),
(117,110,o),
(242,9,o),
(419,9,cs)
);
}
);
width = 723;
},
{
anchors = (
{
name = Anchor4;
pos = (391,622);
},
{
name = Anchor6;
pos = (448,0);
},
{
name = Anchor8;
pos = (351,622);
}
);
layerId = "46A56A9B-0135-45C3-BDA6-6C6C4BC92BD5";
shapes = (
{
closed = 1;
nodes = (
(535,38,o),
(614,116,o),
(614,227,cs),
(614,295,o),
(593,344,o),
(567,385,c),
(540,383,l),
(472,284,o),
(415,271,o),
(369,271,cs),
(325,271,o),
(315,295,o),
(315,357,cs),
(315,423,ls),
(315,544,o),
(366,601,o),
(437,601,cs),
(484,601,o),
(516,578,o),
(516,532,cs),
(516,490,o),
(488,456,o),
(415,456,cs),
(284,456,o),
(211,530,o),
(144,623,c),
(123,607,l),
(200,498,o),
(290,430,o),
(415,430,cs),
(487,430,o),
(543,465,o),
(543,533,cs),
(543,588,o),
(503,627,o),
(436,627,cs),
(361,627,o),
(289,573,o),
(289,433,cs),
(289,356,ls),
(289,309,o),
(296,281,o),
(314,264,cs),
(327,251,o),
(347,245,o),
(369,245,cs),
(417,245,o),
(492,263,o),
(561,368,c),
(545,372,l),
(574,325,o),
(587,280,o),
(587,229,cs),
(587,126,o),
(521,64,o),
(399,64,cs),
(239,64,o),
(151,160,o),
(61,466,c),
(35,459,l),
(130,140,o),
(226,38,o),
(400,38,cs)
);
}
);
width = 682;
},
{
anchors = (
{
name = Anchor4;
pos = (381,622);
},
{
name = Anchor6;
pos = (408,0);
},
{
name = Anchor8;
pos = (396,622);
}
);
layerId = "22409DE3-74E9-441F-9C04-63D5519B89AC";
shapes = (
{
closed = 1;
nodes = (
(663,0,o),
(767,84,o),
(767,224,cs),
(767,290,o),
(744,348,o),
(701,405,c),
(566,388,l),
(536,357,o),
(508,334,o),
(476,334,cs),
(457,334,o),
(450,342,o),
(450,375,cs),
(450,472,ls),
(450,506,o),
(465,528,o),
(488,528,cs),
(503,528,o),
(511,520,o),
(511,509,cs),
(511,494,o),
(496,482,o),
(463,482,cs),
(375,482,o),
(307,544,o),
(249,623,c),
(136,540,l),
(197,463,o),
(288,380,o),
(452,380,cs),
(560,380,o),
(656,418,o),
(656,509,cs),
(656,583,o),
(601,631,o),
(494,631,cs),
(352,631,o),
(279,538,o),
(279,419,cs),
(279,378,ls),
(279,310,o),
(294,271,o),
(319,243,cs),
(347,212,o),
(392,199,o),
(442,199,cs),
(526,199,o),
(599,231,o),
(656,291,c),
(554,324,l),
(581,298,o),
(596,268,o),
(596,236,cs),
(596,172,o),
(534,145,o),
(452,145,cs),
(307,145,o),
(226,233,o),
(174,439,c),
(13,396,l),
(102,81,o),
(280,0,o),
(467,0,cs)
);
}
);
width = 793;
},
{
anchors = (
{
name = Anchor4;
pos = (279,622);
},
{
name = Anchor6;
pos = (319,0);
},
{
name = Anchor8;
pos = (267,622);
}
);
layerId = "F0143EB7-DEA3-4B38-8B70-DEA25CF19AA9";
shapes = (
{
closed = 1;
nodes = (
(441,9,o),
(499,99,o),
(499,213,cs),
(499,272,o),
(479,336,o),
(456,387,c),
(399,382,l),
(359,312,o),
(330,279,o),
(297,279,cs),
(277,279,o),
(271,291,o),
(271,314,cs),
(271,445,ls),
(271,493,o),
(281,566,o),
(328,566,cs),
(354,566,o),
(368,548,o),
(368,518,cs),
(368,483,o),
(350,462,o),
(315,462,cs),
(226,462,o),
(184,526,o),
(137,623,c),
(79,591,l),
(126,496,o),
(201,399,o),
(315,399,cs),
(382,399,o),
(436,440,o),
(436,520,cs),
(436,588,o),
(395,629,o),
(332,629,cs),
(259,629,o),
(202,570,o),
(202,444,cs),
(202,335,ls),
(202,285,o),
(209,256,o),
(228,234,cs),
(242,218,o),
(262,209,o),
(293,209,cs),
(339,209,o),
(388,237,o),
(438,333,c),
(396,346,l),
(418,299,o),
(428,261,o),
(428,212,cs),
(428,123,o),
(383,82,o),
(311,82,cs),
(195,82,o),
(143,175,o),
(88,460,c),
(18,445,l),
(81,114,o),
(159,9,o),
(314,9,cs)
);
}
);
width = 535;
}
);
unicode = 2457;
},
{
glyphname = cabeng;
lastChange = "2020-04-14 07:51:14 +0000";
layers = (
{
anchors = (
{
name = Anchor4;
pos = (248,622);
},
{
name = Anchor6;
pos = (309,0);
},
{
name = Anchor8;
pos = (296,622);
}
);
layerId = "8680C114-EF70-46E9-96FB-C90A78B2DAE0";
shapes = (
{
closed = 1;
nodes = (
(-10,622,l),
(-10,512,l),
(81,512,l),
(81,220,ls),
(81,122,o),
(104,83,o),
(133,58,cs),
(160,34,o),
(195,20,o),
(267,20,cs),
(345,20,o),
(417,52,o),
(470,104,cs),
(521,154,o),
(554,216,o),
(554,297,cs),
(554,327,o),
(544,360,o),
(526,380,cs),
(500,409,o),
(466,422,o),
(396,422,cs),
(376,422,ls),
(305,422,o),
(243,453,o),
(206,513,c),
(198,390,l),
(212,371,o),
(233,353,o),
(258,338,cs),
(298,315,o),
(325,309,o),
(365,309,cs),
(375,309,ls),
(404,309,o),
(424,298,o),
(424,268,cs),
(424,236,o),
(407,205,o),
(378,178,cs),
(343,145,o),
(311,130,o),
(275,130,cs),
(252,130,o),
(238,135,o),
(229,145,cs),
(218,156,o),
(213,173,o),
(213,219,cs),
(213,342,l),
(213,358,o),
(212,374,o),
(211,390,c),
(213,487,l),
(213,512,l),
(603,512,l),
(603,622,l)
);
}
);
width = 593;
},
{
anchors = (
{
name = Anchor4;
pos = (255,622);
},
{
name = Anchor6;
pos = (312,0);
},
{
name = Anchor8;
pos = (283,622);
}
);
layerId = UUID0;
shapes = (
{
closed = 1;
nodes = (
(-10,622,l),
(-10,551,l),
(95,551,l),
(95,191,ls),
(95,117,o),
(110,88,o),
(132,63,cs),
(154,40,o),
(189,24,o),
(238,24,cs),
(308,24,o),
(364,51,o),
(415,95,cs),
(473,145,o),
(517,224,o),
(517,306,cs),
(517,351,o),
(502,384,o),
(472,403,cs),
(451,416,o),
(427,423,o),
(377,423,cs),
(361,423,ls),
(253,423,o),
(212,462,o),
(171,534,c),
(161,447,l),
(177,418,o),
(204,394,o),
(235,377,cs),
(270,359,o),
(301,349,o),
(363,349,cs),
(368,349,ls),
(412,349,o),
(438,340,o),
(438,296,cs),
(438,247,o),
(416,202,o),
(379,162,cs),
(343,124,o),
(297,96,o),
(244,96,cs),
(217,96,o),
(202,102,o),
(189,117,cs),
(180,128,o),
(172,146,o),
(172,205,cs),
(172,378,ls),
(172,406,o),
(170,441,o),
(168,458,c),
(172,521,l),
(172,551,l),
(577,551,l),
(577,622,l)
);
}
);
width = 567;
},
{
anchors = (
{
name = Anchor4;
pos = (259,622);
},
{
name = Anchor6;
pos = (315,0);
},
{
name = Anchor8;
pos = (275,622);
}
);
layerId = "46A56A9B-0135-45C3-BDA6-6C6C4BC92BD5";
shapes = (
{
closed = 1;
nodes = (
(-10,622,l),
(-10,596,l),
(105,596,l),
(105,188,ls),
(105,117,o),
(114,84,o),
(144,60,cs),
(161,47,o),
(185,40,o),
(214,40,cs),
(280,40,o),
(338,71,o),
(383,118,cs),
(437,175,o),
(471,247,o),
(471,329,cs),
(471,366,o),
(461,390,o),
(442,406,cs),
(420,425,o),
(391,433,o),
(341,433,cs),
(334,433,ls),
(209,433,o),
(170,492,o),
(124,580,c),
(115,547,l),
(136,508,o),
(156,477,o),
(182,454,cs),
(218,422,o),
(263,407,o),
(343,407,cs),
(349,407,ls),
(421,407,o),
(444,380,o),
(444,329,cs),
(444,258,o),
(414,186,o),
(364,135,cs),
(324,94,o),
(276,66,o),
(214,66,cs),
(187,66,o),
(168,72,o),
(156,84,cs),
(135,104,o),
(131,136,o),
(131,199,cs),
(131,443,ls),
(131,488,o),
(130,526,o),
(127,544,c),
(131,551,l),
(131,596,l),
(544,596,l),
(544,622,l)
);
}
);
width = 534;
},
{
anchors = (
{
name = Anchor4;
pos = (235,622);
},
{
name = Anchor6;
pos = (299,0);
},
{
name = Anchor8;
pos = (306,622);
}
);
layerId = "22409DE3-74E9-441F-9C04-63D5519B89AC";
shapes = (
{
closed = 1;
nodes = (
(-10,622,l),
(-10,484,l),
(72,484,l),
(72,230,ls),
(72,134,o),
(96,93,o),
(133,61,cs),
(167,31,o),
(219,18,o),
(281,18,cs),
(369,18,o),
(444,51,o),
(500,102,cs),
(551,149,o),
(584,210,o),
(584,282,cs),
(584,327,o),
(570,361,o),
(542,383,cs),
(514,405,o),
(477,414,o),
(419,414,cs),
(391,414,ls),
(308,414,o),
(267,441,o),
(229,493,c),
(207,365,l),
(228,338,o),
(251,317,o),
(277,301,cs),
(307,282,o),
(337,272,o),
(375,272,cs),
(382,272,ls),
(404,272,o),
(411,261,o),
(411,247,cs),
(411,227,o),
(395,202,o),
(369,183,cs),
(348,168,o),
(323,156,o),
(291,156,cs),
(279,156,o),
(268,159,o),
(261,166,cs),
(252,174,o),
(247,185,o),
(247,214,cs),
(247,289,ls),
(247,306,o),
(245,328,o),
(244,342,c),
(243,461,l),
(243,484,l),
(622,484,l),
(622,622,l)
);
}
);
width = 612;
},
{
anchors = (
{
name = Anchor4;
pos = (183,622);
},
{
name = Anchor6;
pos = (220,0);
},
{
name = Anchor8;
pos = (214,622);
}
);
layerId = "F0143EB7-DEA3-4B38-8B70-DEA25CF19AA9";
shapes = (
{
closed = 1;
nodes = (
(-6,622,l),
(-6,554,l),
(68,554,l),
(68,162,ls),
(68,110,o),
(75,82,o),
(97,57,cs),
(115,36,o),
(145,24,o),
(183,24,cs),
(261,24,o),
(313,78,o),
(346,144,cs),
(373,198,o),
(386,257,o),
(386,310,cs),
(386,350,o),
(377,381,o),
(353,401,cs),
(336,415,o),
(311,423,o),
(269,423,cs),
(268,423,ls),
(203,423,o),
(171,465,o),
(136,536,c),
(131,450,l),
(141,425,o),
(155,404,o),
(173,387,cs),
(195,366,o),
(224,353,o),
(261,353,cs),
(263,353,ls),
(295,353,o),
(312,339,o),
(312,302,cs),
(312,259,o),
(298,204,o),
(276,162,cs),
(256,124,o),
(227,92,o),
(186,92,cs),
(170,92,o),
(159,97,o),
(152,105,cs),
(142,117,o),
(139,132,o),
(139,166,cs),
(139,378,ls),
(139,403,o),
(137,438,o),
(136,455,c),
(139,523,l),
(139,554,l),
(435,554,l),
(435,622,l)
);
}
);
width = 429;
}
);
unicode = 2458;
},
{
glyphname = chabeng;
lastChange = "2020-04-14 07:51:14 +0000";
layers = (
{
anchors = (
{
name = Anchor4;
pos = (326,622);
},
{
name = Anchor6;
pos = (402,0);
},
{
name = Anchor8;
pos = (366,622);
}
);
layerId = "8680C114-EF70-46E9-96FB-C90A78B2DAE0";
shapes = (
{
closed = 1;
nodes = (
(680,361,o),
(633,474,o),
(446,474,cs),
(420,474,o),
(398,473,o),
(382,471,c),
(394,378,l),
(404,380,o),
(415,381,o),
(420,381,cs),
(505,381,o),
(549,347,o),
(549,285,cs),
(549,202,o),
(480,146,o),
(305,146,cs),
(247,146,o),
(198,151,o),
(165,157,c),
(152,46,l),
(330,37,o),
(505,11,o),
(698,-56,c),
(733,48,l),
(613,89,o),
(501,108,o),
(391,119,c),
(415,64,l),
(547,76,o),
(680,141,o),
(680,293,cs)
);
},
{
closed = 1;
nodes = (
(382,192,o),
(487,269,o),
(487,370,cs),
(487,412,o),
(465,437,o),
(434,451,cs),
(416,460,o),
(416,471,o),
(398,471,cs),
(312,471,ls),
(243,471,o),
(208,495,o),
(170,538,c),
(153,450,l),
(190,407,o),
(241,378,o),
(299,378,cs),
(326,378,ls),
(348,378,o),
(360,371,o),
(360,356,cs),
(360,327,o),
(311,293,o),
(250,293,cs),
(230,293,o),
(216,297,o),
(208,308,cs),
(203,314,o),
(199,324,o),
(199,350,cs),
(199,380,ls),
(199,391,o),
(198,407,o),
(196,425,c),
(199,488,l),
(199,525,l),
(72,525,l),
(72,362,ls),
(72,296,o),
(83,268,o),
(101,243,cs),
(127,207,o),
(173,192,o),
(241,192,cs)
);
},
{
closed = 1;
nodes = (
(743,512,l),
(743,622,l),
(-10,622,l),
(-10,512,l)
);
}
);
width = 733;
},
{
anchors = (
{
name = Anchor4;
pos = (342,622);
},
{
name = Anchor6;
pos = (419,0);
},
{
name = Anchor8;
pos = (343,622);
}
);
layerId = UUID0;
shapes = (
{
closed = 1;
nodes = (
(615,375,o),
(577,483,o),
(423,483,cs),
(409,483,o),
(385,482,o),
(372,481,c),
(382,416,l),
(392,418,o),
(403,419,o),
(412,419,cs),
(491,419,o),
(538,381,o),
(538,310,cs),
(538,231,o),
(468,152,o),
(290,152,cs),
(231,152,o),
(191,158,o),
(152,166,c),
(143,94,l),
(327,76,o),
(493,35,o),
(649,-49,c),
(684,11,l),
(565,73,o),
(468,104,o),
(359,120,c),
(380,97,l),
(491,108,o),
(615,164,o),
(615,310,cs)
);
},
{
closed = 1;
nodes = (
(353,217,o),
(450,290,o),
(450,388,cs),
(450,427,o),
(428,450,o),
(402,463,cs),
(386,471,o),
(386,481,o),
(372,481,cs),
(323,481,ls),
(235,481,o),
(202,505,o),
(168,544,c),
(155,480,l),
(191,439,o),
(246,413,o),
(316,413,cs),
(322,413,ls),
(354,413,o),
(374,409,o),
(374,384,cs),
(374,342,o),
(318,286,o),
(233,286,cs),
(210,286,o),
(195,290,o),
(184,301,cs),
(174,311,o),
(168,324,o),
(168,359,cs),
(168,420,ls),
(168,442,o),
(167,460,o),
(166,476,c),
(168,521,l),
(168,559,l),
(91,559,l),
(91,359,ls),
(91,296,o),
(105,269,o),
(125,249,cs),
(146,228,o),
(181,217,o),
(227,217,cs)
);
},
{
closed = 1;
nodes = (
(697,551,l),
(697,622,l),
(-10,622,l),
(-10,551,l)
);
}
);
width = 687;
},
{
anchors = (
{
name = Anchor4;
pos = (343,622);
},
{
name = Anchor6;
pos = (422,9);
},
{
name = Anchor8;
pos = (332,622);
}
);
layerId = "46A56A9B-0135-45C3-BDA6-6C6C4BC92BD5";
shapes = (
{
closed = 1;
nodes = (
(568,402,o),
(523,483,o),
(390,483,cs),
(373,483,o),
(348,483,o),
(325,481,c),
(350,456,l),
(361,457,o),
(372,458,o),
(392,458,cs),
(477,458,o),
(541,416,o),
(541,323,cs),
(541,228,o),
(467,136,o),
(270,136,cs),
(240,136,o),
(198,140,o),
(149,149,c),
(146,123,l),
(336,100,o),
(476,63,o),
(628,-24,c),
(642,-1,l),
(519,69,o),
(396,110,o),
(281,120,c),
(289,116,l),
(464,116,o),
(568,200,o),
(568,323,cs)
);
},
{
closed = 1;
nodes = (
(322,245,o),
(403,329,o),
(403,403,cs),
(403,435,o),
(389,458,o),
(355,469,c),
(352,478,o),
(348,481,o),
(346,481,c),
(314,481,ls),
(221,481,o),
(170,511,o),
(123,585,c),
(117,557,l),
(150,495,o),
(213,455,o),
(316,455,cs),
(321,455,ls),
(360,455,o),
(377,434,o),
(377,403,cs),
(377,344,o),
(312,271,o),
(211,271,cs),
(181,271,o),
(163,276,o),
(150,287,cs),
(133,301,o),
(126,322,o),
(126,371,cs),
(126,482,ls),
(126,514,o),
(125,532,o),
(123,550,c),
(126,564,l),
(126,599,l),
(100,599,l),
(100,371,ls),
(100,311,o),
(112,285,o),
(133,267,cs),
(152,251,o),
(179,245,o),
(211,245,cs)
);
},
{
closed = 1;
nodes = (
(653,596,l),
(653,622,l),
(-10,622,l),
(-10,596,l)
);
}
);
width = 643;
},
{
anchors = (
{
name = Anchor4;
pos = (319,622);
},
{
name = Anchor6;
pos = (381,0);
},
{
name = Anchor8;
pos = (382,622);
}
);
layerId = "22409DE3-74E9-441F-9C04-63D5519B89AC";
shapes = (
{
closed = 1;
nodes = (
(708,363,o),
(652,459,o),
(460,459,cs),
(412,459,o),
(383,456,o),
(365,454,c),
(373,347,l),
(385,349,o),
(399,350,o),
(406,350,cs),
(489,350,o),
(532,321,o),
(532,268,cs),
(532,191,o),
(464,147,o),
(304,147,cs),
(234,147,o),
(179,152,o),
(141,157,c),
(129,16,l),
(326,13,o),
(513,-8,o),
(721,-61,c),
(761,78,l),
(662,105,o),
(506,119,o),
(391,123,c),
(422,60,l),
(573,69,o),
(708,127,o),
(708,275,cs)
);
},
{
closed = 1;
nodes = (
(405,176,o),
(512,253,o),
(512,356,cs),
(512,395,o),
(490,413,o),
(459,434,cs),
(440,447,o),
(418,455,o),
(404,455,c),
(322,455,ls),
(243,455,o),
(214,476,o),
(178,524,c),
(161,435,l),
(202,386,o),
(246,348,o),
(309,348,cs),
(330,348,ls),
(340,348,o),
(345,343,o),
(345,337,cs),
(345,316,o),
(305,299,o),
(259,299,cs),
(245,299,o),
(236,301,o),
(230,307,cs),
(225,312,o),
(221,320,o),
(221,342,cs),
(221,355,ls),
(221,362,o),
(221,373,o),
(220,385,c),
(218,463,l),
(218,499,l),
(52,499,l),
(52,356,ls),
(52,287,o),
(64,253,o),
(90,225,cs),
(121,192,o),
(173,176,o),
(251,176,cs)
);
},
{
closed = 1;
nodes = (
(775,484,l),
(775,622,l),
(-10,622,l),
(-10,484,l)
);
}
);
width = 765;
},
{
anchors = (
{
name = Anchor4;
pos = (247,622);
},
{
name = Anchor6;
pos = (300,0);
},
{
name = Anchor8;
pos = (253,622);
}
);
layerId = "F0143EB7-DEA3-4B38-8B70-DEA25CF19AA9";
shapes = (
{
closed = 1;
nodes = (
(462,394,o),
(422,483,o),
(304,483,cs),
(296,483,o),
(278,483,o),
(264,482,c),
(272,422,l),
(281,423,o),
(293,424,o),
(301,424,cs),
(357,424,o),
(391,380,o),
(391,305,cs),
(391,220,o),
(335,152,o),
(218,152,cs),
(181,152,o),
(144,157,o),
(116,164,c),
(104,97,l),
(233,78,o),
(340,51,o),
(479,-34,c),
(512,26,l),
(412,87,o),
(346,106,o),
(268,122,c),
(272,103,l),
(359,112,o),
(462,167,o),
(462,306,cs)
);
},
{
closed = 1;
nodes = (
(261,218,o),
(335,291,o),
(335,389,cs),
(335,418,o),
(321,446,o),
(301,459,cs),
(289,467,o),
(287,482,o),
(276,482,cs),
(234,482,ls),
(173,482,o),
(149,500,o),
(124,549,c),
(115,482,l),
(141,441,o),
(177,416,o),
(227,416,cs),
(232,416,ls),
(254,416,o),
(266,410,o),
(266,385,cs),
(266,343,o),
(228,285,o),
(174,285,cs),
(159,285,o),
(150,288,o),
(144,294,cs),
(134,303,o),
(132,321,o),
(132,351,cs),
(132,419,ls),
(132,437,o),
(131,452,o),
(129,469,c),
(132,523,l),
(132,562,l),
(61,562,l),
(61,349,ls),
(61,292,o),
(68,263,o),
(90,242,cs),
(107,226,o),
(132,218,o),
(169,218,cs)
);
},
{
closed = 1;
nodes = (
(513,554,l),
(513,622,l),
(-6,622,l),
(-6,554,l)
);
}
);
width = 507;
}
);
unicode = 2459;
},
{
glyphname = jabeng;
lastChange = "2020-04-14 07:51:14 +0000";
layers = (
{
anchors = (
{
name = Anchor4;
pos = (663,622);
},
{
name = Anchor6;
pos = (797,0);
},
{
name = Anchor8;
pos = (498,622);
}
);
layerId = "8680C114-EF70-46E9-96FB-C90A78B2DAE0";
shapes = (
{
closed = 1;
nodes = (
(626,30,o),
(695,136,o),
(695,236,cs),
(695,274,o),
(688,310,o),
(679,337,c),
(533,380,l),
(497,353,o),
(473,338,o),
(437,338,cs),
(417,338,o),
(400,350,o),
(400,377,cs),
(400,423,o),
(468,475,o),
(587,516,c),
(622,514,o),
(675,512,o),
(711,512,cs),
(1007,512,l),
(1007,622,l),
(-10,622,l),
(-10,512,l),
(302,512,ls),
(329,512,o),
(347,512,o),
(372,513,c),
(292,466,o),
(268,414,o),
(268,361,cs),
(268,269,o),
(331,228,o),
(418,228,cs),
(517,228,o),
(572,268,o),
(634,324,c),
(542,329,l),
(552,309,o),
(565,281,o),
(565,236,cs),
(565,183,o),
(527,145,o),
(433,145,cs),
(297,145,o),
(210,221,o),
(141,463,c),
(16,428,l),
(102,121,o),
(249,30,o),
(440,30,cs)
);
},
{
closed = 1;
nodes = (
(899,259,o),
(914,308,o),
(939,354,c),
(878,453,l),
(857,451,o),
(845,450,o),
(830,450,cs),
(721,450,o),
(670,485,o),
(646,522,c),
(508,509,l),
(555,425,o),
(638,365,o),
(788,343,c),
(773,301,o),
(766,253,o),
(766,204,cs),
(766,122,o),
(778,61,o),
(803,-11,c),
(932,16,l),
(910,81,o),
(899,144,o),
(899,197,cs)
);
}
);
width = 997;
},
{
anchors = (
{
name = Anchor4;
pos = (672,622);
},
{
name = Anchor6;
pos = (757,0);
},
{
name = Anchor8;
pos = (458,622);
}
);
layerId = UUID0;
shapes = (
{
closed = 1;
nodes = (
(567,63,o),
(630,154,o),
(630,254,cs),
(630,297,o),
(621,338,o),
(609,365,c),
(523,396,l),
(472,352,o),
(438,328,o),
(387,328,cs),
(360,328,o),
(335,343,o),
(335,380,cs),
(335,426,o),
(367,478,o),
(535,554,c),
(558,553,o),
(582,551,o),
(614,551,cs),
(927,551,l),
(927,622,l),
(-10,622,l),
(-10,551,l),
(298,551,ls),
(331,551,o),
(367,551,o),
(394,553,c),
(295,507,o),
(258,442,o),
(258,384,cs),
(258,303,o),
(312,257,o),
(391,257,cs),
(472,257,o),
(534,300,o),
(590,358,c),
(530,358,l),
(541,338,o),
(554,309,o),
(554,268,cs),
(554,181,o),
(502,139,o),
(404,139,cs),
(262,139,o),
(172,238,o),
(105,485,c),
(29,465,l),
(111,165,o),
(244,63,o),
(401,63,cs)
);
},
{
closed = 1;
nodes = (
(801,280,o),
(813,332,o),
(845,392,c),
(806,462,l),
(786,460,o),
(769,459,o),
(751,459,cs),
(637,459,o),
(582,501,o),
(551,559,c),
(475,543,l),
(525,446,o),
(603,389,o),
(755,388,c),
(738,349,o),
(723,293,o),
(723,222,cs),
(723,142,o),
(737,70,o),
(761,-7,c),
(836,10,l),
(811,85,o),
(801,140,o),
(801,205,cs)
);
}
);
width = 917;
},
{
anchors = (
{
name = Anchor4;
pos = (661,622);
},
{
name = Anchor6;
pos = (739,0);
},
{
name = Anchor8;
pos = (435,622);
}
);
layerId = "46A56A9B-0135-45C3-BDA6-6C6C4BC92BD5";
shapes = (
{
closed = 1;
nodes = (
(499,99,o),
(572,162,o),
(572,279,cs),
(572,320,o),
(560,371,o),
(545,400,c),
(516,409,l),
(460,348,o),
(415,327,o),
(364,327,cs),
(304,327,o),
(285,363,o),
(285,406,cs),
(285,466,o),
(333,521,o),
(488,597,c),
(507,596,o),
(547,596,o),
(583,596,cs),
(834,596,l),
(834,622,l),
(-10,622,l),
(-10,596,l),
(330,596,ls),
(382,596,o),
(415,596,o),
(440,597,c),
(321,539,o),
(258,480,o),
(258,407,cs),
(258,342,o),
(297,301,o),
(363,301,cs),
(431,301,o),
(482,334,o),
(536,394,c),
(521,390,l),
(534,363,o),
(545,323,o),
(545,278,cs),
(545,171,o),
(481,125,o),
(378,125,cs),
(238,125,o),
(141,219,o),
(61,484,c),
(35,477,l),
(115,210,o),
(220,99,o),
(379,99,cs)
);
},
{
closed = 1;
nodes = (
(709,313,o),
(726,388,o),
(752,444,c),
(739,464,l),
(730,463,o),
(722,463,o),
(714,463,cs),
(563,463,o),
(521,529,o),
(488,600,c),
(465,590,l),
(512,483,o),
(579,437,o),
(720,437,c),
(700,393,o),
(683,314,o),
(683,235,cs),
(683,142,o),
(699,76,o),
(722,-3,c),
(748,3,l),
(724,84,o),
(709,149,o),
(709,234,cs)
);
}
);
width = 824;
},
{
anchors = (
{
name = Anchor4;
pos = (666,622);
},
{
name = Anchor6;
pos = (813,0);
},
{
name = Anchor8;
pos = (523,622);
}
);
layerId = "22409DE3-74E9-441F-9C04-63D5519B89AC";
shapes = (
{
closed = 1;
nodes = (
(671,18,o),
(744,125,o),
(744,234,cs),
(744,259,o),
(741,287,o),
(733,312,c),
(551,368,l),
(528,352,o),
(506,341,o),
(485,341,cs),
(467,341,o),
(456,350,o),
(456,365,cs),
(456,408,o),
(532,444,o),
(652,490,c),
(721,486,o),
(789,484,o),
(855,484,cs),
(1056,484,l),
(1056,622,l),
(-10,622,l),
(-10,484,l),
(290,484,ls),
(317,484,o),
(351,485,o),
(376,487,c),
(311,445,o),
(281,399,o),
(281,346,cs),
(281,246,o),
(359,208,o),
(456,208,cs),
(549,208,o),
(601,237,o),
(682,306,c),
(548,310,l),
(564,291,o),
(576,265,o),
(576,239,cs),
(576,200,o),
(543,163,o),
(453,163,cs),
(319,163,o),
(225,243,o),
(174,450,c),
(13,407,l),
(95,109,o),
(275,18,o),
(459,18,cs)
);
},
{
closed = 1;
nodes = (
(965,241,o),
(977,289,o),
(1002,340,c),
(929,453,l),
(907,451,o),
(883,450,o),
(875,450,cs),
(771,450,o),
(735,473,o),
(710,507,c),
(540,482,l),
(591,392,o),
(677,339,o),
(809,320,c),
(795,273,o),
(789,222,o),
(789,182,cs),
(789,109,o),
(800,48,o),
(820,-14,c),
(990,21,l),
(974,70,o),
(965,127,o),
(965,170,cs)
);
}
);
width = 1046;
},
{
anchors = (
{
name = Anchor4;
pos = (489,622);
},
{
name = Anchor6;
pos = (553,0);
},
{
name = Anchor8;
pos = (339,622);
}
);
layerId = "F0143EB7-DEA3-4B38-8B70-DEA25CF19AA9";
shapes = (
{
closed = 1;
nodes = (
(422,65,o),
(469,155,o),
(469,257,cs),
(469,298,o),
(461,331,o),
(453,357,c),
(375,383,l),
(346,344,o),
(328,327,o),
(297,327,cs),
(271,327,o),
(258,344,o),
(258,375,cs),
(258,427,o),
(296,480,o),
(399,557,c),
(418,555,o),
(438,554,o),
(464,554,cs),
(685,554,l),
(685,622,l),
(-6,622,l),
(-6,554,l),
(235,554,ls),
(262,554,o),
(281,554,o),
(299,555,c),
(229,502,o),
(187,445,o),
(187,381,cs),
(187,305,o),
(228,260,o),
(295,260,cs),
(358,260,o),
(395,302,o),
(429,358,c),
(377,360,l),
(387,339,o),
(399,300,o),
(399,261,cs),
(399,177,o),
(359,138,o),
(295,138,cs),
(189,138,o),
(134,236,o),
(88,484,c),
(18,469,l),
(71,165,o),
(164,65,o),
(298,65,cs)
);
},
{
closed = 1;
nodes = (
(597,279,o),
(609,339,o),
(636,403,c),
(599,462,l),
(585,460,o),
(570,459,o),
(558,459,cs),
(474,459,o),
(440,506,o),
(421,562,c),
(355,547,l),
(387,447,o),
(456,392,o),
(553,392,c),
(535,347,o),
(526,287,o),
(526,215,cs),
(526,143,o),
(536,71,o),
(557,-7,c),
(626,10,l),
(604,87,o),
(597,139,o),
(597,208,cs)
);
}
);
width = 679;
}
);
unicode = 2460;
},
{
glyphname = jhabeng;
lastChange = "2020-04-14 07:51:14 +0000";
layers = (
{
anchors = (
{
name = Anchor4;
pos = (574,622);
},
{
name = Anchor6;
pos = (411,0);
},
{
name = Anchor8;
pos = (477,622);
}
);
layerId = "8680C114-EF70-46E9-96FB-C90A78B2DAE0";
shapes = (
{
closed = 1;
nodes = (
(-10,622,l),
(-10,512,l),
(415,512,l),
(415,466,l),
(433,495,l),
(291,458,o),
(138,389,o),
(16,321,c),
(66,203,l),
(215,178,o),
(336,108,o),
(411,0,c),
(543,0,l),
(543,622,l)
);
},
{
closed = 1;
nodes = (
(411,204,ls),
(411,171,o),
(413,141,o),
(415,117,c),
(433,128,l),
(364,210,o),
(266,262,o),
(184,278,c),
(270,319,o),
(344,351,o),
(432,377,c),
(411,399,l)
);
},
{
closed = 1;
nodes = (
(767,622,l),
(745,688,l),
(636,688,l),
(636,273,ls),
(636,240,o),
(638,209,o),
(640,186,c),
(658,197,l),
(600,266,o),
(521,313,o),
(448,336,c),
(441,232,l),
(522,196,o),
(589,143,o),
(637,74,c),
(768,74,l),
(768,512,l),
(864,512,l),
(864,622,l)
);
}
);
width = 854;
},
{
anchors = (
{
name = Anchor4;
pos = (561,622);
},
{
name = Anchor6;
pos = (415,0);
},
{
name = Anchor8;
pos = (453,622);
}
);
layerId = UUID0;
shapes = (
{
closed = 1;
nodes = (
(-10,622,l),
(-10,551,l),
(415,551,l),
(415,482,l),
(436,524,l),
(298,481,o),
(164,415,o),
(37,339,c),
(76,243,l),
(222,224,o),
(357,118,o),
(415,0,c),
(492,0,l),
(492,622,l)
);
},
{
closed = 1;
nodes = (
(415,189,l),
(415,146,o),
(417,119,o),
(420,88,c),
(428,90,l),
(379,194,o),
(242,282,o),
(130,304,c),
(226,362,o),
(336,414,o),
(435,446,c),
(415,474,l)
);
},
{
closed = 1;
nodes = (
(698,622,l),
(675,688,l),
(622,688,l),
(622,257,ls),
(622,214,o),
(623,188,o),
(626,157,c),
(634,160,l),
(610,215,o),
(540,286,o),
(483,318,c),
(458,255,l),
(523,212,o),
(582,152,o),
(622,73,c),
(699,73,l),
(699,551,l),
(804,551,l),
(804,622,l)
);
}
);
width = 794;
},
{
anchors = (
{
name = Anchor4;
pos = (570,622);
},
{
name = Anchor6;
pos = (415,0);
},
{
name = Anchor8;
pos = (440,622);
}
);
layerId = "46A56A9B-0135-45C3-BDA6-6C6C4BC92BD5";
shapes = (
{
closed = 1;
nodes = (
(-10,622,l),
(-10,596,l),
(414,596,l),
(414,531,l),
(433,543,l),
(296,492,o),
(165,418,o),
(41,336,c),
(55,302,l),
(215,264,o),
(341,164,o),
(414,0,c),
(440,0,l),
(440,622,l)
);
},
{
closed = 1;
nodes = (
(414,168,l),
(414,108,o),
(416,55,o),
(420,23,c),
(426,23,l),
(357,198,o),
(210,288,o),
(70,325,c),
(183,398,o),
(326,477,o),
(436,517,c),
(414,513,l)
);
},
{
closed = 1;
nodes = (
(633,622,l),
(628,676,l),
(607,676,l),
(607,240,ls),
(607,180,o),
(609,133,o),
(613,95,c),
(619,95,l),
(572,215,o),
(488,287,o),
(434,322,c),
(432,293,l),
(504,241,o),
(565,167,o),
(607,72,c),
(633,72,l),
(633,596,l),
(748,596,l),
(748,622,l)
);
}
);
width = 738;
},
{
anchors = (
{
name = Anchor4;
pos = (580,622);
},
{
name = Anchor6;
pos = (386,0);
},
{
name = Anchor8;
pos = (473,622);
}
);
layerId = "22409DE3-74E9-441F-9C04-63D5519B89AC";
shapes = (
{
closed = 1;
nodes = (
(-10,622,l),
(-10,484,l),
(393,484,l),
(393,442,l),
(408,468,l),
(273,437,o),
(144,393,o),
(14,327,c),
(77,170,l),
(219,143,o),
(303,95,o),
(386,0,c),
(561,0,l),
(561,622,l)
);
},
{
closed = 1;
nodes = (
(386,233,l),
(386,203,o),
(389,167,o),
(392,141,c),
(419,139,l),
(372,199,o),
(282,247,o),
(214,260,c),
(276,290,o),
(334,311,o),
(404,328,c),
(386,358,l)
);
},
{
closed = 1;
nodes = (
(809,622,l),
(785,692,l),
(635,692,l),
(635,308,ls),
(635,280,o),
(638,242,o),
(641,216,c),
(668,214,l),
(627,264,o),
(561,308,o),
(479,331,c),
(449,214,l),
(540,172,o),
(586,134,o),
(635,75,c),
(810,75,l),
(810,484,l),
(895,484,l),
(895,622,l)
);
}
);
width = 885;
},
{
anchors = (
{
name = Anchor4;
pos = (418,622);
},
{
name = Anchor6;
pos = (299,0);
},
{
name = Anchor8;
pos = (334,622);
}
);
layerId = "F0143EB7-DEA3-4B38-8B70-DEA25CF19AA9";
shapes = (
{
closed = 1;
nodes = (
(-6,622,l),
(-6,554,l),
(299,554,l),
(299,481,l),
(314,527,l),
(210,479,o),
(113,411,o),
(23,336,c),
(55,251,l),
(169,219,o),
(252,119,o),
(299,0,c),
(370,0,l),
(370,622,l)
);
},
{
closed = 1;
nodes = (
(299,186,ls),
(299,154,o),
(301,109,o),
(304,79,c),
(309,92,l),
(268,205,o),
(190,275,o),
(103,308,c),
(166,363,o),
(252,416,o),
(320,453,c),
(299,473,l)
);
},
{
closed = 1;
nodes = (
(530,622,l),
(514,688,l),
(460,688,l),
(460,259,ls),
(460,227,o),
(462,182,o),
(465,152,c),
(470,165,l),
(448,227,o),
(408,283,o),
(356,326,c),
(336,263,l),
(386,221,o),
(430,149,o),
(460,73,c),
(531,73,l),
(531,554,l),
(605,554,l),
(605,622,l)
);
}
);
width = 599;
}
);
unicode = 2461;
},
{
glyphname = nyabeng;
lastChange = "2020-04-14 07:51:14 +0000";
layers = (
{
anchors = (
{
name = Anchor4;
pos = (580,622);
},
{
name = Anchor6;
pos = (580,0);
},
{
name = Anchor8;
pos = (535,622);
}
);
layerId = "8680C114-EF70-46E9-96FB-C90A78B2DAE0";
shapes = (
{
closed = 1;
nodes = (
(381,628,o),
(259,495,o),
(259,386,cs),
(259,298,o),
(321,258,o),
(403,258,cs),
(440,258,o),
(465,262,o),
(482,268,c),
(476,375,l),
(463,373,o),
(453,372,o),
(439,372,cs),
(396,372,o),
(389,386,o),
(389,404,cs),
(389,438,o),
(449,518,o),
(520,518,cs),
(540,518,o),
(554,514,o),
(563,504,cs),
(575,493,o),
(580,477,o),
(580,435,cs),
(580,130,l),
(540,170,o),
(507,180,o),
(454,180,cs),
(403,180,o),
(353,166,o),
(291,166,cs),
(226,166,o),
(162,178,o),
(162,277,cs),
(162,315,o),
(167,341,o),
(172,360,c),
(43,377,l),
(37,347,o),
(31,305,o),
(31,271,cs),
(31,79,o),
(158,52,o),
(272,52,cs),
(343,52,o),
(397,67,o),
(471,67,cs),
(534,67,o),
(560,48,o),
(582,0,c),
(712,0,l),
(712,166,ls),
(712,204,o),
(710,233,o),
(706,270,c),
(712,291,l),
(712,426,l),
(709,462,l),
(709,536,o),
(690,571,o),
(665,591,cs),
(634,615,o),
(597,628,o),
(533,628,cs)
);
},
{
closed = 1;
nodes = (
(793,614,o),
(735,585,o),
(682,524,c),
(706,395,l),
(742,467,o),
(795,513,o),
(853,513,cs),
(877,513,o),
(896,505,o),
(896,480,cs),
(896,453,o),
(866,435,o),
(812,426,c),
(836,329,l),
(991,359,o),
(1021,437,o),
(1021,491,cs),
(1021,562,o),
(966,614,o),
(871,614,cs)
);
},
{
closed = 1;
nodes = (
(977,160,o),
(1026,221,o),
(1026,289,cs),
(1026,358,o),
(977,395,o),
(935,413,c),
(831,373,l),
(880,355,o),
(902,331,o),
(902,303,cs),
(902,272,o),
(879,261,o),
(847,261,cs),
(786,261,o),
(728,312,o),
(704,422,c),
(642,340,l),
(689,256,l),
(724,201,o),
(781,160,o),
(866,160,cs)
);
}
);
width = 1070;
},
{
anchors = (
{
name = Anchor4;
pos = (590,622);
},
{
name = Anchor6;
pos = (592,0);
},
{
name = Anchor8;
pos = (509,622);
}
);
layerId = UUID0;
shapes = (
{
closed = 1;
nodes = (
(374,628,o),
(254,499,o),
(254,392,cs),
(254,309,o),
(311,270,o),
(376,270,cs),
(405,270,o),
(427,273,o),
(441,278,c),
(434,348,l),
(419,346,o),
(407,345,o),
(392,345,cs),
(341,345,o),
(333,373,o),
(333,393,cs),
(333,459,o),
(418,557,o),
(514,557,cs),
(540,557,o),
(557,552,o),
(569,542,cs),
(583,529,o),
(590,512,o),
(590,463,cs),
(590,106,l),
(561,146,o),
(518,161,o),
(461,161,cs),
(391,161,o),
(343,144,o),
(276,144,cs),
(202,144,o),
(124,162,o),
(124,280,cs),
(124,319,o),
(130,346,o),
(135,366,c),
(58,377,l),
(52,348,o),
(46,310,o),
(46,278,cs),
(46,97,o),
(182,70,o),
(272,70,cs),
(359,70,o),
(409,87,o),
(481,87,cs),
(541,87,o),
(575,60,o),
(592,0,c),
(667,0,l),
(667,190,ls),
(667,217,o),
(667,247,o),
(661,274,c),
(667,290,l),
(667,475,l),
(664,495,l),
(664,545,o),
(649,573,o),
(625,594,cs),
(598,616,o),
(564,628,o),
(511,628,cs)
);
},
{
closed = 1;
nodes = (
(755,607,o),
(706,576,o),
(657,522,c),
(662,415,l),
(704,488,o),
(758,538,o),
(819,538,cs),
(854,538,o),
(883,521,o),
(883,485,cs),
(883,451,o),
(856,423,o),
(785,412,c),
(802,344,l),
(937,372,o),
(959,443,o),
(959,493,cs),
(959,560,o),
(907,607,o),
(824,607,cs)
);
},
{
closed = 1;
nodes = (
(916,167,o),
(965,225,o),
(965,291,cs),
(965,359,o),
(916,396,o),
(874,413,c),
(818,373,l),
(869,355,o),
(889,329,o),
(889,294,cs),
(889,255,o),
(856,236,o),
(820,236,cs),
(747,236,o),
(690,294,o),
(662,400,c),
(619,348,l),
(660,260,l),
(694,207,o),
(742,167,o),
(823,167,cs)
);
}
);
width = 1019;
},
{
anchors = (
{
name = Anchor4;
pos = (593,622);
},
{
name = Anchor6;
pos = (594,0);
},
{
name = Anchor8;
pos = (495,622);
}
);
layerId = "46A56A9B-0135-45C3-BDA6-6C6C4BC92BD5";
shapes = (
{
closed = 1;
nodes = (
(376,628,o),
(253,504,o),
(253,398,cs),
(253,319,o),
(299,285,o),
(364,285,cs),
(386,285,o),
(401,287,o),
(415,291,c),
(411,316,l),
(396,312,o),
(380,311,o),
(365,311,cs),
(292,311,o),
(280,353,o),
(280,398,cs),
(280,484,o),
(383,602,o),
(498,602,cs),
(527,602,o),
(550,595,o),
(566,582,cs),
(587,564,o),
(595,534,o),
(595,484,cs),
(595,55,l),
(574,108,o),
(536,139,o),
(470,139,cs),
(402,139,o),
(334,118,o),
(254,118,cs),
(169,118,o),
(79,141,o),
(79,281,cs),
(79,314,o),
(85,345,o),
(91,371,c),
(65,375,l),
(58,348,o),
(52,314,o),
(52,281,cs),
(52,124,o),
(159,92,o),
(255,92,cs),
(352,92,o),
(396,113,o),
(471,113,cs),
(550,113,o),
(573,66,o),
(595,0,c),
(621,0,l),
(621,255,ls),
(621,294,o),
(620,328,o),
(618,355,c),
(621,362,l),
(621,462,l),
(621,494,ls),
(621,553,o),
(607,582,o),
(581,603,cs),
(558,622,o),
(526,628,o),
(498,628,cs)
);
},
{
closed = 1;
nodes = (
(721,606,o),
(647,549,o),
(603,457,c),
(608,424,l),
(656,517,o),
(720,580,o),
(792,580,cs),
(847,580,o),
(875,551,o),
(875,506,cs),
(875,454,o),
(839,414,o),
(753,401,c),
(758,375,l),
(879,399,o),
(902,458,o),
(902,509,cs),
(902,561,o),
(864,606,o),
(792,606,cs)
);
},
{
closed = 1;
nodes = (
(867,186,o),
(908,230,o),
(908,293,cs),
(908,361,o),
(855,396,o),
(813,412,c),
(793,395,l),
(847,373,o),
(881,345,o),
(881,293,cs),
(881,241,o),
(851,212,o),
(792,212,cs),
(699,212,o),
(637,296,o),
(610,404,c),
(599,385,l),
(603,365,l),
(630,258,o),
(697,186,o),
(792,186,cs)
);
}
);
width = 962;
},
{
anchors = (
{
name = Anchor4;
pos = (579,622);
},
{
name = Anchor6;
pos = (579,0);
},
{
name = Anchor8;
pos = (560,622);
}
);
layerId = "22409DE3-74E9-441F-9C04-63D5519B89AC";
shapes = (
{
closed = 1;
nodes = (
(399,628,o),
(268,492,o),
(268,382,cs),
(268,290,o),
(334,246,o),
(423,246,cs),
(466,246,o),
(494,250,o),
(519,256,c),
(511,389,l),
(500,387,o),
(487,386,o),
(476,386,cs),
(448,386,o),
(440,396,o),
(440,412,cs),
(440,443,o),
(491,490,o),
(534,490,cs),
(548,490,o),
(560,486,o),
(567,477,cs),
(576,466,o),
(579,450,o),
(579,425,cs),
(579,150,l),
(536,188,o),
(507,195,o),
(461,195,cs),
(415,195,o),
(365,183,o),
(305,183,cs),
(239,183,o),
(201,202,o),
(201,275,cs),
(201,304,o),
(204,330,o),
(210,355,c),
(42,379,l),
(33,346,o),
(28,301,o),
(28,265,cs),
(28,81,o),
(152,41,o),
(279,41,cs),
(359,41,o),
(418,54,o),
(484,54,cs),
(540,54,o),
(559,37,o),
(582,0,c),
(754,0,l),
(754,140,ls),
(754,176,o),
(752,215,o),
(747,247,c),
(754,298,l),
(754,415,l),
(751,437,l),
(751,522,o),
(728,566,o),
(695,591,cs),
(665,614,o),
(630,628,o),
(558,628,cs)
);
},
{
closed = 1;
nodes = (
(827,620,o),
(766,585,o),
(709,526,c),
(743,384,l),
(792,463,o),
(840,497,o),
(884,497,cs),
(901,497,o),
(912,492,o),
(912,476,cs),
(912,455,o),
(885,444,o),
(838,436,c),
(866,321,l),
(1043,357,o),
(1076,426,o),
(1076,493,cs),
(1076,565,o),
(1020,620,o),
(916,620,cs)
);
},
{
closed = 1;
nodes = (
(1027,154,o),
(1080,218,o),
(1080,287,cs),
(1080,355,o),
(1033,390,o),
(989,413,c),
(873,355,l),
(902,340,o),
(919,328,o),
(919,305,cs),
(919,285,o),
(904,277,o),
(878,277,cs),
(823,277,o),
(765,321,o),
(742,431,c),
(670,335,l),
(718,253,l),
(754,196,o),
(816,154,o),
(910,154,cs)
);
}
);
width = 1120;
},
{
anchors = (
{
name = Anchor4;
pos = (425,622);
},
{
name = Anchor6;
pos = (425,0);
},
{
name = Anchor8;
pos = (376,622);
}
);
layerId = "F0143EB7-DEA3-4B38-8B70-DEA25CF19AA9";
shapes = (
{
closed = 1;
nodes = (
(273,628,o),
(190,499,o),
(190,389,cs),
(190,310,o),
(232,271,o),
(287,271,cs),
(309,271,o),
(323,272,o),
(336,277,c),
(329,345,l),
(319,344,o),
(311,343,o),
(303,343,cs),
(267,343,o),
(261,369,o),
(261,393,cs),
(261,461,o),
(318,560,o),
(378,560,cs),
(394,560,o),
(407,554,o),
(414,544,cs),
(423,531,o),
(425,512,o),
(425,473,cs),
(425,108,l),
(394,148,o),
(368,157,o),
(334,157,cs),
(293,157,o),
(254,142,o),
(206,142,cs),
(148,142,o),
(108,167,o),
(108,260,cs),
(108,284,o),
(111,319,o),
(117,345,c),
(48,355,l),
(40,320,o),
(37,288,o),
(37,260,cs),
(37,108,o),
(130,71,o),
(197,71,cs),
(260,71,o),
(295,86,o),
(343,86,cs),
(391,86,o),
(412,55,o),
(427,0,c),
(496,0,l),
(496,194,ls),
(496,221,o),
(494,249,o),
(491,274,c),
(496,289,l),
(496,479,l),
(494,499,l),
(492,546,o),
(484,579,o),
(464,599,cs),
(445,618,o),
(420,628,o),
(382,628,cs)
);
},
{
closed = 1;
nodes = (
(552,607,o),
(513,574,o),
(469,512,c),
(481,420,l),
(516,491,o),
(555,541,o),
(596,541,cs),
(627,541,o),
(642,522,o),
(642,493,cs),
(642,451,o),
(619,427,o),
(566,408,c),
(590,346,l),
(684,383,o),
(712,443,o),
(712,497,cs),
(712,561,o),
(672,607,o),
(609,607,cs)
);
},
{
closed = 1;
nodes = (
(681,168,o),
(714,226,o),
(714,282,cs),
(714,348,o),
(683,380,o),
(640,414,c),
(588,374,l),
(623,350,o),
(644,328,o),
(644,288,cs),
(644,259,o),
(630,234,o),
(599,234,cs),
(552,234,o),
(504,290,o),
(481,395,c),
(453,322,l),
(477,274,l),
(503,211,o),
(545,168,o),
(612,168,cs)
);
}
);
width = 752;
}
);
unicode = 2462;
},
{
glyphname = ttabeng;
lastChange = "2020-04-14 07:51:14 +0000";
layers = (
{
anchors = (
{
name = Anchor6;
pos = (309,0);
},
{
name = Anchor8;
pos = (296,622);
}
);
layerId = "8680C114-EF70-46E9-96FB-C90A78B2DAE0";
shapes = (
{
closed = 1;
nodes = (
(-10,622,l),
(-10,512,l),
(81,512,l),
(81,220,ls),
(81,122,o),
(104,83,o),
(132,59,cs),
(160,34,o),
(195,20,o),
(267,20,cs),
(345,20,o),
(417,52,o),
(470,104,cs),
(521,154,o),
(554,218,o),
(554,292,cs),
(554,367,o),
(512,426,o),
(407,426,cs),
(368,426,o),
(341,421,o),
(312,415,c),
(330,307,l),
(342,309,o),
(356,311,o),
(373,311,cs),
(409,311,o),
(424,293,o),
(424,268,cs),
(424,236,o),
(407,205,o),
(378,178,cs),
(343,145,o),
(311,130,o),
(275,130,cs),
(252,130,o),
(238,135,o),
(229,145,cs),
(218,156,o),
(213,173,o),
(213,219,cs),
(213,512,l),
(603,512,l),
(603,622,l)
);
},
{
closed = 1;
nodes = (
(505,622,l),
(503,684,o),
(489,724,o),
(464,749,cs),
(432,780,o),
(391,790,o),
(312,790,cs),
(233,790,ls),
(182,790,o),
(164,797,o),
(150,810,cs),
(135,824,o),
(130,847,o),
(130,875,cs),
(130,883,o),
(131,892,o),
(132,904,c),
(7,912,l),
(3,888,o),
(2,874,o),
(2,854,cs),
(2,805,o),
(13,767,o),
(38,739,cs),
(74,699,o),
(135,680,o),
(236,680,cs),
(311,680,ls),
(361,680,o),
(378,663,o),
(380,622,c)
);
}
);
width = 593;
},
{
anchors = (
{
name = Anchor6;
pos = (312,0);
},
{
name = Anchor8;
pos = (283,622);
}
);
layerId = UUID0;
shapes = (
{
closed = 1;
nodes = (
(-10,622,l),
(-10,551,l),
(95,551,l),
(95,191,ls),
(95,117,o),
(110,88,o),
(132,63,cs),
(155,40,o),
(189,24,o),
(239,24,cs),
(308,24,o),
(365,52,o),
(415,95,cs),
(473,146,o),
(517,224,o),
(517,303,cs),
(517,398,o),
(463,439,o),
(389,439,cs),
(358,439,o),
(331,435,o),
(306,428,c),
(317,357,l),
(334,361,o),
(354,364,o),
(370,364,cs),
(419,364,o),
(439,341,o),
(439,299,cs),
(439,251,o),
(417,203,o),
(379,162,cs),
(344,124,o),
(296,96,o),
(244,96,cs),
(217,96,o),
(202,102,o),
(189,117,cs),
(180,128,o),
(172,146,o),
(172,205,cs),
(172,551,l),
(577,551,l),
(577,622,l)
);
},
{
closed = 1;
nodes = (
(467,622,l),
(465,677,o),
(454,712,o),
(431,734,cs),
(402,762,o),
(365,771,o),
(294,771,cs),
(216,771,ls),
(150,771,o),
(119,781,o),
(100,802,cs),
(86,817,o),
(81,840,o),
(81,869,cs),
(81,882,o),
(82,892,o),
(85,907,c),
(11,912,l),
(8,892,o),
(6,876,o),
(6,859,cs),
(6,805,o),
(24,763,o),
(60,736,cs),
(93,711,o),
(134,699,o),
(221,699,cs),
(315,699,ls),
(371,699,o),
(393,677,o),
(395,622,c)
);
}
);
width = 567;
},
{
anchors = (
{
name = Anchor6;
pos = (315,0);
},
{
name = Anchor8;
pos = (275,622);
}
);
layerId = "46A56A9B-0135-45C3-BDA6-6C6C4BC92BD5";
shapes = (
{
closed = 1;
nodes = (
(-10,622,l),
(-10,596,l),
(105,596,l),
(105,188,ls),
(105,117,o),
(114,84,o),
(144,60,cs),
(161,47,o),
(185,40,o),
(214,40,cs),
(280,40,o),
(338,71,o),
(383,118,cs),
(437,175,o),
(471,255,o),
(471,329,cs),
(471,421,o),
(409,450,o),
(358,450,cs),
(338,450,o),
(311,447,o),
(289,440,c),
(295,415,l),
(315,421,o),
(337,424,o),
(357,424,cs),
(418,424,o),
(444,385,o),
(444,329,cs),
(444,257,o),
(414,186,o),
(364,135,cs),
(324,94,o),
(275,66,o),
(214,66,cs),
(187,66,o),
(168,72,o),
(156,84,cs),
(135,104,o),
(131,136,o),
(131,198,cs),
(131,596,l),
(544,596,l),
(544,622,l)
);
},
{
closed = 1;
nodes = (
(425,622,l),
(422,679,o),
(406,713,o),
(374,733,cs),
(353,746,o),
(328,752,o),
(285,752,cs),
(194,752,ls),
(120,752,o),
(83,759,o),
(60,785,cs),
(45,802,o),
(37,828,o),
(37,863,cs),
(37,877,o),
(38,893,o),
(41,910,c),
(14,912,l),
(11,895,o),
(10,878,o),
(10,862,cs),
(10,825,o),
(19,795,o),
(35,774,cs),
(66,734,o),
(121,726,o),
(196,726,cs),
(286,726,ls),
(375,726,o),
(395,690,o),
(399,622,c)
);
}
);
width = 534;
},
{
anchors = (
{
name = Anchor6;
pos = (299,0);
},
{
name = Anchor8;
pos = (306,622);
}
);
layerId = "22409DE3-74E9-441F-9C04-63D5519B89AC";
shapes = (
{
closed = 1;
nodes = (
(-10,622,l),
(-10,484,l),
(72,484,l),
(72,230,ls),
(72,134,o),
(96,93,o),
(133,61,cs),
(167,31,o),
(219,18,o),
(281,18,cs),
(369,18,o),
(444,51,o),
(500,102,cs),
(551,149,o),
(584,210,o),
(584,282,cs),
(584,347,o),
(552,422,o),
(420,422,cs),
(380,422,o),
(348,416,o),
(318,409,c),
(340,270,l),
(352,272,o),
(365,274,o),
(379,274,cs),
(402,274,o),
(414,265,o),
(414,247,cs),
(414,226,o),
(393,201,o),
(372,186,cs),
(348,169,o),
(323,156,o),
(291,156,cs),
(279,156,o),
(268,159,o),
(261,166,cs),
(252,174,o),
(247,185,o),
(247,214,cs),
(247,484,l),
(622,484,l),
(622,622,l)
);
},
{
closed = 1;
nodes = (
(535,622,l),
(531,698,o),
(516,745,o),
(481,774,cs),
(445,803,o),
(405,812,o),
(324,812,cs),
(266,812,ls),
(218,812,o),
(199,815,o),
(185,826,cs),
(172,836,o),
(167,851,o),
(167,877,cs),
(167,883,o),
(168,893,o),
(170,905,c),
(5,915,l),
(1,891,o),
(-1,872,o),
(-1,853,cs),
(-1,799,o),
(11,760,o),
(35,733,cs),
(74,689,o),
(136,675,o),
(251,675,cs),
(310,675,ls),
(354,675,o),
(365,659,o),
(368,622,c)
);
}
);
width = 612;
},
{
anchors = (
{
name = Anchor6;
pos = (220,0);
},
{
name = Anchor8;
pos = (214,622);
}
);
layerId = "F0143EB7-DEA3-4B38-8B70-DEA25CF19AA9";
shapes = (
{
closed = 1;
nodes = (
(-6,622,l),
(-6,554,l),
(68,554,l),
(68,161,ls),
(68,110,o),
(75,82,o),
(97,57,cs),
(115,36,o),
(145,24,o),
(183,24,cs),
(262,24,o),
(313,78,o),
(346,144,cs),
(370,192,o),
(385,257,o),
(385,312,cs),
(385,395,o),
(349,439,o),
(274,439,cs),
(251,439,o),
(226,435,o),
(209,430,c),
(220,362,l),
(232,365,o),
(246,367,o),
(259,367,cs),
(300,367,o),
(311,341,o),
(311,307,cs),
(311,260,o),
(299,206,o),
(278,166,cs),
(255,122,o),
(226,92,o),
(186,92,cs),
(170,92,o),
(159,97,o),
(152,105,cs),
(142,117,o),
(139,132,o),
(139,166,cs),
(139,554,l),
(435,554,l),
(435,622,l)
);
},
{
closed = 1;
nodes = (
(356,622,l),
(354,681,o),
(346,716,o),
(320,741,cs),
(299,761,o),
(271,771,o),
(214,771,cs),
(182,771,ls),
(135,771,o),
(114,778,o),
(98,792,cs),
(79,808,o),
(73,834,o),
(73,866,cs),
(73,879,o),
(74,892,o),
(76,907,c),
(9,912,l),
(6,896,o),
(4,877,o),
(4,859,cs),
(4,808,o),
(17,766,o),
(48,739,cs),
(76,715,o),
(116,702,o),
(185,702,cs),
(215,702,ls),
(272,702,o),
(286,673,o),
(289,622,c)
);
}
);
width = 429;
}
);
unicode = 2463;
},
{
glyphname = tthabeng;
lastChange = "2020-04-14 07:51:14 +0000";
layers = (
{
anchors = (
{
name = Anchor6;
pos = (341,0);
},
{
name = Anchor8;
pos = (317,622);
}
);
layerId = "8680C114-EF70-46E9-96FB-C90A78B2DAE0";
shapes = (
{
closed = 1;
nodes = (
(494,0,o),
(589,91,o),
(589,241,cs),
(589,337,o),
(549,427,o),
(463,514,c),
(483,512,o),
(498,512,o),
(524,512,cs),
(644,512,l),
(644,622,l),
(338,622,l),
(288,672,o),
(259,706,o),
(259,741,cs),
(259,771,o),
(272,794,o),
(312,825,c),
(216,917,l),
(159,875,o),
(127,832,o),
(127,776,cs),
(127,726,o),
(150,681,o),
(199,622,c),
(-10,622,l),
(-10,512,l),
(253,512,l),
(264,485,o),
(264,458,o),
(264,438,cs),
(264,353,o),
(218,285,o),
(56,266,c),
(22,151,l),
(73,66,o),
(178,0,o),
(308,0,cs)
);
},
{
closed = 1;
nodes = (
(233,114,o),
(159,151,o),
(138,227,c),
(125,159,l),
(323,202,o),
(376,291,o),
(376,399,cs),
(376,447,o),
(357,498,o),
(344,531,c),
(315,524,l),
(417,415,o),
(453,335,o),
(453,247,cs),
(453,158,o),
(392,114,o),
(305,114,cs)
);
}
);
width = 634;
},
{
anchors = (
{
name = Anchor6;
pos = (341,0);
},
{
name = Anchor8;
pos = (295,622);
}
);
layerId = UUID0;
shapes = (
{
closed = 1;
nodes = (
(439,0,o),
(529,98,o),
(529,240,cs),
(529,363,o),
(462,456,o),
(365,553,c),
(385,551,o),
(401,551,o),
(427,551,cs),
(601,551,l),
(601,622,l),
(291,622,l),
(240,680,o),
(208,722,o),
(208,764,cs),
(208,803,o),
(226,828,o),
(269,861,c),
(218,917,l),
(161,875,o),
(129,832,o),
(129,776,cs),
(129,726,o),
(157,680,o),
(200,622,c),
(-10,622,l),
(-10,551,l),
(242,551,l),
(257,516,o),
(263,478,o),
(263,448,cs),
(263,344,o),
(221,263,o),
(58,247,c),
(36,168,l),
(73,69,o),
(162,0,o),
(282,0,cs)
);
},
{
closed = 1;
nodes = (
(199,74,o),
(119,122,o),
(100,229,c),
(86,168,l),
(284,206,o),
(333,306,o),
(333,406,cs),
(333,458,o),
(322,495,o),
(309,532,c),
(293,536,l),
(409,415,o),
(448,336,o),
(448,244,cs),
(448,155,o),
(396,74,o),
(280,74,cs)
);
}
);
width = 591;
},
{
anchors = (
{
name = Anchor6;
pos = (342,0);
},
{
name = Anchor8;
pos = (284,622);
}
);
layerId = "46A56A9B-0135-45C3-BDA6-6C6C4BC92BD5";
shapes = (
{
closed = 1;
nodes = (
(408,0,o),
(477,103,o),
(477,232,cs),
(477,364,o),
(393,476,o),
(264,598,c),
(284,596,o),
(301,596,o),
(327,596,cs),
(554,596,l),
(554,622,l),
(238,622,l),
(177,697,o),
(156,732,o),
(156,776,cs),
(156,822,o),
(174,849,o),
(236,898,c),
(220,917,l),
(157,867,o),
(129,832,o),
(129,777,cs),
(129,729,o),
(153,686,o),
(207,622,c),
(-10,622,l),
(-10,596,l),
(221,596,l),
(242,560,o),
(263,496,o),
(263,421,cs),
(263,324,o),
(222,224,o),
(49,210,c),
(42,180,l),
(72,71,o),
(142,0,o),
(259,0,cs)
);
},
{
closed = 1;
nodes = (
(173,26,o),
(94,73,o),
(65,194,c),
(51,185,l),
(239,200,o),
(289,312,o),
(289,421,cs),
(289,480,o),
(270,551,o),
(245,597,c),
(251,583,l),
(387,438,o),
(450,350,o),
(450,231,cs),
(450,125,o),
(401,26,o),
(259,26,cs)
);
}
);
width = 544;
},
{
anchors = (
{
name = Anchor6;
pos = (335,0);
},
{
name = Anchor8;
pos = (330,622);
}
);
layerId = "22409DE3-74E9-441F-9C04-63D5519B89AC";
shapes = (
{
closed = 1;
nodes = (
(519,0,o),
(620,86,o),
(620,237,cs),
(620,323,o),
(591,399,o),
(512,486,c),
(532,485,o),
(547,484,o),
(576,484,cs),
(670,484,l),
(670,622,l),
(370,622,l),
(317,665,o),
(288,694,o),
(288,727,cs),
(288,751,o),
(295,768,o),
(331,801,c),
(209,917,l),
(152,875,o),
(116,832,o),
(116,771,cs),
(116,726,o),
(136,682,o),
(193,622,c),
(-10,622,l),
(-10,484,l),
(240,484,l),
(245,465,o),
(246,447,o),
(246,437,cs),
(246,360,o),
(201,299,o),
(60,286,c),
(16,142,l),
(83,67,o),
(194,0,o),
(335,0,cs)
);
},
{
closed = 1;
nodes = (
(241,142,o),
(196,187,o),
(161,232,c),
(139,154,l),
(331,197,o),
(391,275,o),
(391,399,cs),
(391,439,o),
(369,498,o),
(348,530,c),
(316,523,l),
(401,429,o),
(441,354,o),
(441,264,cs),
(441,169,o),
(379,142,o),
(325,142,cs)
);
}
);
width = 660;
},
{
anchors = (
{
name = Anchor6;
pos = (246,0);
},
{
name = Anchor8;
pos = (222,622);
}
);
layerId = "F0143EB7-DEA3-4B38-8B70-DEA25CF19AA9";
shapes = (
{
closed = 1;
nodes = (
(341,0,o),
(401,90,o),
(401,225,cs),
(401,352,o),
(349,450,o),
(274,556,c),
(288,554,o),
(304,554,o),
(322,554,cs),
(451,554,l),
(451,622,l),
(224,622,l),
(185,679,o),
(163,723,o),
(163,765,cs),
(163,803,o),
(185,831,o),
(222,863,c),
(170,917,l),
(120,872,o),
(90,832,o),
(90,776,cs),
(90,726,o),
(113,680,o),
(146,622,c),
(-6,622,l),
(-6,554,l),
(173,554,l),
(184,519,o),
(188,479,o),
(188,449,cs),
(188,335,o),
(161,262,o),
(46,246,c),
(23,167,l),
(52,69,o),
(115,0,o),
(213,0,cs)
);
},
{
closed = 1;
nodes = (
(145,70,o),
(93,129,o),
(82,229,c),
(75,168,l),
(216,206,o),
(253,300,o),
(253,406,cs),
(253,447,o),
(242,500,o),
(225,538,c),
(219,543,l),
(301,416,o),
(328,340,o),
(328,234,cs),
(328,134,o),
(293,70,o),
(212,70,cs)
);
}
);
width = 445;
}
);
unicode = 2464;
},
{
glyphname = ddabeng;
lastChange = "2020-04-14 07:51:14 +0000";
layers = (
{
anchors = (
{
name = Anchor4;
pos = (382,622);
},
{
name = Anchor6;
pos = (425,0);
},
{
name = Anchor8;
pos = (370,622);
}
);
layerId = "8680C114-EF70-46E9-96FB-C90A78B2DAE0";
shapes = (
{
closed = 1;
nodes = (
(-10,622,l),
(-10,512,l),
(271,512,l),
(271,400,ls),
(271,337,o),
(282,299,o),
(305,274,cs),
(327,249,o),
(361,236,o),
(404,236,cs),
(483,236,o),
(557,279,o),
(629,376,c),
(527,368,l),
(551,339,o),
(573,309,o),
(573,257,cs),
(573,179,o),
(518,134,o),
(422,134,cs),
(299,134,o),
(207,224,o),
(141,463,c),
(16,428,l),
(103,107,o),
(258,20,o),
(433,20,cs),
(611,20,o),
(704,114,o),
(704,240,cs),
(704,316,o),
(681,379,o),
(636,445,c),
(519,423,l),
(487,378,o),
(455,347,o),
(429,347,cs),
(408,347,o),
(403,363,o),
(403,383,cs),
(403,512,l),
(751,512,l),
(751,622,l)
);
}
);
width = 741;
},
{
anchors = (
{
name = Anchor4;
pos = (366,622);
},
{
name = Anchor6;
pos = (434,0);
},
{
name = Anchor8;
pos = (356,622);
}
);
layerId = UUID0;
shapes = (
{
closed = 1;
nodes = (
(-10,622,l),
(-10,551,l),
(279,551,l),
(279,393,ls),
(279,313,o),
(296,287,o),
(317,268,cs),
(336,251,o),
(363,242,o),
(394,242,cs),
(455,242,o),
(521,290,o),
(581,392,c),
(535,373,l),
(562,345,o),
(580,303,o),
(580,243,cs),
(580,159,o),
(519,100,o),
(413,100,cs),
(267,100,o),
(177,207,o),
(105,485,c),
(29,465,l),
(114,138,o),
(241,24,o),
(417,24,cs),
(571,24,o),
(656,119,o),
(656,245,cs),
(656,312,o),
(632,379,o),
(589,442,c),
(529,433,l),
(472,350,o),
(431,316,o),
(393,316,cs),
(367,316,o),
(356,333,o),
(356,372,cs),
(356,551,l),
(722,551,l),
(722,622,l)
);
}
);
width = 712;
},
{
anchors = (
{
name = Anchor4;
pos = (373,622);
},
{
name = Anchor6;
pos = (439,6);
},
{
name = Anchor8;
pos = (348,622);
}
);
layerId = "46A56A9B-0135-45C3-BDA6-6C6C4BC92BD5";
shapes = (
{
closed = 1;
nodes = (
(-10,622,l),
(-10,596,l),
(288,596,l),
(288,390,ls),
(288,343,o),
(295,315,o),
(313,298,cs),
(326,285,o),
(346,279,o),
(368,279,cs),
(420,279,o),
(483,311,o),
(544,429,c),
(530,433,l),
(566,381,o),
(582,319,o),
(582,262,cs),
(582,153,o),
(520,79,o),
(394,79,cs),
(238,79,o),
(151,190,o),
(61,487,c),
(35,480,l),
(130,170,o),
(226,53,o),
(394,53,cs),
(535,53,o),
(609,143,o),
(609,262,cs),
(609,332,o),
(588,395,o),
(550,449,c),
(524,445,l),
(465,333,o),
(414,305,o),
(368,305,cs),
(324,305,o),
(314,329,o),
(314,391,cs),
(314,596,l),
(689,596,l),
(689,622,l)
);
}
);
width = 679;
},
{
anchors = (
{
name = Anchor4;
pos = (380,622);
},
{
name = Anchor6;
pos = (427,0);
},
{
name = Anchor8;
pos = (391,622);
}
);
layerId = "22409DE3-74E9-441F-9C04-63D5519B89AC";
shapes = (
{
closed = 1;
nodes = (
(-10,622,l),
(-10,484,l),
(275,484,l),
(275,397,ls),
(275,338,o),
(289,299,o),
(314,271,cs),
(342,240,o),
(387,227,o),
(442,227,cs),
(530,227,o),
(601,262,o),
(685,360,c),
(530,353,l),
(557,332,o),
(583,297,o),
(583,255,cs),
(583,191,o),
(524,162,o),
(443,162,cs),
(320,162,o),
(229,234,o),
(174,450,c),
(13,407,l),
(100,98,o),
(280,17,o),
(459,17,cs),
(657,17,o),
(754,110,o),
(754,238,cs),
(754,316,o),
(728,372,o),
(677,443,c),
(547,421,l),
(526,383,o),
(501,362,o),
(476,362,cs),
(457,362,o),
(450,373,o),
(450,396,cs),
(450,484,l),
(792,484,l),
(792,622,l)
);
}
);
width = 782;
},
{
anchors = (
{
name = Anchor4;
pos = (267,622);
},
{
name = Anchor6;
pos = (310,0);
},
{
name = Anchor8;
pos = (262,622);
}
);
layerId = "F0143EB7-DEA3-4B38-8B70-DEA25CF19AA9";
shapes = (
{
closed = 1;
nodes = (
(-6,622,l),
(-6,554,l),
(198,554,l),
(198,369,ls),
(198,315,o),
(206,290,o),
(224,270,cs),
(238,254,o),
(262,245,o),
(287,245,cs),
(339,245,o),
(385,282,o),
(428,394,c),
(388,379,l),
(405,338,o),
(414,299,o),
(414,243,cs),
(414,145,o),
(372,97,o),
(304,97,cs),
(196,97,o),
(142,193,o),
(88,484,c),
(18,469,l),
(82,125,o),
(164,24,o),
(306,24,cs),
(420,24,o),
(485,108,o),
(485,245,cs),
(485,313,o),
(467,376,o),
(440,438,c),
(378,429,l),
(352,353,o),
(316,315,o),
(292,315,cs),
(276,315,o),
(269,327,o),
(269,350,cs),
(269,554,l),
(531,554,l),
(531,622,l)
);
}
);
width = 525;
}
);
unicode = 2465;
},
{
glyphname = ddhabeng;
lastChange = "2020-04-14 07:51:14 +0000";
layers = (
{
anchors = (
{
name = Anchor4;
pos = (248,622);
},
{
name = Anchor6;
pos = (309,0);
},
{
name = Anchor8;
pos = (296,622);
}
);
layerId = "8680C114-EF70-46E9-96FB-C90A78B2DAE0";
shapes = (
{
closed = 1;
nodes = (
(-10,622,l),
(-10,512,l),
(81,512,l),
(81,220,ls),
(81,122,o),
(104,83,o),
(132,59,cs),
(160,34,o),
(195,20,o),
(267,20,cs),
(345,20,o),
(417,52,o),
(470,104,cs),
(521,154,o),
(554,218,o),
(554,292,cs),
(554,367,o),
(512,426,o),
(407,426,cs),
(368,426,o),
(341,421,o),
(312,415,c),
(330,307,l),
(342,309,o),
(356,311,o),
(373,311,cs),
(409,311,o),
(424,293,o),
(424,268,cs),
(424,236,o),
(407,205,o),
(378,178,cs),
(343,145,o),
(311,130,o),
(275,130,cs),
(252,130,o),
(238,135,o),
(229,145,cs),
(218,156,o),
(213,173,o),
(213,219,cs),
(213,512,l),
(603,512,l),
(603,622,l)
);
}
);
width = 593;
},
{
anchors = (
{
name = Anchor4;
pos = (255,622);
},
{
name = Anchor6;
pos = (312,0);
},
{
name = Anchor8;
pos = (283,622);
}
);
layerId = UUID0;
shapes = (
{
closed = 1;
nodes = (
(-10,622,l),
(-10,551,l),
(95,551,l),
(95,191,ls),
(95,117,o),
(110,88,o),
(132,63,cs),
(155,40,o),
(189,24,o),
(239,24,cs),
(308,24,o),
(365,52,o),
(415,95,cs),
(473,146,o),
(517,224,o),
(517,303,cs),
(517,398,o),
(463,439,o),
(389,439,cs),
(358,439,o),
(331,435,o),
(306,428,c),
(317,357,l),
(334,361,o),
(354,364,o),
(370,364,cs),
(419,364,o),
(439,341,o),
(439,299,cs),
(439,251,o),
(417,203,o),
(379,162,cs),
(344,124,o),
(296,96,o),
(244,96,cs),
(217,96,o),
(202,102,o),
(189,117,cs),
(180,128,o),
(172,146,o),
(172,205,cs),
(172,551,l),
(577,551,l),
(577,622,l)
);
}
);
width = 567;
},
{
anchors = (
{
name = Anchor4;
pos = (259,622);
},
{
name = Anchor6;
pos = (315,0);
},
{
name = Anchor8;
pos = (275,622);
}
);
layerId = "46A56A9B-0135-45C3-BDA6-6C6C4BC92BD5";
shapes = (
{
closed = 1;
nodes = (
(-10,622,l),
(-10,596,l),
(105,596,l),
(105,188,ls),
(105,117,o),
(114,84,o),
(144,60,cs),
(161,47,o),
(185,40,o),
(214,40,cs),
(280,40,o),
(338,71,o),
(383,118,cs),
(437,175,o),
(471,255,o),
(471,329,cs),
(471,421,o),
(409,450,o),
(358,450,cs),
(338,450,o),
(311,447,o),
(289,440,c),
(295,415,l),
(315,421,o),
(337,424,o),
(357,424,cs),
(418,424,o),
(444,385,o),
(444,329,cs),
(444,257,o),
(414,186,o),
(364,135,cs),
(324,94,o),
(275,66,o),
(214,66,cs),
(187,66,o),
(168,72,o),
(156,84,cs),
(135,104,o),
(131,136,o),
(131,198,cs),
(131,596,l),
(544,596,l),
(544,622,l)
);
}
);
width = 534;
},
{
anchors = (
{
name = Anchor4;
pos = (235,622);
},
{
name = Anchor6;
pos = (299,0);
},
{
name = Anchor8;
pos = (306,622);
}
);
layerId = "22409DE3-74E9-441F-9C04-63D5519B89AC";
shapes = (
{
closed = 1;
nodes = (
(-10,622,l),
(-10,484,l),
(72,484,l),
(72,230,ls),
(72,134,o),
(96,93,o),
(133,61,cs),
(167,31,o),
(219,18,o),
(281,18,cs),
(369,18,o),
(444,51,o),
(500,102,cs),
(551,149,o),
(584,210,o),
(584,282,cs),
(584,347,o),
(552,422,o),
(420,422,cs),
(380,422,o),
(348,416,o),
(318,409,c),
(340,270,l),
(352,272,o),
(365,274,o),
(379,274,cs),
(402,274,o),
(414,265,o),
(414,247,cs),
(414,226,o),
(393,201,o),
(372,186,cs),
(348,169,o),
(323,156,o),
(291,156,cs),
(279,156,o),
(268,159,o),
(261,166,cs),
(252,174,o),
(247,185,o),
(247,214,cs),
(247,484,l),
(622,484,l),
(622,622,l)
);
}
);
width = 612;
},
{
anchors = (
{
name = Anchor4;
pos = (183,622);
},
{
name = Anchor6;
pos = (220,0);
},
{
name = Anchor8;
pos = (214,622);
}
);
layerId = "F0143EB7-DEA3-4B38-8B70-DEA25CF19AA9";
shapes = (
{
closed = 1;
nodes = (
(-6,622,l),
(-6,554,l),
(68,554,l),
(68,161,ls),
(68,110,o),
(75,82,o),
(97,57,cs),
(115,36,o),
(145,24,o),
(183,24,cs),
(262,24,o),
(313,78,o),
(346,144,cs),
(370,192,o),
(385,257,o),
(385,312,cs),
(385,395,o),
(349,439,o),
(274,439,cs),
(251,439,o),
(226,435,o),
(209,430,c),
(220,362,l),
(232,365,o),
(246,367,o),
(259,367,cs),
(300,367,o),
(311,341,o),
(311,307,cs),
(311,260,o),
(299,206,o),
(278,166,cs),
(255,122,o),
(226,92,o),
(186,92,cs),
(170,92,o),
(159,97,o),
(152,105,cs),
(142,117,o),
(139,132,o),
(139,166,cs),
(139,554,l),
(435,554,l),
(435,622,l)
);
}
);
width = 429;
}
);
unicode = 2466;
},
{
glyphname = nnabeng;
lastChange = "2020-04-14 07:51:14 +0000";
layers = (
{
anchors = (
{
name = Anchor4;
pos = (364,622);
},
{
name = Anchor6;
pos = (425,0);
},
{
name = Anchor8;
pos = (321,622);
}
);
layerId = "8680C114-EF70-46E9-96FB-C90A78B2DAE0";
shapes = (
{
closed = 1;
nodes = (
(556,622,l),
(533,688,l),
(425,688,l),
(425,600,ls),
(425,570,o),
(426,534,o),
(428,502,c),
(450,503,l),
(386,567,o),
(318,629,o),
(213,629,cs),
(110,629,o),
(31,560,o),
(31,454,cs),
(31,340,o),
(105,262,o),
(278,242,c),
(293,372,l),
(191,376,o),
(167,408,o),
(167,451,cs),
(167,492,o),
(194,516,o),
(234,516,cs),
(310,516,o),
(384,446,o),
(448,364,c),
(425,422,l),
(425,0,l),
(557,0,l),
(557,512,l),
(653,512,l),
(653,622,l)
);
}
);
width = 643;
},
{
anchors = (
{
name = Anchor4;
pos = (387,622);
},
{
name = Anchor6;
pos = (448,0);
},
{
name = Anchor8;
pos = (310,622);
}
);
layerId = UUID0;
shapes = (
{
closed = 1;
nodes = (
(524,622,l),
(501,688,l),
(448,688,l),
(448,576,ls),
(448,543,o),
(450,500,o),
(454,477,c),
(470,473,l),
(385,574,o),
(315,629,o),
(211,629,cs),
(120,629,o),
(40,570,o),
(40,462,cs),
(40,345,o),
(137,283,o),
(269,272,c),
(275,355,l),
(165,366,o),
(122,398,o),
(122,463,cs),
(122,518,o),
(159,556,o),
(222,556,cs),
(302,556,o),
(376,496,o),
(468,363,c),
(448,425,l),
(448,0,l),
(525,0,l),
(525,551,l),
(630,551,l),
(630,622,l)
);
}
);
width = 620;
},
{
anchors = (
{
name = Anchor4;
pos = (401,622);
},
{
name = Anchor6;
pos = (446,0);
},
{
name = Anchor8;
pos = (299,622);
}
);
layerId = "46A56A9B-0135-45C3-BDA6-6C6C4BC92BD5";
shapes = (
{
closed = 1;
nodes = (
(469,622,l),
(464,676,l),
(443,676,l),
(443,546,ls),
(443,510,o),
(444,479,o),
(446,449,c),
(464,441,l),
(385,561,o),
(314,629,o),
(203,629,cs),
(106,629,o),
(43,561,o),
(43,478,cs),
(43,364,o),
(136,313,o),
(250,300,c),
(252,326,l),
(135,343,o),
(70,386,o),
(70,478,cs),
(70,542,o),
(112,603,o),
(205,603,cs),
(285,603,o),
(351,566,o),
(455,417,c),
(443,445,l),
(443,0,l),
(469,0,l),
(469,596,l),
(584,596,l),
(584,622,l)
);
}
);
width = 574;
},
{
anchors = (
{
name = Anchor4;
pos = (378,622);
},
{
name = Anchor6;
pos = (433,0);
},
{
name = Anchor8;
pos = (341,622);
}
);
layerId = "22409DE3-74E9-441F-9C04-63D5519B89AC";
shapes = (
{
closed = 1;
nodes = (
(607,622,l),
(583,692,l),
(433,692,l),
(433,618,ls),
(433,591,o),
(434,555,o),
(437,520,c),
(465,504,l),
(412,557,o),
(340,629,o),
(230,629,cs),
(113,629,o),
(33,548,o),
(33,448,cs),
(33,322,o),
(108,246,o),
(297,224,c),
(318,384,l),
(226,387,o),
(211,416,o),
(211,444,cs),
(211,469,o),
(230,485,o),
(261,485,cs),
(324,485,o),
(378,432,o),
(440,357,c),
(433,403,l),
(433,0,l),
(608,0,l),
(608,484,l),
(693,484,l),
(693,622,l)
);
}
);
width = 683;
},
{
anchors = (
{
name = Anchor4;
pos = (284,622);
},
{
name = Anchor6;
pos = (326,0);
},
{
name = Anchor8;
pos = (232,622);
}
);
layerId = "F0143EB7-DEA3-4B38-8B70-DEA25CF19AA9";
shapes = (
{
closed = 1;
nodes = (
(397,622,l),
(380,687,l),
(326,687,l),
(326,613,ls),
(326,580,o),
(327,536,o),
(329,514,c),
(348,503,l),
(291,589,o),
(248,629,o),
(174,629,cs),
(96,629,o),
(28,571,o),
(28,473,cs),
(28,353,o),
(112,293,o),
(195,273,c),
(214,351,l),
(145,369,o),
(102,401,o),
(102,470,cs),
(102,523,o),
(134,559,o),
(181,559,cs),
(240,559,o),
(280,513,o),
(345,399,c),
(326,454,l),
(326,0,l),
(397,0,l),
(397,554,l),
(471,554,l),
(471,622,l)
);
}
);
width = 465;
}
);
unicode = 2467;
},
{
glyphname = tabeng;
lastChange = "2020-04-14 07:51:14 +0000";
layers = (
{
anchors = (
{
name = Anchor4;
pos = (391,622);
},
{
name = Anchor6;
pos = (426,0);
},
{
name = Anchor8;
pos = (366,622);
}
);
layerId = "8680C114-EF70-46E9-96FB-C90A78B2DAE0";
shapes = (
{
closed = 1;
nodes = (
(619,33,o),
(698,136,o),
(698,255,cs),
(698,382,o),
(615,476,o),
(465,476,cs),
(372,476,o),
(288,437,o),
(288,337,cs),
(288,317,o),
(293,289,o),
(306,259,c),
(431,278,l),
(426,291,o),
(423,306,o),
(423,321,cs),
(423,353,o),
(446,369,o),
(477,369,cs),
(523,369,o),
(565,335,o),
(565,267,cs),
(565,189,o),
(517,148,o),
(414,148,cs),
(280,148,o),
(203,247,o),
(141,463,c),
(16,428,l),
(99,129,o),
(242,33,o),
(430,33,cs)
);
},
{
closed = 1;
nodes = (
(-10,622,l),
(-10,512,l),
(742,512,l),
(742,622,l)
);
}
);
width = 732;
},
{
anchors = (
{
name = Anchor4;
pos = (378,622);
},
{
name = Anchor6;
pos = (427,0);
},
{
name = Anchor8;
pos = (353,622);
}
);
layerId = UUID0;
shapes = (
{
closed = 1;
nodes = (
(571,50,o),
(650,148,o),
(650,274,cs),
(650,408,o),
(563,500,o),
(440,500,cs),
(351,500,o),
(288,457,o),
(288,380,cs),
(288,354,o),
(293,331,o),
(301,306,c),
(378,321,l),
(371,340,o),
(369,354,o),
(369,367,cs),
(369,404,o),
(390,429,o),
(444,429,cs),
(521,429,o),
(573,362,o),
(573,278,cs),
(573,193,o),
(529,126,o),
(405,126,cs),
(258,126,o),
(175,237,o),
(105,486,c),
(29,466,l),
(110,160,o),
(242,50,o),
(407,50,cs)
);
},
{
closed = 1;
nodes = (
(-10,622,l),
(-10,551,l),
(717,551,l),
(717,622,l)
);
}
);
width = 707;
},
{
anchors = (
{
name = Anchor4;
pos = (384,622);
},
{
name = Anchor6;
pos = (432,5);
},
{
name = Anchor8;
pos = (347,622);
}
);
layerId = "46A56A9B-0135-45C3-BDA6-6C6C4BC92BD5";
shapes = (
{
closed = 1;
nodes = (
(559,85,o),
(616,192,o),
(616,302,cs),
(616,434,o),
(534,514,o),
(424,514,cs),
(354,514,o),
(293,473,o),
(293,398,cs),
(293,373,o),
(300,344,o),
(310,321,c),
(335,328,l),
(323,357,o),
(320,376,o),
(320,397,cs),
(320,452,o),
(356,488,o),
(423,488,cs),
(525,488,o),
(589,416,o),
(589,301,cs),
(589,212,o),
(551,111,o),
(399,111,cs),
(241,111,o),
(139,223,o),
(61,484,c),
(35,477,l),
(121,189,o),
(239,85,o),
(399,85,cs)
);
},
{
closed = 1;
nodes = (
(-10,622,l),
(-10,596,l),
(693,596,l),
(693,622,l)
);
}
);
width = 683;
},
{
anchors = (
{
name = Anchor4;
pos = (384,622);
},
{
name = Anchor6;
pos = (422,0);
},
{
name = Anchor8;
pos = (382,622);
}
);
layerId = "22409DE3-74E9-441F-9C04-63D5519B89AC";
shapes = (
{
closed = 1;
nodes = (
(648,26,o),
(741,114,o),
(741,243,cs),
(741,366,o),
(655,459,o),
(490,459,cs),
(391,459,o),
(296,420,o),
(296,314,cs),
(296,294,o),
(300,263,o),
(314,233,c),
(479,252,l),
(475,263,o),
(473,274,o),
(473,288,cs),
(473,310,o),
(487,325,o),
(509,325,cs),
(544,325,o),
(566,299,o),
(566,257,cs),
(566,193,o),
(508,171,o),
(432,171,cs),
(307,171,o),
(226,252,o),
(174,450,c),
(13,407,l),
(98,115,o),
(261,26,o),
(456,26,cs)
);
},
{
closed = 1;
nodes = (
(-10,622,l),
(-10,484,l),
(775,484,l),
(775,622,l)
);
}
);
width = 765;
},
{
anchors = (
{
name = Anchor4;
pos = (273,622);
},
{
name = Anchor6;
pos = (302,0);
},
{
name = Anchor8;
pos = (258,622);
}
);
layerId = "F0143EB7-DEA3-4B38-8B70-DEA25CF19AA9";
shapes = (
{
closed = 1;
nodes = (
(425,51,o),
(479,152,o),
(479,278,cs),
(479,411,o),
(418,500,o),
(318,500,cs),
(259,500,o),
(205,464,o),
(205,391,cs),
(205,362,o),
(210,336,o),
(219,310,c),
(285,324,l),
(280,344,o),
(277,359,o),
(277,376,cs),
(277,415,o),
(297,431,o),
(323,431,cs),
(375,431,o),
(408,368,o),
(408,279,cs),
(408,192,o),
(380,124,o),
(293,124,cs),
(190,124,o),
(136,232,o),
(88,484,c),
(18,469,l),
(75,159,o),
(159,51,o),
(297,51,cs)
);
},
{
closed = 1;
nodes = (
(-6,622,l),
(-6,554,l),
(523,554,l),
(523,622,l)
);
}
);
width = 517;
}
);
unicode = 2468;
},
{
glyphname = thabeng;
lastChange = "2020-04-14 07:51:14 +0000";
layers = (
{
anchors = (
{
name = Anchor4;
pos = (439,622);
},
{
name = Anchor6;
pos = (500,0);
},
{
name = Anchor8;
pos = (359,622);
}
);
layerId = "8680C114-EF70-46E9-96FB-C90A78B2DAE0";
shapes = (
{
closed = 1;
nodes = (
(631,622,l),
(608,688,l),
(500,688,l),
(500,242,ls),
(500,207,o),
(500,176,o),
(502,146,c),
(430,208,o),
(355,271,o),
(162,291,c),
(103,315,l),
(135,199,l),
(303,172,o),
(406,113,o),
(500,0,c),
(632,0,l),
(632,512,l),
(728,512,l),
(728,622,l)
);
},
{
closed = 1;
nodes = (
(99,625,o),
(37,559,o),
(37,482,cs),
(37,415,o),
(80,379,o),
(115,356,c),
(197,438,l),
(179,450,o),
(168,464,o),
(168,481,cs),
(168,499,o),
(186,518,o),
(228,518,cs),
(284,518,o),
(312,485,o),
(312,447,cs),
(312,384,o),
(254,343,o),
(103,315,c),
(143,262,l),
(206,248,l),
(353,266,o),
(444,340,o),
(444,451,cs),
(444,541,o),
(378,625,o),
(227,625,cs)
);
}
);
width = 718;
},
{
anchors = (
{
name = Anchor4;
pos = (412,622);
},
{
name = Anchor6;
pos = (473,0);
},
{
name = Anchor8;
pos = (322,622);
}
);
layerId = UUID0;
shapes = (
{
closed = 1;
nodes = (
(549,622,l),
(526,688,l),
(473,688,l),
(473,193,ls),
(473,157,o),
(473,127,o),
(475,97,c),
(418,179,o),
(311,264,o),
(144,296,c),
(92,331,l),
(115,238,l),
(281,207,o),
(396,110,o),
(473,0,c),
(550,0,l),
(550,551,l),
(655,551,l),
(655,622,l)
);
},
{
closed = 1;
nodes = (
(100,625,o),
(38,567,o),
(38,497,cs),
(38,443,o),
(68,409,o),
(106,384,c),
(150,446,l),
(125,459,o),
(116,475,o),
(116,494,cs),
(116,523,o),
(142,555,o),
(209,555,cs),
(281,555,o),
(319,523,o),
(319,466,cs),
(319,395,o),
(260,343,o),
(92,331,c),
(110,285,l),
(158,275,l),
(309,292,o),
(400,360,o),
(400,464,cs),
(400,554,o),
(337,625,o),
(211,625,cs)
);
}
);
width = 645;
},
{
anchors = (
{
name = Anchor4;
pos = (416,622);
},
{
name = Anchor6;
pos = (461,0);
},
{
name = Anchor8;
pos = (306,622);
}
);
layerId = "46A56A9B-0135-45C3-BDA6-6C6C4BC92BD5";
shapes = (
{
closed = 1;
nodes = (
(475,622,l),
(470,676,l),
(449,676,l),
(449,136,ls),
(449,99,o),
(449,70,o),
(451,40,c),
(404,138,o),
(292,250,o),
(115,292,c),
(88,312,l),
(98,270,l),
(278,232,o),
(390,114,o),
(449,0,c),
(475,0,l),
(475,596,l),
(590,596,l),
(590,622,l)
);
},
{
closed = 1;
nodes = (
(95,625,o),
(41,570,o),
(41,506,cs),
(41,462,o),
(58,435,o),
(100,406,c),
(116,427,l),
(86,446,o),
(68,468,o),
(68,505,cs),
(68,552,o),
(103,599,o),
(183,599,cs),
(278,599,o),
(321,542,o),
(321,473,cs),
(321,383,o),
(264,330,o),
(88,312,c),
(102,284,l),
(109,290,l),
(261,309,o),
(348,355,o),
(348,474,cs),
(348,550,o),
(297,625,o),
(184,625,cs)
);
}
);
width = 580;
},
{
anchors = (
{
name = Anchor4;
pos = (474,622);
},
{
name = Anchor6;
pos = (529,0);
},
{
name = Anchor8;
pos = (389,622);
}
);
layerId = "22409DE3-74E9-441F-9C04-63D5519B89AC";
shapes = (
{
closed = 1;
nodes = (
(703,622,l),
(679,692,l),
(529,692,l),
(529,273,ls),
(529,238,o),
(529,207,o),
(531,177,c),
(464,230,o),
(399,267,o),
(259,287,c),
(140,329,l),
(181,184,l),
(343,150,o),
(429,107,o),
(529,0,c),
(704,0,l),
(704,484,l),
(789,484,l),
(789,622,l)
);
},
{
closed = 1;
nodes = (
(116,626,o),
(37,565,o),
(37,477,cs),
(37,417,o),
(71,377,o),
(109,343,c),
(235,426,l),
(218,440,o),
(213,452,o),
(213,463,cs),
(213,481,o),
(228,498,o),
(256,498,cs),
(298,498,o),
(318,471,o),
(318,444,cs),
(318,381,o),
(246,351,o),
(140,329,c),
(179,266,l),
(251,242,l),
(399,264,o),
(488,325,o),
(488,446,cs),
(488,531,o),
(421,626,o),
(249,626,cs)
);
}
);
width = 779;
},
{
anchors = (
{
name = Anchor4;
pos = (304,622);
},
{
name = Anchor6;
pos = (346,0);
},
{
name = Anchor8;
pos = (242,622);
}
);
layerId = "F0143EB7-DEA3-4B38-8B70-DEA25CF19AA9";
shapes = (
{
closed = 1;
nodes = (
(416,622,l),
(399,688,l),
(346,688,l),
(346,193,ls),
(346,157,o),
(347,127,o),
(349,97,c),
(305,184,o),
(238,269,o),
(107,304,c),
(63,329,l),
(85,245,l),
(212,207,o),
(286,116,o),
(346,0,c),
(417,0,l),
(417,554,l),
(491,554,l),
(491,622,l)
);
},
{
closed = 1;
nodes = (
(73,625,o),
(28,573,o),
(28,509,cs),
(28,459,o),
(54,422,o),
(81,395,c),
(135,441,l),
(115,459,o),
(99,477,o),
(99,507,cs),
(99,530,o),
(113,557,o),
(153,557,cs),
(198,557,o),
(228,525,o),
(228,467,cs),
(228,392,o),
(169,343,o),
(63,329,c),
(89,286,l),
(119,279,l),
(222,293,o),
(298,360,o),
(298,465,cs),
(298,554,o),
(250,625,o),
(154,625,cs)
);
}
);
width = 485;
}
);
unicode = 2469;
},
{
glyphname = dabeng;
lastChange = "2020-04-14 07:51:14 +0000";
layers = (
{
anchors = (
{
name = Anchor4;
pos = (285,622);
},
{
name = Anchor6;
pos = (439,0);
},
{
name = Anchor8;
pos = (319,622);
}
);
layerId = "8680C114-EF70-46E9-96FB-C90A78B2DAE0";
shapes = (
{
closed = 1;
nodes = (
(-10,622,l),
(-10,512,l),
(75,512,l),
(75,188,l),
(184,117,l),
(271,199,o),
(383,288,o),
(501,339,c),
(461,395,l),
(434,343,o),
(410,275,o),
(410,201,cs),
(410,122,o),
(423,60,o),
(447,-11,c),
(576,16,l),
(553,84,o),
(543,151,o),
(543,203,cs),
(543,272,o),
(556,332,o),
(585,383,c),
(494,459,l),
(360,404,o),
(250,332,o),
(178,255,c),
(207,235,l),
(207,512,l),
(649,512,l),
(649,622,l)
);
}
);
width = 639;
},
{
anchors = (
{
name = Anchor4;
pos = (307,622);
},
{
name = Anchor6;
pos = (443,0);
},
{
name = Anchor8;
pos = (301,622);
}
);
layerId = UUID0;
shapes = (
{
closed = 1;
nodes = (
(-10,622,l),
(-10,551,l),
(82,551,l),
(82,215,l),
(141,175,l),
(250,284,o),
(350,358,o),
(465,405,c),
(453,410,l),
(430,374,o),
(409,303,o),
(409,222,cs),
(409,142,o),
(423,70,o),
(447,-7,c),
(522,10,l),
(497,85,o),
(487,140,o),
(487,205,cs),
(487,292,o),
(502,352,o),
(540,422,c),
(475,486,l),
(339,436,o),
(225,362,o),
(145,273,c),
(159,253,l),
(159,551,l),
(613,551,l),
(613,622,l)
);
}
);
width = 603;
},
{
anchors = (
{
name = Anchor4;
pos = (307,622);
},
{
name = Anchor6;
pos = (449,0);
},
{
name = Anchor8;
pos = (290,622);
}
);
layerId = "46A56A9B-0135-45C3-BDA6-6C6C4BC92BD5";
shapes = (
{
closed = 1;
nodes = (
(-10,622,l),
(-10,596,l),
(88,596,l),
(88,205,l),
(113,189,l),
(227,307,o),
(343,407,o),
(480,472,c),
(471,475,l),
(432,398,o),
(418,310,o),
(418,235,cs),
(418,145,o),
(434,76,o),
(457,-3,c),
(483,3,l),
(459,84,o),
(444,149,o),
(444,234,cs),
(444,306,o),
(459,388,o),
(497,473,c),
(472,495,l),
(329,426,o),
(206,325,o),
(101,211,c),
(114,203,l),
(114,596,l),
(569,596,l),
(569,622,l)
);
}
);
width = 559;
},
{
anchors = (
{
name = Anchor4;
pos = (271,622);
},
{
name = Anchor6;
pos = (427,0);
},
{
name = Anchor8;
pos = (328,622);
}
);
layerId = "22409DE3-74E9-441F-9C04-63D5519B89AC";
shapes = (
{
closed = 1;
nodes = (
(-10,622,l),
(-10,484,l),
(65,484,l),
(65,168,l),
(214,80,l),
(287,150,o),
(399,251,o),
(525,311,c),
(470,358,l),
(426,281,o),
(403,241,o),
(403,162,cs),
(403,100,o),
(412,45,o),
(434,-14,c),
(604,21,l),
(588,72,o),
(579,127,o),
(579,170,cs),
(579,242,o),
(590,304,o),
(617,357,c),
(496,453,l),
(366,395,o),
(252,309,o),
(186,241,c),
(239,226,l),
(239,484,l),
(667,484,l),
(667,622,l)
);
}
);
width = 657;
},
{
anchors = (
{
name = Anchor4;
pos = (223,622);
},
{
name = Anchor6;
pos = (315,0);
},
{
name = Anchor8;
pos = (220,622);
}
);
layerId = "F0143EB7-DEA3-4B38-8B70-DEA25CF19AA9";
shapes = (
{
closed = 1;
nodes = (
(-6,622,l),
(-6,554,l),
(57,554,l),
(57,214,l),
(120,187,l),
(192,288,o),
(275,368,o),
(358,422,c),
(328,410,l),
(305,370,o),
(288,306,o),
(288,215,cs),
(288,143,o),
(298,71,o),
(319,-7,c),
(388,10,l),
(366,87,o),
(359,139,o),
(359,202,cs),
(359,293,o),
(372,349,o),
(403,428,c),
(341,486,l),
(245,434,o),
(161,353,o),
(110,276,c),
(128,254,l),
(128,554,l),
(447,554,l),
(447,622,l)
);
}
);
width = 441;
}
);
unicode = 2470;
},
{
glyphname = dhabeng;
lastChange = "2020-04-14 07:51:14 +0000";
layers = (
{
anchors = (
{
name = Anchor6;
pos = (411,0);
},
{
name = Anchor8;
pos = (314,622);
}
);
layerId = "8680C114-EF70-46E9-96FB-C90A78B2DAE0";
shapes = (
{
closed = 1;
nodes = (
(411,622,l),
(411,462,l),
(433,495,l),
(291,458,o),
(138,389,o),
(16,321,c),
(66,203,l),
(215,178,o),
(336,108,o),
(411,0,c),
(543,0,l),
(543,512,l),
(639,512,l),
(639,622,l)
);
},
{
closed = 1;
nodes = (
(411,220,ls),
(411,178,o),
(413,147,o),
(414,117,c),
(433,128,l),
(364,210,o),
(266,262,o),
(184,278,c),
(270,319,o),
(344,351,o),
(432,377,c),
(411,399,l)
);
},
{
closed = 1;
nodes = (
(124,629,o),
(90,564,o),
(90,508,cs),
(90,434,o),
(142,390,o),
(229,347,c),
(306,424,l),
(246,436,o),
(215,456,o),
(215,490,cs),
(215,508,o),
(229,525,o),
(264,525,cs),
(277,525,o),
(285,524,o),
(291,523,c),
(299,624,l),
(279,627,o),
(258,629,o),
(237,629,cs)
);
}
);
width = 629;
},
{
anchors = (
{
name = Anchor6;
pos = (424,0);
},
{
name = Anchor8;
pos = (298,622);
}
);
layerId = UUID0;
shapes = (
{
closed = 1;
nodes = (
(424,622,l),
(424,482,l),
(447,524,l),
(301,480,o),
(165,416,o),
(37,339,c),
(76,243,l),
(230,218,o),
(363,119,o),
(424,0,c),
(501,0,l),
(501,551,l),
(606,551,l),
(606,622,l)
);
},
{
closed = 1;
nodes = (
(424,189,ls),
(424,146,o),
(426,119,o),
(429,88,c),
(438,88,l),
(382,204,o),
(238,280,o),
(130,304,c),
(225,362,o),
(344,413,o),
(445,446,c),
(424,474,l)
);
},
{
closed = 1;
nodes = (
(150,629,o),
(109,578,o),
(109,524,cs),
(109,459,o),
(157,416,o),
(233,378,c),
(293,423,l),
(214,453,o),
(188,474,o),
(188,509,cs),
(188,536,o),
(211,554,o),
(251,554,cs),
(268,554,o),
(279,553,o),
(287,552,c),
(293,624,l),
(275,627,o),
(256,629,o),
(240,629,cs)
);
}
);
width = 596;
},
{
anchors = (
{
name = Anchor6;
pos = (424,0);
},
{
name = Anchor8;
pos = (288,622);
}
);
layerId = "46A56A9B-0135-45C3-BDA6-6C6C4BC92BD5";
shapes = (
{
closed = 1;
nodes = (
(424,622,l),
(424,526,l),
(443,543,l),
(294,488,o),
(167,419,o),
(41,336,c),
(55,302,l),
(224,265,o),
(355,159,o),
(424,0,c),
(450,0,l),
(450,596,l),
(565,596,l),
(565,622,l)
);
},
{
closed = 1;
nodes = (
(424,167,ls),
(424,112,o),
(426,55,o),
(430,23,c),
(436,21,l),
(371,197,o),
(211,291,o),
(70,325,c),
(184,399,o),
(317,470,o),
(446,517,c),
(424,520,l)
);
},
{
closed = 1;
nodes = (
(174,629,o),
(133,586,o),
(133,536,cs),
(133,488,o),
(161,455,o),
(227,422,c),
(245,439,l),
(186,470,o),
(160,494,o),
(160,535,cs),
(160,571,o),
(184,603,o),
(245,603,cs),
(261,603,o),
(275,601,o),
(285,599,c),
(287,625,l),
(273,628,o),
(261,629,o),
(245,629,cs)
);
}
);
width = 555;
},
{
anchors = (
{
name = Anchor6;
pos = (396,0);
},
{
name = Anchor8;
pos = (323,622);
}
);
layerId = "22409DE3-74E9-441F-9C04-63D5519B89AC";
shapes = (
{
closed = 1;
nodes = (
(396,622,l),
(396,442,l),
(418,475,l),
(281,445,o),
(144,395,o),
(14,329,c),
(74,174,l),
(229,143,o),
(313,95,o),
(396,0,c),
(571,0,l),
(571,484,l),
(656,484,l),
(656,622,l)
);
},
{
closed = 1;
nodes = (
(396,233,ls),
(396,203,o),
(399,167,o),
(402,141,c),
(429,139,l),
(382,199,o),
(283,251,o),
(210,264,c),
(272,294,o),
(345,320,o),
(415,337,c),
(396,341,l)
);
},
{
closed = 1;
nodes = (
(112,629,o),
(82,554,o),
(82,504,cs),
(82,418,o),
(146,376,o),
(246,330,c),
(323,426,l),
(279,435,o),
(246,448,o),
(246,475,cs),
(246,491,o),
(256,501,o),
(282,501,cs),
(290,501,o),
(300,500,o),
(304,499,c),
(314,623,l),
(293,626,o),
(268,629,o),
(245,629,cs)
);
}
);
width = 646;
},
{
anchors = (
{
name = Anchor6;
pos = (304,0);
},
{
name = Anchor8;
pos = (221,622);
}
);
layerId = "F0143EB7-DEA3-4B38-8B70-DEA25CF19AA9";
shapes = (
{
closed = 1;
nodes = (
(304,622,l),
(304,485,l),
(319,527,l),
(215,480,o),
(112,410,o),
(23,336,c),
(55,251,l),
(169,219,o),
(257,121,o),
(304,0,c),
(375,0,l),
(375,554,l),
(449,554,l),
(449,622,l)
);
},
{
closed = 1;
nodes = (
(304,188,ls),
(304,154,o),
(306,108,o),
(309,79,c),
(316,87,l),
(275,203,o),
(190,275,o),
(103,308,c),
(167,363,o),
(257,417,o),
(325,453,c),
(304,477,l)
);
},
{
closed = 1;
nodes = (
(101,629,o),
(64,582,o),
(64,529,cs),
(64,458,o),
(113,424,o),
(176,386,c),
(224,434,l),
(166,462,o),
(137,481,o),
(137,515,cs),
(137,542,o),
(154,558,o),
(186,558,cs),
(197,558,o),
(206,557,o),
(218,554,c),
(226,624,l),
(212,627,o),
(196,629,o),
(173,629,cs)
);
}
);
width = 443;
}
);
unicode = 2471;
},
{
glyphname = nabeng;
lastChange = "2020-04-14 07:51:14 +0000";
layers = (
{
anchors = (
{
name = Anchor6;
pos = (416,0);
},
{
name = Anchor8;
pos = (317,622);
}
);
layerId = "8680C114-EF70-46E9-96FB-C90A78B2DAE0";
shapes = (
{
closed = 1;
nodes = (
(-10,622,l),
(-10,512,l),
(416,512,l),
(416,388,ls),
(416,359,o),
(416,323,o),
(419,291,c),
(439,301,l),
(367,374,o),
(292,417,o),
(200,417,cs),
(115,417,o),
(29,368,o),
(29,261,cs),
(29,184,o),
(83,115,o),
(173,80,c),
(232,190,l),
(185,208,o),
(165,227,o),
(165,256,cs),
(165,289,o),
(191,304,o),
(225,304,cs),
(295,304,o),
(373,238,o),
(436,158,c),
(416,210,l),
(416,0,l),
(548,0,l),
(548,512,l),
(644,512,l),
(644,622,l)
);
}
);
width = 634;
},
{
anchors = (
{
name = Anchor6;
pos = (432,0);
},
{
name = Anchor8;
pos = (302,622);
}
);
layerId = UUID0;
shapes = (
{
closed = 1;
nodes = (
(-10,622,l),
(-10,551,l),
(432,551,l),
(432,371,ls),
(432,340,o),
(433,310,o),
(437,280,c),
(451,284,l),
(382,365,o),
(307,423,o),
(204,423,cs),
(128,423,o),
(46,375,o),
(46,277,cs),
(46,205,o),
(94,146,o),
(176,113,c),
(214,184,l),
(155,207,o),
(128,234,o),
(128,274,cs),
(128,325,o),
(167,351,o),
(216,351,cs),
(294,351,o),
(381,278,o),
(448,187,c),
(432,243,l),
(432,0,l),
(509,0,l),
(509,551,l),
(614,551,l),
(614,622,l)
);
}
);
width = 604;
},
{
anchors = (
{
name = Anchor6;
pos = (431,0);
},
{
name = Anchor8;
pos = (291,622);
}
);
layerId = "46A56A9B-0135-45C3-BDA6-6C6C4BC92BD5";
shapes = (
{
closed = 1;
nodes = (
(-10,622,l),
(-10,596,l),
(429,596,l),
(429,344,ls),
(429,323,o),
(429,295,o),
(431,267,c),
(451,258,l),
(385,340,o),
(307,424,o),
(187,424,cs),
(109,424,o),
(53,376,o),
(53,299,cs),
(53,228,o),
(99,187,o),
(175,154,c),
(186,178,l),
(112,210,o),
(80,239,o),
(80,300,cs),
(80,360,o),
(120,398,o),
(188,398,cs),
(295,398,o),
(375,319,o),
(449,221,c),
(429,255,l),
(429,0,l),
(455,0,l),
(455,596,l),
(570,596,l),
(570,622,l)
);
}
);
width = 560;
},
{
anchors = (
{
name = Anchor6;
pos = (409,0);
},
{
name = Anchor8;
pos = (329,622);
}
);
layerId = "22409DE3-74E9-441F-9C04-63D5519B89AC";
shapes = (
{
closed = 1;
nodes = (
(-10,622,l),
(-10,484,l),
(409,484,l),
(409,398,ls),
(409,371,o),
(410,330,o),
(412,300,c),
(431,312,l),
(357,377,o),
(282,411,o),
(201,411,cs),
(111,411,o),
(24,363,o),
(24,249,cs),
(24,168,o),
(88,97,o),
(187,60,c),
(260,197,l),
(222,211,o),
(203,222,o),
(203,242,cs),
(203,258,o),
(216,266,o),
(235,266,cs),
(296,266,o),
(368,219,o),
(431,140,c),
(409,185,l),
(409,0,l),
(584,0,l),
(584,484,l),
(669,484,l),
(669,622,l)
);
}
);
width = 659;
},
{
anchors = (
{
name = Anchor6;
pos = (309,0);
},
{
name = Anchor8;
pos = (224,622);
}
);
layerId = "F0143EB7-DEA3-4B38-8B70-DEA25CF19AA9";
shapes = (
{
closed = 1;
nodes = (
(-6,622,l),
(-6,554,l),
(309,554,l),
(309,401,ls),
(309,371,o),
(310,341,o),
(312,311,c),
(327,311,l),
(276,379,o),
(223,423,o),
(158,423,cs),
(90,423,o),
(33,375,o),
(33,288,cs),
(33,208,o),
(77,156,o),
(129,121,c),
(172,186,l),
(135,207,o),
(107,237,o),
(107,284,cs),
(107,326,o),
(131,353,o),
(169,353,cs),
(220,353,o),
(261,312,o),
(321,223,c),
(309,276,l),
(309,0,l),
(380,0,l),
(380,554,l),
(454,554,l),
(454,622,l)
);
}
);
width = 448;
}
);
unicode = 2472;
},
{
glyphname = pabeng;
lastChange = "2020-04-14 07:51:14 +0000";
layers = (
{
anchors = (
{
name = Anchor4;
pos = (486,622);
},
{
name = Anchor6;
pos = (547,0);
},
{
name = Anchor8;
pos = (382,622);
}
);
layerId = "8680C114-EF70-46E9-96FB-C90A78B2DAE0";
shapes = (
{
closed = 1;
nodes = (
(678,622,l),
(655,688,l),
(547,688,l),
(547,562,ls),
(547,528,o),
(550,492,o),
(553,465,c),
(557,486,l),
(468,575,o),
(398,629,o),
(297,629,cs),
(181,629,o),
(104,561,o),
(13,448,c),
(112,357,l),
(132,369,o),
(149,375,o),
(167,375,cs),
(193,375,o),
(213,362,o),
(213,330,cs),
(213,308,o),
(200,283,o),
(178,261,c),
(219,285,l),
(257,336,l),
(163,250,l),
(254,165,l),
(550,434,l),
(471,513,l),
(351,409,ls),
(323,384,o),
(289,353,o),
(270,330,c),
(301,321,l),
(303,328,o),
(304,349,o),
(304,370,cs),
(304,415,o),
(275,459,o),
(209,459,cs),
(166,459,o),
(136,442,o),
(110,425,c),
(113,402,l),
(168,471,o),
(220,519,o),
(301,519,cs),
(390,519,o),
(469,453,o),
(553,341,c),
(547,392,l),
(547,0,l),
(679,0,l),
(679,512,l),
(775,512,l),
(775,622,l)
);
}
);
width = 765;
},
{
anchors = (
{
name = Anchor4;
pos = (483,622);
},
{
name = Anchor6;
pos = (544,0);
},
{
name = Anchor8;
pos = (358,622);
}
);
layerId = UUID0;
shapes = (
{
closed = 1;
nodes = (
(620,622,l),
(597,688,l),
(544,688,l),
(544,558,ls),
(544,515,o),
(545,478,o),
(549,446,c),
(567,441,l),
(474,566,o),
(402,629,o),
(291,629,cs),
(185,629,o),
(102,557,o),
(22,452,c),
(98,380,l),
(119,393,o),
(139,398,o),
(160,398,cs),
(199,398,o),
(219,376,o),
(219,343,cs),
(219,309,o),
(203,284,o),
(183,262,c),
(213,285,l),
(249,328,l),
(167,250,l),
(226,195,l),
(510,463,l),
(461,516,l),
(337,400,ls),
(310,374,o),
(288,351,o),
(265,326,c),
(282,320,l),
(285,327,o),
(286,341,o),
(286,356,cs),
(286,417,o),
(251,465,o),
(174,465,cs),
(149,465,o),
(129,458,o),
(108,445,c),
(116,447,l),
(162,505,o),
(218,556,o),
(298,556,cs),
(393,556,o),
(456,491,o),
(566,332,c),
(544,396,l),
(544,0,l),
(621,0,l),
(621,551,l),
(726,551,l),
(726,622,l)
);
}
);
width = 716;
},
{
anchors = (
{
name = Anchor4;
pos = (491,622);
},
{
name = Anchor6;
pos = (536,0);
},
{
name = Anchor8;
pos = (344,622);
}
);
layerId = "46A56A9B-0135-45C3-BDA6-6C6C4BC92BD5";
shapes = (
{
closed = 1;
nodes = (
(553,622,l),
(548,676,l),
(527,676,l),
(527,528,ls),
(527,484,o),
(528,450,o),
(529,417,c),
(542,411,l),
(444,555,o),
(379,629,o),
(269,629,cs),
(178,629,o),
(92,559,o),
(22,462,c),
(47,438,l),
(69,450,o),
(93,460,o),
(127,460,cs),
(191,460,o),
(209,418,o),
(209,375,cs),
(209,326,o),
(192,289,o),
(168,269,c),
(186,279,l),
(210,307,l),
(164,267,l),
(183,248,l),
(463,507,l),
(447,527,l),
(281,373,ls),
(248,343,o),
(227,321,o),
(199,288,c),
(202,287,l),
(229,316,o),
(235,346,o),
(235,377,cs),
(235,437,o),
(199,486,o),
(128,486,cs),
(96,486,o),
(66,475,o),
(40,457,c),
(45,452,l),
(108,536,o),
(186,603,o),
(268,603,cs),
(352,603,o),
(398,572,o),
(534,384,c),
(527,412,l),
(527,0,l),
(553,0,l),
(553,596,l),
(668,596,l),
(668,622,l)
);
}
);
width = 658;
},
{
anchors = (
{
name = Anchor4;
pos = (491,622);
},
{
name = Anchor6;
pos = (546,0);
},
{
name = Anchor8;
pos = (398,622);
}
);
layerId = "22409DE3-74E9-441F-9C04-63D5519B89AC";
shapes = (
{
closed = 1;
nodes = (
(720,622,l),
(696,692,l),
(546,692,l),
(546,565,ls),
(546,538,o),
(548,500,o),
(550,477,c),
(565,492,l),
(482,583,o),
(408,629,o),
(313,629,cs),
(197,629,o),
(118,563,o),
(12,445,c),
(122,342,l),
(144,355,o),
(163,363,o),
(183,363,cs),
(207,363,o),
(218,353,o),
(218,333,cs),
(218,314,o),
(207,298,o),
(177,276,c),
(208,283,l),
(230,317,l),
(155,260,l),
(265,154,l),
(570,419,l),
(473,517,l),
(356,422,ls),
(327,398,o),
(283,358,o),
(267,336,c),
(320,317,l),
(326,335,o),
(328,355,o),
(328,373,cs),
(328,420,o),
(293,463,o),
(222,463,cs),
(194,463,o),
(157,452,o),
(128,427,c),
(170,418,l),
(232,474,o),
(259,495,o),
(321,495,cs),
(407,495,o),
(471,435,o),
(564,314,c),
(546,389,l),
(546,0,l),
(721,0,l),
(721,484,l),
(806,484,l),
(806,622,l)
);
}
);
width = 796;
},
{
anchors = (
{
name = Anchor4;
pos = (353,622);
},
{
name = Anchor6;
pos = (395,0);
},
{
name = Anchor8;
pos = (267,622);
}
);
layerId = "F0143EB7-DEA3-4B38-8B70-DEA25CF19AA9";
shapes = (
{
closed = 1;
nodes = (
(465,622,l),
(448,687,l),
(395,687,l),
(395,574,ls),
(395,544,o),
(396,510,o),
(399,478,c),
(410,484,l),
(344,583,o),
(297,629,o),
(218,629,cs),
(133,629,o),
(76,561,o),
(9,457,c),
(77,397,l),
(90,403,o),
(103,409,o),
(123,409,cs),
(151,409,o),
(170,390,o),
(170,353,cs),
(170,321,o),
(157,300,o),
(136,277,c),
(165,288,l),
(162,302,l),
(135,277,l),
(190,227,l),
(386,444,l),
(343,496,l),
(266,410,ls),
(238,379,o),
(216,349,o),
(200,325,c),
(210,314,l),
(217,328,o),
(229,355,o),
(229,381,cs),
(229,442,o),
(187,473,o),
(144,473,cs),
(114,473,o),
(92,465,o),
(74,451,c),
(84,450,l),
(130,518,o),
(173,559,o),
(225,559,cs),
(290,559,o),
(334,505,o),
(409,374,c),
(395,427,l),
(395,0,l),
(466,0,l),
(466,554,l),
(540,554,l),
(540,622,l)
);
}
);
width = 534;
}
);
unicode = 2474;
},
{
glyphname = phabeng;
lastChange = "2020-04-14 07:51:14 +0000";
layers = (
{
anchors = (
{
name = Anchor4;
pos = (439,622);
},
{
name = Anchor6;
pos = (439,0);
},
{
name = Anchor8;
pos = (442,622);
}
);
layerId = "8680C114-EF70-46E9-96FB-C90A78B2DAE0";
shapes = (
{
closed = 1;
nodes = (
(-10,622,l),
(-10,512,l),
(98,512,l),
(60,539,l),
(23,456,l),
(99,444,o),
(163,419,o),
(219,387,c),
(152,355,o),
(86,318,o),
(31,285,c),
(78,172,l),
(240,150,o),
(360,98,o),
(439,0,c),
(571,0,l),
(571,372,l),
(679,362,o),
(724,323,o),
(724,284,cs),
(724,260,o),
(714,241,o),
(666,241,cs),
(650,241,o),
(641,242,o),
(634,243,c),
(629,133,l),
(650,129,o),
(673,127,o),
(701,127,cs),
(818,127,o),
(853,191,o),
(853,258,cs),
(853,308,o),
(833,357,o),
(791,395,cs),
(714,465,o),
(621,485,o),
(485,485,cs),
(439,485,l),
(439,202,ls),
(439,178,o),
(439,156,o),
(441,134,c),
(375,202,o),
(260,246,o),
(188,256,c),
(189,250,l),
(240,279,o),
(301,307,o),
(357,330,c),
(345,418,l),
(301,458,o),
(244,499,o),
(174,519,c),
(161,512,l),
(895,512,l),
(895,622,l)
);
}
);
width = 885;
},
{
anchors = (
{
name = Anchor4;
pos = (445,622);
},
{
name = Anchor6;
pos = (445,0);
},
{
name = Anchor8;
pos = (419,622);
}
);
layerId = UUID0;
shapes = (
{
closed = 1;
nodes = (
(-10,622,l),
(-10,551,l),
(81,551,l),
(79,570,l),
(48,502,l),
(137,483,o),
(201,452,o),
(252,414,c),
(183,382,o),
(109,344,o),
(48,303,c),
(84,212,l),
(264,182,o),
(363,111,o),
(445,0,c),
(522,0,l),
(522,434,l),
(641,422,o),
(714,364,o),
(714,296,cs),
(714,261,o),
(701,232,o),
(636,232,cs),
(622,232,o),
(610,233,o),
(602,234,c),
(597,163,l),
(615,159,o),
(635,158,o),
(655,158,cs),
(755,158,o),
(792,222,o),
(792,288,cs),
(792,339,o),
(771,381,o),
(739,414,cs),
(671,485,o),
(567,510,o),
(458,510,cs),
(445,510,l),
(445,171,ls),
(445,146,o),
(446,121,o),
(447,99,c),
(361,193,o),
(270,249,o),
(114,282,c),
(125,265,l),
(181,302,o),
(268,343,o),
(341,376,c),
(336,432,l),
(292,478,o),
(197,539,o),
(114,560,c),
(130,551,l),
(848,551,l),
(848,622,l)
);
}
);
width = 838;
},
{
anchors = (
{
name = Anchor4;
pos = (447,622);
},
{
name = Anchor6;
pos = (447,0);
},
{
name = Anchor8;
pos = (408,622);
}
);
layerId = "46A56A9B-0135-45C3-BDA6-6C6C4BC92BD5";
shapes = (
{
closed = 1;
nodes = (
(-10,622,l),
(-10,596,l),
(59,596,l),
(58,597,l),
(48,574,l),
(159,537,o),
(236,496,o),
(313,443,c),
(230,409,o),
(120,352,o),
(51,305,c),
(66,274,l),
(262,225,o),
(365,124,o),
(448,0,c),
(474,0,l),
(474,497,l),
(622,479,o),
(711,404,o),
(711,312,cs),
(711,262,o),
(692,225,o),
(611,225,cs),
(596,225,o),
(583,227,o),
(571,229,c),
(569,203,l),
(583,200,o),
(593,199,o),
(611,199,cs),
(701,199,o),
(738,245,o),
(738,312,cs),
(738,360,o),
(716,403,o),
(685,434,cs),
(624,496,o),
(518,523,o),
(451,523,cs),
(448,523,l),
(448,120,ls),
(448,94,o),
(450,57,o),
(451,36,c),
(392,129,o),
(282,247,o),
(76,297,c),
(71,288,l),
(133,332,o),
(243,388,o),
(337,427,c),
(334,458,l),
(262,510,o),
(166,565,o),
(59,597,c),
(60,596,l),
(803,596,l),
(803,622,l)
);
}
);
width = 793;
},
{
anchors = (
{
name = Anchor4;
pos = (415,622);
},
{
name = Anchor6;
pos = (415,0);
},
{
name = Anchor8;
pos = (453,622);
}
);
layerId = "22409DE3-74E9-441F-9C04-63D5519B89AC";
shapes = (
{
closed = 1;
nodes = (
(-10,622,l),
(-10,484,l),
(111,484,l),
(63,518,l),
(18,414,l),
(84,401,o),
(137,388,o),
(189,364,c),
(122,337,o),
(76,315,o),
(26,288,c),
(86,142,l),
(229,123,o),
(329,75,o),
(415,0,c),
(590,0,l),
(590,325,l),
(669,316,o),
(708,297,o),
(708,268,cs),
(708,252,o),
(697,241,o),
(674,241,cs),
(661,241,o),
(649,242,o),
(640,244,c),
(634,106,l),
(659,101,o),
(688,99,o),
(719,99,cs),
(848,99,o),
(881,163,o),
(881,241,cs),
(881,296,o),
(858,338,o),
(820,373,cs),
(748,439,o),
(643,463,o),
(485,463,cs),
(415,463,l),
(415,217,ls),
(415,194,o),
(415,174,o),
(417,152,c),
(364,197,o),
(279,234,o),
(210,247,c),
(216,236,l),
(264,259,o),
(326,284,o),
(371,298,c),
(362,412,l),
(321,444,o),
(270,468,o),
(220,488,c),
(181,484,l),
(917,484,l),
(917,622,l)
);
}
);
width = 907;
},
{
anchors = (
{
name = Anchor4;
pos = (316,622);
},
{
name = Anchor6;
pos = (316,0);
},
{
name = Anchor8;
pos = (309,622);
}
);
layerId = "F0143EB7-DEA3-4B38-8B70-DEA25CF19AA9";
shapes = (
{
closed = 1;
nodes = (
(-6,622,l),
(-6,554,l),
(63,554,l),
(58,572,l),
(31,501,l),
(87,478,o),
(144,447,o),
(186,412,c),
(137,381,o),
(82,343,o),
(33,300,c),
(64,216,l),
(175,184,o),
(259,106,o),
(316,0,c),
(387,0,l),
(387,436,l),
(463,419,o),
(512,368,o),
(512,291,cs),
(512,261,o),
(504,232,o),
(465,232,cs),
(455,232,o),
(445,233,o),
(439,234,c),
(436,165,l),
(449,162,o),
(466,161,o),
(482,161,cs),
(558,161,o),
(583,224,o),
(583,288,cs),
(583,351,o),
(556,409,o),
(513,447,cs),
(466,488,o),
(404,510,o),
(330,510,cs),
(316,510,l),
(316,168,ls),
(316,143,o),
(316,118,o),
(318,96,c),
(265,183,o),
(198,244,o),
(105,279,c),
(108,270,l),
(149,306,o),
(208,345,o),
(259,376,c),
(255,440,l),
(204,486,o),
(136,536,o),
(71,563,c),
(72,554,l),
(624,554,l),
(624,622,l)
);
}
);
width = 618;
}
);
unicode = 2475;
},
{
glyphname = babeng;
lastChange = "2020-04-14 07:51:14 +0000";
layers = (
{
anchors = (
{
name = Anchor6;
pos = (411,0);
},
{
name = Anchor8;
pos = (314,622);
}
);
layerId = "8680C114-EF70-46E9-96FB-C90A78B2DAE0";
shapes = (
{
closed = 1;
nodes = (
(-10,622,l),
(-10,512,l),
(415,512,l),
(415,462,l),
(433,495,l),
(291,458,o),
(138,389,o),
(16,321,c),
(66,203,l),
(215,178,o),
(336,108,o),
(411,0,c),
(543,0,l),
(543,512,l),
(639,512,l),
(639,622,l)
);
},
{
closed = 1;
nodes = (
(411,208,ls),
(411,178,o),
(412,147,o),
(414,117,c),
(433,128,l),
(364,210,o),
(266,262,o),
(184,278,c),
(270,319,o),
(344,351,o),
(432,377,c),
(411,399,l)
);
}
);
width = 629;
},
{
anchors = (
{
name = Anchor6;
pos = (424,0);
},
{
name = Anchor8;
pos = (298,622);
}
);
layerId = UUID0;
shapes = (
{
closed = 1;
nodes = (
(-10,622,l),
(-10,551,l),
(424,551,l),
(424,482,l),
(447,524,l),
(301,480,o),
(165,416,o),
(37,339,c),
(76,243,l),
(230,218,o),
(363,119,o),
(424,0,c),
(501,0,l),
(501,551,l),
(606,551,l),
(606,622,l)
);
},
{
closed = 1;
nodes = (
(424,189,ls),
(424,146,o),
(426,119,o),
(429,88,c),
(438,88,l),
(382,204,o),
(238,280,o),
(130,304,c),
(225,362,o),
(344,413,o),
(445,446,c),
(424,474,l)
);
}
);
width = 596;
},
{
anchors = (
{
name = Anchor6;
pos = (424,0);
},
{
name = Anchor8;
pos = (288,622);
}
);
layerId = "46A56A9B-0135-45C3-BDA6-6C6C4BC92BD5";
shapes = (
{
closed = 1;
nodes = (
(-10,622,l),
(-10,596,l),
(424,596,l),
(424,526,l),
(443,543,l),
(294,488,o),
(167,419,o),
(41,336,c),
(55,302,l),
(224,265,o),
(355,159,o),
(424,0,c),
(450,0,l),
(450,596,l),
(565,596,l),
(565,622,l)
);
},
{
closed = 1;
nodes = (
(424,167,ls),
(424,112,o),
(426,55,o),
(430,23,c),
(436,21,l),
(371,197,o),
(211,291,o),
(70,325,c),
(184,399,o),
(317,470,o),
(446,517,c),
(424,520,l)
);
}
);
width = 555;
},
{
anchors = (
{
name = Anchor6;
pos = (386,0);
},
{
name = Anchor8;
pos = (318,622);
}
);
layerId = "22409DE3-74E9-441F-9C04-63D5519B89AC";
shapes = (
{
closed = 1;
nodes = (
(-10,622,l),
(-10,484,l),
(393,484,l),
(393,442,l),
(408,468,l),
(274,437,o),
(144,393,o),
(14,327,c),
(77,170,l),
(219,143,o),
(303,95,o),
(386,0,c),
(561,0,l),
(561,484,l),
(646,484,l),
(646,622,l)
);
},
{
closed = 1;
nodes = (
(386,233,ls),
(386,203,o),
(389,167,o),
(392,141,c),
(419,139,l),
(372,199,o),
(282,247,o),
(214,260,c),
(276,290,o),
(334,311,o),
(404,328,c),
(386,336,l)
);
}
);
width = 636;
},
{
anchors = (
{
name = Anchor6;
pos = (304,0);
},
{
name = Anchor8;
pos = (221,622);
}
);
layerId = "F0143EB7-DEA3-4B38-8B70-DEA25CF19AA9";
shapes = (
{
closed = 1;
nodes = (
(-6,622,l),
(-6,554,l),
(304,554,l),
(304,485,l),
(319,527,l),
(215,480,o),
(112,410,o),
(23,336,c),
(55,251,l),
(169,219,o),
(257,121,o),
(304,0,c),
(375,0,l),
(375,554,l),
(449,554,l),
(449,622,l)
);
},
{
closed = 1;
nodes = (
(304,188,ls),
(304,154,o),
(306,108,o),
(309,79,c),
(316,87,l),
(275,203,o),
(190,275,o),
(103,308,c),
(167,363,o),
(257,417,o),
(325,453,c),
(304,477,l)
);
}
);
width = 443;
}
);
unicode = 2476;
},
{
glyphname = bhabeng;
lastChange = "2020-04-14 07:51:14 +0000";
layers = (
{
anchors = (
{
name = Anchor4;
pos = (382,622);
},
{
name = Anchor6;
pos = (446,0);
},
{
name = Anchor8;
pos = (375,622);
}
);
layerId = "8680C114-EF70-46E9-96FB-C90A78B2DAE0";
shapes = (
{
closed = 1;
nodes = (
(621,29,o),
(714,123,o),
(714,247,cs),
(714,323,o),
(691,389,o),
(641,457,c),
(537,373,l),
(563,350,o),
(583,315,o),
(583,264,cs),
(583,187,o),
(528,144,o),
(432,144,cs),
(297,144,o),
(210,221,o),
(141,463,c),
(16,428,l),
(101,117,o),
(254,29,o),
(442,29,cs)
);
},
{
closed = 1;
nodes = (
(508,256,o),
(579,306,o),
(646,394,c),
(641,457,l),
(530,438,l),
(491,382,o),
(467,366,o),
(429,366,cs),
(406,366,o),
(390,376,o),
(390,401,cs),
(390,413,o),
(393,422,o),
(399,434,c),
(281,463,l),
(269,439,o),
(260,409,o),
(260,377,cs),
(260,302,o),
(316,256,o),
(407,256,cs)
);
},
{
closed = 1;
nodes = (
(-10,622,l),
(-10,512,l),
(760,512,l),
(760,622,l)
);
}
);
width = 750;
},
{
anchors = (
{
name = Anchor4;
pos = (384,622);
},
{
name = Anchor6;
pos = (434,0);
},
{
name = Anchor8;
pos = (360,622);
}
);
layerId = UUID0;
shapes = (
{
closed = 1;
nodes = (
(579,43,o),
(664,139,o),
(664,266,cs),
(664,334,o),
(640,402,o),
(590,476,c),
(542,398,l),
(568,370,o),
(588,326,o),
(588,267,cs),
(588,180,o),
(526,119,o),
(420,119,cs),
(274,119,o),
(177,221,o),
(105,485,c),
(29,465,l),
(117,145,o),
(249,43,o),
(422,43,cs)
);
},
{
closed = 1;
nodes = (
(470,284,o),
(528,332,o),
(582,422,c),
(590,476,l),
(527,466,l),
(469,370,o),
(427,355,o),
(386,355,cs),
(354,355,o),
(332,370,o),
(332,406,cs),
(332,427,o),
(341,448,o),
(351,462,c),
(271,486,l),
(260,465,o),
(249,433,o),
(249,402,cs),
(249,328,o),
(300,284,o),
(384,284,cs)
);
},
{
closed = 1;
nodes = (
(-10,622,l),
(-10,551,l),
(731,551,l),
(731,622,l)
);
}
);
width = 721;
},
{
anchors = (
{
name = Anchor4;
pos = (389,622);
},
{
name = Anchor6;
pos = (436,0);
},
{
name = Anchor8;
pos = (353,622);
}
);
layerId = "46A56A9B-0135-45C3-BDA6-6C6C4BC92BD5";
shapes = (
{
closed = 1;
nodes = (
(557,78,o),
(620,177,o),
(620,288,cs),
(620,359,o),
(594,429,o),
(539,493,c),
(520,476,l),
(546,444,o),
(593,383,o),
(593,287,cs),
(593,191,o),
(545,104,o),
(401,104,cs),
(239,104,o),
(141,219,o),
(61,484,c),
(35,477,l),
(124,186,o),
(234,78,o),
(401,78,cs)
);
},
{
closed = 1;
nodes = (
(436,314,o),
(496,374,o),
(534,469,c),
(539,493,l),
(514,488,l),
(467,371,o),
(410,340,o),
(347,340,cs),
(302,340,o),
(267,363,o),
(267,417,cs),
(267,441,o),
(275,469,o),
(287,492,c),
(262,500,l),
(250,477,o),
(240,448,o),
(240,417,cs),
(240,353,o),
(285,314,o),
(347,314,cs)
);
},
{
closed = 1;
nodes = (
(-10,622,l),
(-10,596,l),
(700,596,l),
(700,622,l)
);
}
);
width = 690;
},
{
anchors = (
{
name = Anchor4;
pos = (375,622);
},
{
name = Anchor6;
pos = (430,0);
},
{
name = Anchor8;
pos = (391,622);
}
);
layerId = "22409DE3-74E9-441F-9C04-63D5519B89AC";
shapes = (
{
closed = 1;
nodes = (
(656,23,o),
(754,111,o),
(754,242,cs),
(754,309,o),
(731,374,o),
(677,442,c),
(535,354,l),
(561,335,o),
(582,298,o),
(582,262,cs),
(582,194,o),
(521,168,o),
(451,168,cs),
(320,168,o),
(231,233,o),
(174,450,c),
(13,407,l),
(99,107,o),
(274,23,o),
(463,23,cs)
);
},
{
closed = 1;
nodes = (
(555,231,o),
(616,294,o),
(693,381,c),
(677,442,l),
(539,419,l),
(516,381,o),
(492,366,o),
(468,366,cs),
(447,366,o),
(441,377,o),
(441,393,cs),
(441,402,o),
(443,410,o),
(448,421,c),
(293,449,l),
(281,422,o),
(273,393,o),
(273,365,cs),
(273,283,o),
(331,231,o),
(435,231,cs)
);
},
{
closed = 1;
nodes = (
(-10,622,l),
(-10,484,l),
(792,484,l),
(792,622,l)
);
}
);
width = 782;
},
{
anchors = (
{
name = Anchor4;
pos = (278,622);
},
{
name = Anchor6;
pos = (309,0);
},
{
name = Anchor8;
pos = (266,622);
}
);
layerId = "F0143EB7-DEA3-4B38-8B70-DEA25CF19AA9";
shapes = (
{
closed = 1;
nodes = (
(429,44,o),
(493,136,o),
(493,267,cs),
(493,335,o),
(472,407,o),
(440,472,c),
(390,405,l),
(407,372,o),
(422,326,o),
(422,267,cs),
(422,170,o),
(379,117,o),
(306,117,cs),
(199,117,o),
(138,218,o),
(88,484,c),
(18,469,l),
(78,146,o),
(169,44,o),
(309,44,cs)
);
},
{
closed = 1;
nodes = (
(353,284,o),
(396,335,o),
(428,421,c),
(440,472,l),
(379,462,l),
(347,365,o),
(315,352,o),
(290,352,cs),
(270,352,o),
(257,368,o),
(257,395,cs),
(257,420,o),
(265,446,o),
(273,464,c),
(206,486,l),
(195,458,o),
(185,431,o),
(185,393,cs),
(185,329,o),
(225,284,o),
(287,284,cs)
);
},
{
closed = 1;
nodes = (
(-6,622,l),
(-6,554,l),
(539,554,l),
(539,622,l)
);
}
);
width = 533;
}
);
unicode = 2477;
},
{
glyphname = mabeng;
lastChange = "2020-04-14 07:51:14 +0000";
layers = (
{
anchors = (
{
name = Anchor6;
pos = (427,0);
},
{
name = Anchor8;
pos = (322,622);
}
);
layerId = "8680C114-EF70-46E9-96FB-C90A78B2DAE0";
shapes = (
{
closed = 1;
nodes = (
(-10,622,l),
(-10,512,l),
(427,512,l),
(427,306,ls),
(427,274,o),
(427,241,o),
(429,209,c),
(449,224,l),
(381,311,o),
(309,349,o),
(211,349,cs),
(126,349,o),
(40,302,o),
(40,196,cs),
(40,120,o),
(91,44,o),
(211,10,c),
(249,125,l),
(203,141,o),
(176,157,o),
(176,192,cs),
(176,224,o),
(202,240,o),
(233,240,cs),
(308,240,o),
(369,179,o),
(444,77,c),
(427,130,l),
(427,0,l),
(559,0,l),
(559,512,l),
(655,512,l),
(655,622,l)
);
},
{
closed = 1;
nodes = (
(321,454,o),
(263,521,o),
(104,541,c),
(48,557,l),
(22,456,l),
(151,443,o),
(184,415,o),
(189,321,c),
(318,288,l),
(320,300,o),
(321,314,o),
(321,321,cs)
);
}
);
width = 645;
},
{
anchors = (
{
name = Anchor6;
pos = (450,0);
},
{
name = Anchor8;
pos = (311,622);
}
);
layerId = UUID0;
shapes = (
{
closed = 1;
nodes = (
(-10,622,l),
(-10,551,l),
(450,551,l),
(450,281,ls),
(450,248,o),
(451,216,o),
(454,186,c),
(471,189,l),
(415,280,o),
(343,353,o),
(223,353,cs),
(148,353,o),
(66,303,o),
(66,208,cs),
(66,136,o),
(110,72,o),
(218,34,c),
(243,111,l),
(180,132,o),
(148,161,o),
(148,205,cs),
(148,256,o),
(187,281,o),
(236,281,cs),
(330,281,o),
(398,187,o),
(468,82,c),
(450,135,l),
(450,0,l),
(527,0,l),
(527,551,l),
(632,551,l),
(632,622,l)
);
},
{
closed = 1;
nodes = (
(299,472,o),
(225,543,o),
(97,553,c),
(51,566,l),
(38,494,l),
(172,480,o),
(216,437,o),
(221,322,c),
(297,299,l),
(298,307,o),
(299,315,o),
(299,323,cs)
);
}
);
width = 622;
},
{
anchors = (
{
name = Anchor6;
pos = (450,0);
},
{
name = Anchor8;
pos = (301,622);
}
);
layerId = "46A56A9B-0135-45C3-BDA6-6C6C4BC92BD5";
shapes = (
{
closed = 1;
nodes = (
(-10,622,l),
(-10,596,l),
(449,596,l),
(449,267,ls),
(449,246,o),
(449,218,o),
(451,190,c),
(472,180,l),
(404,266,o),
(327,365,o),
(207,365,cs),
(126,365,o),
(73,314,o),
(73,238,cs),
(73,159,o),
(126,116,o),
(211,82,c),
(221,106,l),
(139,139,o),
(100,171,o),
(100,239,cs),
(100,301,o),
(139,339,o),
(208,339,cs),
(315,339,o),
(391,248,o),
(469,144,c),
(449,178,l),
(449,0,l),
(475,0,l),
(475,596,l),
(590,596,l),
(590,622,l)
);
},
{
closed = 1;
nodes = (
(252,465,o),
(228,569,o),
(45,597,c),
(44,597,l),
(40,574,l),
(203,545,o),
(224,463,o),
(226,350,c),
(251,335,l),
(252,340,o),
(252,342,o),
(252,347,cs)
);
}
);
width = 580;
},
{
anchors = (
{
name = Anchor6;
pos = (425,0);
},
{
name = Anchor8;
pos = (337,622);
}
);
layerId = "22409DE3-74E9-441F-9C04-63D5519B89AC";
shapes = (
{
closed = 1;
nodes = (
(-10,622,l),
(-10,484,l),
(425,484,l),
(425,332,ls),
(425,306,o),
(427,265,o),
(428,235,c),
(443,242,l),
(374,317,o),
(303,343,o),
(218,343,cs),
(127,343,o),
(35,306,o),
(35,191,cs),
(35,91,o),
(106,33,o),
(223,1,c),
(271,136,l),
(234,149,o),
(214,162,o),
(214,181,cs),
(214,197,o),
(227,205,o),
(246,205,cs),
(308,205,o),
(382,152,o),
(444,69,c),
(425,120,l),
(425,0,l),
(600,0,l),
(600,484,l),
(685,484,l),
(685,622,l)
);
},
{
closed = 1;
nodes = (
(349,444,o),
(276,486,o),
(131,513,c),
(52,527,l),
(24,411,l),
(148,401,o),
(171,368,o),
(174,296,c),
(343,256,l),
(347,272,o),
(349,291,o),
(349,307,cs)
);
}
);
width = 675;
},
{
anchors = (
{
name = Anchor6;
pos = (318,0);
},
{
name = Anchor8;
pos = (228,622);
}
);
layerId = "F0143EB7-DEA3-4B38-8B70-DEA25CF19AA9";
shapes = (
{
closed = 1;
nodes = (
(-6,622,l),
(-6,554,l),
(318,554,l),
(318,331,ls),
(318,301,o),
(319,271,o),
(321,241,c),
(336,241,l),
(285,309,o),
(240,351,o),
(167,351,cs),
(99,351,o),
(42,305,o),
(42,218,cs),
(42,126,o),
(102,71,o),
(156,42,c),
(193,110,l),
(148,133,o),
(116,163,o),
(116,214,cs),
(116,256,o),
(140,283,o),
(178,283,cs),
(229,283,o),
(270,242,o),
(330,153,c),
(318,206,l),
(318,0,l),
(389,0,l),
(389,554,l),
(463,554,l),
(463,622,l)
);
},
{
closed = 1;
nodes = (
(234,453,o),
(189,539,o),
(57,558,c),
(39,568,l),
(27,498,l),
(134,475,o),
(159,426,o),
(162,327,c),
(232,300,l),
(233,312,o),
(234,327,o),
(234,343,cs)
);
}
);
width = 457;
}
);
unicode = 2478;
},
